<svg id="SvgjsSvg1001" width="288" height="288" xmlns="http://www.w3.org/2000/svg" version="1.1" xmlns:xlink="http://www.w3.org/1999/xlink" xmlns:svgjs="http://svgjs.com/svgjs"><defs id="SvgjsDefs1002"></defs><g id="SvgjsG1008" transform="matrix(1,0,0,1,0,0)"><svg xmlns="http://www.w3.org/2000/svg" width="288" height="288" viewBox="0 0 62.234 49.788"><path d="M9.335,6.223H52.9V40.453h6.223V3.89A3.894,3.894,0,0,0,55.233,0H7a3.894,3.894,0,0,0-3.89,3.89V40.453H9.335ZM60.679,43.564h-14V37.341H28.006v6.223H1.556A1.555,1.555,0,0,0,0,45.12v3.112a1.555,1.555,0,0,0,1.556,1.556H60.679a1.555,1.555,0,0,0,1.556-1.556V45.12A1.555,1.555,0,0,0,60.679,43.564Z" data-name="Icon awesome-chalkboard" fill="#ffffff" class="color000 svgShape"></path></svg></g></svg>