<svg id="SvgjsSvg1001" width="288" height="288" xmlns="http://www.w3.org/2000/svg" version="1.1" xmlns:xlink="http://www.w3.org/1999/xlink" xmlns:svgjs="http://svgjs.com/svgjs"><defs id="SvgjsDefs1002"></defs><g id="SvgjsG1008" transform="matrix(1,0,0,1,0,0)"><svg xmlns="http://www.w3.org/2000/svg" width="288" height="288" viewBox="0 0 60.18 66.866"><path fill="#ffffff" d="M51.306,31.59H17.873v6.687H51.306Zm6.687-23.4H54.65V1.5H47.963V8.187H21.217V1.5H14.53V8.187H11.187a6.656,6.656,0,0,0-6.653,6.687L4.5,61.68a6.685,6.685,0,0,0,6.687,6.687H57.993A6.706,6.706,0,0,0,64.68,61.68V14.873A6.706,6.706,0,0,0,57.993,8.187Zm0,53.493H11.187V24.9H57.993ZM41.276,44.963h-23.4V51.65h23.4Z" data-name="Icon material-event-note" transform="translate(-4.5 -1.5)" class="color393939 svgShape"></path></svg></g></svg>