<svg xmlns="http://www.w3.org/2000/svg" width="129" height="129" viewBox="0 0 129 129">
  <g id="Group_6991" data-name="Group 6991" transform="translate(-4508 -2989)">
    <circle id="Ellipse_17" data-name="Ellipse 17" cx="64.5" cy="64.5" r="64.5" transform="translate(4508 2989)" fill="#ecf8ff"/>
    <g id="Group_6989" data-name="Group 6989" transform="translate(4227 83.495)">
      <g id="Group_5984" data-name="Group 5984" transform="translate(298 2935.505)">
        <g id="Group_3869" data-name="Group 3869" transform="translate(0 0)">
          <path id="Path_17434" data-name="Path 17434" d="M-144.745-800.58a6.971,6.971,0,0,1-2.4,3.686,6.777,6.777,0,0,1-4.145,1.183q-29.026-.017-58.052-.007c-7.959,0-15.919-.087-23.876.038-3.735.059-6.355-1.177-7.482-4.9v-4.873a3.191,3.191,0,0,1,3-2.1v-1.168c0-16.426.054-32.854-.04-49.28a6.375,6.375,0,0,1,6.7-6.7c25.608.068,51.216.034,76.824.036,3.321,0,5.655,1.726,6.32,4.711a8.623,8.623,0,0,1,.143,1.86q.011,24.64.006,49.28v1.211a3.326,3.326,0,0,1,3,2.149Zm-5.811-6.984v-1.083q0-24.69,0-49.38c0-2.648-1.171-3.81-3.844-3.81q-38.323,0-76.646,0c-2.67,0-3.841,1.164-3.841,3.814q0,24.69,0,49.38v1.081c1.492,0,2.86-.013,4.227,0,1.189.015,1.794.528,1.766,1.452-.026.874-.645,1.374-1.763,1.382-1.812.012-3.623,0-5.435,0h-1.784c0,1.164-.059,2.194.014,3.215a3.053,3.053,0,0,0,2.794,2.913,8.233,8.233,0,0,0,1.121.047q41.228,0,82.456,0a7.442,7.442,0,0,0,1.4-.1,2.734,2.734,0,0,0,2.39-2.314,34.5,34.5,0,0,0,.195-3.758h-1.282c-10.494,0-20.989.055-31.483-.049-1.951-.019-3.251.374-4.166,2.2a4.434,4.434,0,0,1-4.365,2.358,55.935,55.935,0,0,0-6.087.029c-3.283.314-5.665-.81-7.1-3.8a1.334,1.334,0,0,0-1.432-.749c-6.684.024-13.368.016-20.051.011a4.448,4.448,0,0,1-1.113-.085,1.3,1.3,0,0,1-1.07-1.445,1.3,1.3,0,0,1,1.267-1.272c.4-.035.81-.037,1.216-.037q35.606,0,71.212,0Zm-48.323,2.9c.525,1.271.95,1.607,2.133,1.613,2.684.014,5.367-.009,8.051.011a2.173,2.173,0,0,0,2.181-1.624Z" transform="translate(240.699 864.698)" fill="#00629f" fill-rule="evenodd"/>
          <path id="Path_17435" data-name="Path 17435" d="M-178.4-836.156v1.181q0,19.957-.025,39.913c0,.985.292,1.171,1.208,1.169q24.454-.041,48.908-.02h1.136V-836.1c-.519-.024-1.036-.032-1.55-.074a1.353,1.353,0,0,1-1.394-1.338,1.365,1.365,0,0,1,1.382-1.46,26.728,26.728,0,0,1,3,0,1.4,1.4,0,0,1,1.417,1.448c.015.249.006.5.006.749q0,21.737,0,43.474c0,1.848-.4,2.243-2.251,2.244h-73.455c-1.846,0-2.242-.4-2.242-2.252q0-21.737,0-43.474c0-1.812.393-2.212,2.18-2.212q32.277,0,64.554.005c.431,0,.979-.06,1.264.168a2.323,2.323,0,0,1,.881,1.366,1.174,1.174,0,0,1-1.145,1.249,10.057,10.057,0,0,1-1.215.046q-20.659,0-41.319,0Zm-20.982.048v42.114h18.058v-42.114Z" transform="translate(211.268 845.03)" fill="#00629f" fill-rule="evenodd"/>
          <g id="Group_3862" data-name="Group 3862" transform="translate(64.571 25.43)">
            <path id="Path_17436" data-name="Path 17436" d="M41.654-748.31c.788-2.194,1.5-4.169,2.205-6.144a2.549,2.549,0,0,1,3.792-1.243,1.913,1.913,0,0,1,.657,1.337c.049,4.37.038,8.741.022,13.111a1.455,1.455,0,0,1-1.455,1.61,1.413,1.413,0,0,1-1.358-1.589c-.021-2.622-.009-5.245-.01-7.867a1.6,1.6,0,0,0-.2-.916c-.24.656-.483,1.31-.72,1.967-.475,1.318-.968,2.629-1.411,3.958-.256.765-.619,1.423-1.5,1.438-.943.016-1.293-.693-1.565-1.479-.679-1.961-1.394-3.91-2.229-5.853-.016.255-.045.51-.046.765,0,2.529,0,5.057-.009,7.586,0,.368.033.857-.175,1.076-.368.388-.932.869-1.373.83s-.89-.619-1.208-1.055c-.171-.234-.091-.665-.091-1.007q-.007-6.041,0-12.081c0-1.423.313-2,1.328-2.1,1.747-.172,2.612-.12,3.112,1.4C40.084-752.533,40.852-750.534,41.654-748.31Z" transform="translate(-34.96 756.134)" fill="#00b9ea" fill-rule="evenodd"/>
          </g>
          <path id="Path_17437" data-name="Path 17437" d="M-64.336-804.054q-10.023,0-20.047,0c-.343,0-.687-.008-1.029-.031a1.3,1.3,0,0,1-1.324-1.316,1.353,1.353,0,0,1,1.195-1.45,4.379,4.379,0,0,1,.932-.05q20.281,0,40.562,0c.094,0,.187,0,.281,0,1.215.016,1.918.557,1.9,1.464-.016.864-.679,1.38-1.862,1.382Q-54.031-804.047-64.336-804.054Z" transform="translate(122.802 820.442)" fill="#00629f" fill-rule="evenodd"/>
          <g id="Group_3864" data-name="Group 3864" transform="translate(51.043 25.552)">
            <g id="Group_3863" data-name="Group 3863" transform="translate(0)">
              <path id="Path_17438" data-name="Path 17438" d="M-14.479-744.18c.6.893,1.164,1.712,1.7,2.555a1.456,1.456,0,0,1-.286,2.142,1.46,1.46,0,0,1-2.085-.58,28.133,28.133,0,0,1-1.694-2.578,1.775,1.775,0,0,0-2.018-1.073,7.274,7.274,0,0,1-1.037.007c0,.976.019,1.871-.006,2.765a1.511,1.511,0,0,1-1.022,1.608,1.325,1.325,0,0,1-1.717-.856,4.372,4.372,0,0,1-.137-1.2q-.014-5.993,0-11.985c0-1.817.436-2.254,2.281-2.239a40.926,40.926,0,0,1,4.3.12,5.763,5.763,0,0,1,5.146,4.581,5.882,5.882,0,0,1-3.008,6.476C-14.178-744.377-14.279-744.308-14.479-744.18Zm-5.375-2.419c.42,0,.729,0,1.039,0,.747-.008,1.5.015,2.241-.034a2.94,2.94,0,0,0,2.748-2.591,2.859,2.859,0,0,0-2.075-3.319,27.168,27.168,0,0,0-3.954-.236Z" transform="translate(22.791 755.616)" fill="#00b9ea" fill-rule="evenodd"/>
            </g>
          </g>
          <g id="Group_3865" data-name="Group 3865" transform="translate(37.557 25.586)">
            <path id="Path_17439" data-name="Path 17439" d="M-77.488-747.295c0,.593-.028,1.187.005,1.777a3.52,3.52,0,0,0,2.228,3.2,3.661,3.661,0,0,0,3.883-.458c1.2-.908,1.9-.977,2.51-.219s.368,1.587-.816,2.482a6.321,6.321,0,0,1-6.615.839,5.982,5.982,0,0,1-3.935-5.159,18.18,18.18,0,0,1,.16-5.655A6.549,6.549,0,0,1-69.3-753.787c.81.7.974,1.528.433,2.2a1.387,1.387,0,0,1-2.212-.007,3.745,3.745,0,0,0-5.709.636,13.886,13.886,0,0,0-.993,3.6Z" transform="translate(80.368 755.47)" fill="#00b9ea" fill-rule="evenodd"/>
          </g>
          <g id="Group_3866" data-name="Group 3866" transform="translate(15.015 21.039)">
            <path id="Path_17440" data-name="Path 17440" d="M-170.621-774.874c1.308,0,2.617-.013,3.925.008a3.153,3.153,0,0,1,1.093.18,1.116,1.116,0,0,1,.758,1.419,2.038,2.038,0,0,1-1.018,1.132,5.332,5.332,0,0,1-1.844.133c-2.18.011-4.361,0-6.541,0-.249,0-.5.01-.747-.01-1-.078-1.629-.658-1.6-1.462s.66-1.376,1.68-1.4C-173.487-774.895-172.054-774.873-170.621-774.874Z" transform="translate(176.6 774.881)" fill="#00b9ea" fill-rule="evenodd"/>
          </g>
          <g id="Group_3867" data-name="Group 3867" transform="translate(15.016 28.549)">
            <path id="Path_17441" data-name="Path 17441" d="M-170.69-739.928h-3.551c-.156,0-.312,0-.467,0-1.209-.032-1.913-.582-1.885-1.474s.724-1.407,1.955-1.411c2.586-.008,5.171,0,7.757,0,.156,0,.312-.006.467,0,1.04.068,1.615.577,1.622,1.432s-.544,1.408-1.6,1.438c-1.432.041-2.866.01-4.3.01Z" transform="translate(176.595 742.819)" fill="#00b9ea" fill-rule="evenodd"/>
          </g>
          <g id="Group_3868" data-name="Group 3868" transform="translate(15.016 36.062)">
            <path id="Path_17442" data-name="Path 17442" d="M-170.716-707.851h-3.738a5.52,5.52,0,0,1-.653-.015,1.525,1.525,0,0,1-1.487-1.4,1.45,1.45,0,0,1,1.514-1.452q4.391-.063,8.784,0a1.359,1.359,0,0,1,1.5,1.434,1.39,1.39,0,0,1-1.53,1.415c-1.462.048-2.928.013-4.392.013Z" transform="translate(176.595 710.748)" fill="#00b9ea" fill-rule="evenodd"/>
          </g>
          <path id="Path_17443" data-name="Path 17443" d="M-170.711-675.685c-1.4,0-2.8.024-4.2-.008-1.151-.026-1.894-.847-1.639-1.759a1.353,1.353,0,0,1,1.362-1.075c2.989-.022,5.98-.04,8.969,0a1.314,1.314,0,0,1,1.424,1.4,1.4,1.4,0,0,1-1.518,1.428c-1.463.043-2.928.011-4.392.011Z" transform="translate(191.619 722.154)" fill="#00629f" fill-rule="evenodd"/>
          <path id="Path_17444" data-name="Path 17444" d="M-170.7-804.078c-1.4,0-2.8.019-4.2-.006-1.034-.018-1.658-.55-1.684-1.361-.027-.85.64-1.467,1.69-1.474q4.251-.027,8.5,0a1.421,1.421,0,0,1,1.609,1.431c0,.873-.548,1.379-1.615,1.4C-167.838-804.057-169.271-804.078-170.7-804.078Z" transform="translate(191.609 820.463)" fill="#00629f" fill-rule="evenodd"/>
        </g>
      </g>
    </g>
  </g>
</svg>
