<svg xmlns="http://www.w3.org/2000/svg" width="60.042" height="55.499" viewBox="0 0 60.042 55.499">
  <g id="_126477" data-name="126477" transform="translate(0 -18.4)">
    <g id="Group_3651" data-name="Group 3651" transform="translate(0 18.4)">
      <path id="Path_1217" data-name="Path 1217" d="M48.831,32.9a17.392,17.392,0,0,0-32.225-5.778,9.963,9.963,0,0,0-1.827-.173A9.532,9.532,0,0,0,5.26,36.463a10.406,10.406,0,0,0,.2,1.975A13.247,13.247,0,0,0,0,49.119,14.162,14.162,0,0,0,3.593,58.49a12.823,12.823,0,0,0,8.89,4.47H23.2a1.667,1.667,0,1,0,0-3.334H12.631c-5.05-.309-9.3-5.112-9.3-10.519a9.9,9.9,0,0,1,4.9-8.519,1.68,1.68,0,0,0,.728-2.025,6.048,6.048,0,0,1-.37-2.124,6.2,6.2,0,0,1,6.186-6.186,6.08,6.08,0,0,1,2.111.37,1.675,1.675,0,0,0,2.087-.852A14.057,14.057,0,0,1,45.683,34.4a1.665,1.665,0,0,0,1.383,1.482,12.015,12.015,0,0,1-1.136,23.73h-9.1a1.667,1.667,0,1,0,0,3.334h9.285a14.771,14.771,0,0,0,9.9-4.889A15.367,15.367,0,0,0,48.831,32.9Z" transform="translate(0 -18.4)" fill="#393939"/>
      <path id="Path_1218" data-name="Path 1218" d="M178.717,197.08a1.662,1.662,0,0,0,0-2.358l-8.828-8.828a1.686,1.686,0,0,0-1.173-.494,1.635,1.635,0,0,0-1.173.494l-8.828,8.828a1.673,1.673,0,0,0,1.173,2.852,1.626,1.626,0,0,0,1.173-.494l5.988-5.988v27.521a1.667,1.667,0,1,0,3.334,0V191.092l5.988,5.988A1.647,1.647,0,0,0,178.717,197.08Z" transform="translate(-138.689 -164.781)" fill="#393939"/>
    </g>
  </g>
</svg>
