<svg width="27" height="19" xmlns="http://www.w3.org/2000/svg" xmlns:xlink="http://www.w3.org/1999/xlink" xmlns:svgjs="http://svgjs.com/svgjs" viewBox="0 0.5 27 18" fill="#fff"><svg xmlns="http://www.w3.org/2000/svg" width="27" height="19" viewBox="0.668 0.778 25.915 17.277"><path paint-order="stroke fill markers" fill-rule="evenodd" d="M25.254.778H1.997c-.731 0-1.33.599-1.33 1.33v14.618c0 .731.599 1.33 1.33 1.33h23.257c.73 0 1.329-.599 1.329-1.33V2.107c0-.73-.598-1.329-1.33-1.329zm-.499.997L14.39 9.55c-.186.142-.473.23-.765.229-.292.001-.578-.087-.764-.23L2.496 1.776h22.259zm-5.537 8.288l5.649 6.977c.005.007.012.012.018.019H2.365l.02-.019 5.647-6.977a.499.499 0 0 0-.775-.627l-5.593 6.909V2.398l10.6 7.95c.397.296.882.426 1.361.428a2.277 2.277 0 0 0 1.362-.429l10.599-7.949v13.946l-5.593-6.908a.498.498 0 1 0-.775.627z"/></svg></svg>