<svg width="32" height="27" xmlns="http://www.w3.org/2000/svg" xmlns:xlink="http://www.w3.org/1999/xlink" xmlns:svgjs="http://svgjs.com/svgjs" viewBox="37 409 32 27"><svg width="23" height="10" xmlns="http://www.w3.org/2000/svg" xmlns:xlink="http://www.w3.org/1999/xlink" xmlns:svgjs="http://svgjs.com/svgjs" viewBox="0 0.688 23 8.625" fill="none" stroke-miterlimit="100" stroke-linecap="round" stroke="#fff" stroke-width="2" x="37" y="426"><svg xmlns="http://www.w3.org/2000/svg" xmlns:xlink="http://www.w3.org/1999/xlink" width="23" height="10" viewBox="0 0.727 22.97 8.614"><path paint-order="stroke fill markers" d="M22.97 9.34V6.47A5.743 5.743 0 0 0 17.226.726H5.742A5.743 5.743 0 0 0 0 6.469V9.34h22.97"/></svg></svg><svg width="13" height="12" xmlns="http://www.w3.org/2000/svg" xmlns:xlink="http://www.w3.org/1999/xlink" xmlns:svgjs="http://svgjs.com/svgjs" viewBox="0.5 0 12 12" fill="none" stroke-miterlimit="100" stroke-linecap="round" stroke="#fff" stroke-width="2" x="42" y="409"><svg xmlns="http://www.w3.org/2000/svg" xmlns:xlink="http://www.w3.org/1999/xlink" width="13" height="12" viewBox="0.742 0.5 11.485 11.485"><path paint-order="stroke fill markers" d="M12.227 6.242a5.742 5.742 0 1 1-11.485 0 5.742 5.742 0 0 1 11.485 0z"/></svg></svg><svg width="5" height="10" xmlns="http://www.w3.org/2000/svg" xmlns:xlink="http://www.w3.org/1999/xlink" xmlns:svgjs="http://svgjs.com/svgjs" viewBox="0 0.108 5 9.783" fill="none" stroke-miterlimit="100" stroke-linecap="round" stroke="#fff" stroke-width="2" x="64" y="426"><svg xmlns="http://www.w3.org/2000/svg" xmlns:xlink="http://www.w3.org/1999/xlink" width="5" height="10" viewBox="0.276 0.914 4.307 8.427"><path paint-order="stroke fill markers" d="M4.583 9.34V6.47A5.742 5.742 0 0 0 .276.913L4.583 9.34"/></svg></svg><svg width="5" height="12" xmlns="http://www.w3.org/2000/svg" xmlns:xlink="http://www.w3.org/1999/xlink" xmlns:svgjs="http://svgjs.com/svgjs" viewBox="0.171 0 4.657 12" fill="none" stroke-miterlimit="100" stroke-linecap="round" stroke="#fff" stroke-width="2" x="58" y="409"><svg xmlns="http://www.w3.org/2000/svg" width="5" height="12" viewBox="0.534 0.687 4.318 11.126"><path paint-order="stroke fill markers" d="M.534.687a5.743 5.743 0 0 1 0 11.125V.687"/></svg></svg></svg>