<svg xmlns="http://www.w3.org/2000/svg" width="129" height="129" viewBox="0 0 129 129">
  <g id="Group_6988" data-name="Group 6988" transform="translate(-4347 -2892)">
    <circle id="Ellipse_16" data-name="Ellipse 16" cx="64.5" cy="64.5" r="64.5" transform="translate(4347 2892)" fill="#ecf8ff"/>
    <g id="Group_6986" data-name="Group 6986" transform="translate(3182 -13)">
      <g id="Group_5983" data-name="Group 5983" transform="translate(1190 2930)">
        <g id="Group_3893" data-name="Group 3893" transform="translate(0 0)">
          <path id="Path_17475" data-name="Path 17475" d="M181.582-420.314c.289.252.595.488.866.759q6.762,6.751,13.525,13.5a2.334,2.334,0,0,1,.75,1.832c-.033,2.7,0,5.394-.023,8.091a.965.965,0,0,0,.556.967,20.153,20.153,0,0,1,9.82,13.361,4.448,4.448,0,0,1,.138.833,1.063,1.063,0,0,1-.927,1.217,1.068,1.068,0,0,1-1.316-.784c-.163-.51-.247-1.046-.386-1.564a18.051,18.051,0,0,0-18.547-13.389A18.118,18.118,0,0,0,169.265-380.1a18.035,18.035,0,0,0,14.829,20.4,18.039,18.039,0,0,0,20.9-14.971c.077-.481.121-.968.169-1.453.083-.831.548-1.333,1.217-1.3.71.032,1.147.581,1.089,1.472a19.915,19.915,0,0,1-2.7,8.737c-.128.222-.263.44-.39.663a.143.143,0,0,0-.022.08l2.766,2.756c.92-.393,1.189-.34,1.993.464,1.962,1.961,3.9,3.946,5.894,5.875a8.265,8.265,0,0,1,2.637,3.963v2c-.044.061-.113.118-.127.185a5.518,5.518,0,0,1-9.488,2.442c-2.163-2.3-4.452-4.476-6.685-6.708-.8-.8-.852-1.074-.45-2.01l-2.725-2.725c-1.131.3-1.527,1.008-1.5,2.268.091,4.285.024,8.572.041,12.858a3.437,3.437,0,0,1-1.22,2.862,10.808,10.808,0,0,1-1.43.846H141.352a4.487,4.487,0,0,1-2.62-2.62V-402.9c.394-.507.822-.936,1.548-.663s.77.859.77,1.513q-.01,28.207,0,56.415c0,1.634.293,1.928,1.921,1.928h49.556c1.577,0,1.862-.291,1.862-1.895q0-5.934,0-11.869v-.756c-1.673.341-3.291.708-4.923.986a14.3,14.3,0,0,1-2.379.132q-12.562.013-25.125,0a5.036,5.036,0,0,1-.616-.015,1.059,1.059,0,0,1-1.019-1.058,1.1,1.1,0,0,1,.938-1.22,3.228,3.228,0,0,1,.767-.027h15.425c-.272-.2-.418-.311-.565-.417-1.08-.781-2.189-1.525-3.225-2.36a2.011,2.011,0,0,0-1.379-.5c-3.442.019-6.885.012-10.327,0-.3,0-.7.034-.886-.135-.322-.3-.718-.753-.7-1.119s.472-.763.825-1.023c.21-.155.595-.091.9-.092q3.892-.009,7.784,0h1.046a21.105,21.105,0,0,1-3.831-8.561h-4.881c-.257,0-.515.016-.77-.008a1.161,1.161,0,0,1-1.132-1.213,1.089,1.089,0,0,1,1.141-1.1c1.438-.031,2.877-.014,4.316-.017h.966v-3.33h-4.082c-.308,0-.617,0-.925,0-.922-.014-1.412-.413-1.415-1.147s.5-1.167,1.4-1.171c1.567-.006,3.134-.018,4.7.007.527.009.8-.081.933-.691a19.022,19.022,0,0,1,3.247-7.079c.073-.1.128-.211.261-.433-.348-.02-.612-.048-.874-.048q-3.931,0-7.861,0a4.612,4.612,0,0,1-.843-.056,1.068,1.068,0,0,1-.958-1.118,1.1,1.1,0,0,1,.929-1.153,3.143,3.143,0,0,1,.765-.046c3.442,0,6.885.016,10.327-.024a2.469,2.469,0,0,0,1.282-.491c1.233-.867,2.423-1.793,3.711-2.758h-.81q-7.283,0-14.566,0a2.694,2.694,0,0,1-.836-.071,1.077,1.077,0,0,1-.795-1.247,1.063,1.063,0,0,1,1.007-.99,3.113,3.113,0,0,1,.384-.018c8.812.009,17.624-.042,26.434.076a33.3,33.3,0,0,1,5.644,1.025c.171.033.338.09.552.148v-7.062h-.822c-3.237,0-6.474.005-9.711,0a3.451,3.451,0,0,1-3.77-3.781q0-4.817,0-9.634V-418H142.8c-1.415,0-1.758.349-1.758,1.781,0,2.852-.007,5.7,0,8.555,0,.662.025,1.323-.71,1.633-.682.287-1.159-.121-1.608-.56v-11.1a4.468,4.468,0,0,1,2.62-2.62Zm21.982,63.588c2.251,2.282,4.445,4.546,6.69,6.758a2.665,2.665,0,0,0,2.3.651,2.991,2.991,0,0,0,2.576-2.028,3,3,0,0,0-.742-3.327c-2.057-2.079-4.132-4.14-6.2-6.2a1.323,1.323,0,0,0-.263-.172ZM182.378-416.08a1.369,1.369,0,0,0-.022.207c0,2.847-.01,5.694,0,8.542,0,.928.45,1.354,1.385,1.357,2.822.008,5.643,0,8.465,0a1.421,1.421,0,0,0,.253-.032ZM203-364.271l-2.581,2.582,2.2,2.325,2.638-2.665Z" transform="translate(-138.731 420.314)" fill="#00629f" fill-rule="evenodd"/>
          <path id="Path_17476" data-name="Path 17476" d="M187.349-151.859c0,.8.008,1.591,0,2.386a2.608,2.608,0,0,1-2.656,2.7c-1.642.028-3.284.024-4.926,0a2.623,2.623,0,0,1-2.7-2.668c-.033-1.641-.03-3.284,0-4.926a2.615,2.615,0,0,1,2.747-2.692q2.386-.016,4.772,0a2.607,2.607,0,0,1,2.764,2.737C187.356-153.5,187.349-152.68,187.349-151.859Zm-2.323.018c0-.743-.013-1.486,0-2.229.011-.44-.131-.669-.61-.665q-2.19.019-4.38,0c-.413,0-.612.138-.609.577q.018,2.229,0,4.457c0,.437.183.584.6.581q2.19-.016,4.38,0c.463,0,.639-.188.623-.647C185.009-150.457,185.027-151.149,185.027-151.841Z" transform="translate(-169.168 211.175)" fill="#00629f" fill-rule="evenodd"/>
          <path id="Path_17477" data-name="Path 17477" d="M187.341-311.593c0,.847.015,1.694,0,2.54a2.582,2.582,0,0,1-2.536,2.573c-1.718.035-3.438.031-5.157,0a2.592,2.592,0,0,1-2.583-2.618c-.039-1.667-.036-3.336,0-5a2.617,2.617,0,0,1,2.7-2.66c1.642-.019,3.284-.024,4.926,0a2.6,2.6,0,0,1,2.65,2.7C187.349-313.235,187.341-312.414,187.341-311.593Zm-2.322-.016c0-.692-.024-1.384.008-2.074.025-.523-.151-.742-.7-.733-1.408.023-2.818.02-4.226,0-.48-.007-.694.136-.685.654.025,1.434.023,2.869,0,4.3-.008.507.194.672.683.665,1.409-.02,2.818-.023,4.226,0,.551.009.715-.229.695-.742C185-310.225,185.019-310.918,185.019-311.61Z" transform="translate(-169.16 338.057)" fill="#00629f" fill-rule="evenodd"/>
          <path id="Path_17478" data-name="Path 17478" d="M182.209-227.446c-.846,0-1.693.022-2.539,0a2.557,2.557,0,0,1-2.624-2.557c-.047-1.717-.051-3.438,0-5.154a2.5,2.5,0,0,1,2.5-2.514c1.767-.06,3.54-.063,5.307,0a2.5,2.5,0,0,1,2.462,2.62q.022,2.5,0,5a2.53,2.53,0,0,1-2.493,2.591c-.871.036-1.744.007-2.616.007Zm.032-7.9c-.743,0-1.487.016-2.23-.006-.411-.012-.611.1-.607.553.017,1.487.014,2.974,0,4.46,0,.432.166.578.594.573,1.461-.019,2.922-.016,4.383,0,.408,0,.624-.11.621-.558q-.017-2.23,0-4.46c0-.445-.2-.576-.61-.565C183.676-235.332,182.958-235.347,182.24-235.347Z" transform="translate(-169.141 275.253)" fill="#00629f" fill-rule="evenodd"/>
          <g id="Group_3890" data-name="Group 3890" transform="translate(33.301 27.734)">
            <path id="Path_17479" data-name="Path 17479" d="M331-270.248a15.073,15.073,0,0,1-13.4,14.932,14.641,14.641,0,0,1-13.595-5.624c-.608-.733-.585-1.423.02-1.885.552-.421,1.247-.268,1.8.412a12.662,12.662,0,0,0,9.1,4.843,12.779,12.779,0,0,0,13.4-10,12.762,12.762,0,0,0-10.576-15.317,12.8,12.8,0,0,0-14.584,11.475,15.1,15.1,0,0,0,.525,5.022,1.117,1.117,0,0,1-1.418,1.448,1.708,1.708,0,0,1-.847-.985,14.6,14.6,0,0,1,1.365-11.876,15.059,15.059,0,0,1,15.486-7.371,15.085,15.085,0,0,1,12.457,12.327C330.887-271.993,330.913-271.115,331-270.248Z" transform="translate(-300.744 285.386)" fill="#00b9ea" fill-rule="evenodd"/>
          </g>
          <g id="Group_3892" data-name="Group 3892" transform="translate(40.371 36.341)">
            <g id="Group_3891" data-name="Group 3891">
              <path id="Path_17480" data-name="Path 17480" d="M341.763-238.942c1.2-1.141,2.381-2.243,3.535-3.375a3.65,3.65,0,0,1,5.232-.172,3.6,3.6,0,0,1-.1,5.231q-2.843,2.931-5.7,5.847a3.617,3.617,0,0,1-5.557.038c-.918-.9-1.844-1.788-2.76-2.688a3.617,3.617,0,0,1-.289-5.224,3.634,3.634,0,0,1,5.289.023C341.558-239.124,341.709-238.991,341.763-238.942Zm7.613-1.039c-.263-.36-.439-.838-.764-.984a2.282,2.282,0,0,0-1.289.01c-.215.044-.391.314-.57.5-1.255,1.283-2.5,2.575-3.761,3.855-.827.841-1.348.837-2.214.008-.352-.337-.692-.686-1.05-1.017a1.247,1.247,0,0,0-1.9-.06,1.226,1.226,0,0,0,.127,1.842q1.5,1.5,3.036,2.946a1.256,1.256,0,0,0,1.907-.022q2.973-3.01,5.9-6.062A5.1,5.1,0,0,0,349.376-239.981Z" transform="translate(-335.141 243.512)" fill="#00b9ea" fill-rule="evenodd"/>
            </g>
          </g>
        </g>
      </g>
    </g>
  </g>
</svg>
