<svg xmlns="http://www.w3.org/2000/svg" width="129" height="129" viewBox="0 0 129 129">
  <g id="Group_6998" data-name="Group 6998" transform="translate(-4789 -3195)">
    <circle id="Ellipse_20" data-name="Ellipse 20" cx="64.5" cy="64.5" r="64.5" transform="translate(4789 3195)" fill="#ecf8ff"/>
    <g id="Group_6997" data-name="Group 6997" transform="translate(4555.396 4414.455)">
      <g id="Group_3880" data-name="Group 3880" transform="translate(266.605 -1193.455)">
        <g id="Group_3879" data-name="Group 3879" transform="translate(0)">
          <path id="Path_17458" data-name="Path 17458" d="M296.969-1117.056c-.472-.124-.949-.232-1.415-.376a11.04,11.04,0,0,1-8-8.5c-.05-.214-.114-.424-.184-.682h-.895q-7.42,0-14.84,0a4.76,4.76,0,0,1-4.677-3.032,4.661,4.661,0,0,1,1.38-5.4,22.735,22.735,0,0,0,6.6-9.665,23.366,23.366,0,0,0,1.228-7.753c0-3.405-.093-6.816.066-10.214a21.716,21.716,0,0,1,9.194-17.017,19.451,19.451,0,0,1,5.936-3.04.868.868,0,0,0,.72-.994,31.346,31.346,0,0,1,.116-4.313,6.188,6.188,0,0,1,4.813-5.263,3.336,3.336,0,0,0,.405-.156h2.089a14.866,14.866,0,0,1,1.926.74,6.277,6.277,0,0,1,3.413,5.561c.051,1.166.041,2.337,0,3.5-.02.524.175.715.649.883a22.118,22.118,0,0,1,14.211,14.4,22.475,22.475,0,0,1,1.057,7.26c.006,3.43-.076,6.864.071,10.288A21.28,21.28,0,0,0,328-1135.613a5.739,5.739,0,0,1,2.287,3.929,4.747,4.747,0,0,1-4.7,5.069c-5.071.015-10.141,0-15.212.005h-.808c-.2.738-.336,1.449-.592,2.113a11.024,11.024,0,0,1-8.7,7.3,1.574,1.574,0,0,0-.325.144Zm1.468-12.746h10.739q7.8,0,15.593,0c.3,0,.6-.005.893-.032a1.478,1.478,0,0,0,1.33-1.029,1.489,1.489,0,0,0-.381-1.64c-.234-.255-.516-.467-.769-.7a24.975,24.975,0,0,1-8.267-18.426c-.058-3.207.02-6.416-.026-9.624a22.389,22.389,0,0,0-.333-3.855A19.056,19.056,0,0,0,293.7-1180.09a19.064,19.064,0,0,0-14.319,17.961c-.08,3.53.005,7.063-.032,10.594a24.789,24.789,0,0,1-3.811,12.98,25.329,25.329,0,0,1-4.92,5.764c-.767.671-.952,1.235-.68,1.952a1.651,1.651,0,0,0,1.793,1.037c.224,0,.448,0,.671,0Zm-7.687,3.22c.455,3.484,4,6.363,7.756,6.32,3.783-.044,7.31-2.949,7.653-6.32Zm4.58-57.24h6.287c0-.216,0-.435,0-.655-.006-1.017.05-2.039-.032-3.05a3.1,3.1,0,0,0-3.126-2.721,3.08,3.08,0,0,0-3.107,2.654C295.247-1186.343,295.329-1185.076,295.329-1183.823Z" transform="translate(-266.605 1193.455)" fill="#00629f" fill-rule="evenodd"/>
        </g>
      </g>
      <path id="Path_17459" data-name="Path 17459" d="M499.851-1102.191a7.423,7.423,0,0,1-7.423,7.423,7.423,7.423,0,0,1-7.423-7.423,7.423,7.423,0,0,1,7.423-7.423A7.423,7.423,0,0,1,499.851-1102.191Z" transform="translate(-174.942 -67.158)" fill="#00b9ea" fill-rule="evenodd"/>
    </g>
  </g>
</svg>
