<svg xmlns="http://www.w3.org/2000/svg" xmlns:xlink="http://www.w3.org/1999/xlink" width="140" height="140" viewBox="0 0 140 140">
  <defs>
    <filter id="Rectangle_84" x="0" y="0" width="140" height="140" filterUnits="userSpaceOnUse">
      <feOffset dy="10" input="SourceAlpha"/>
      <feGaussianBlur stdDeviation="10" result="blur"/>
      <feFlood flood-color="#f5e3f9" flood-opacity="0.11"/>
      <feComposite operator="in" in2="blur"/>
      <feComposite in="SourceGraphic"/>
    </filter>
  </defs>
  <g id="Group_6976" data-name="Group 6976" transform="translate(-3893 -2446.902)">
    <g id="Group_5948" data-name="Group 5948" transform="translate(3852 2450.004)">
      <g transform="matrix(1, 0, 0, 1, 41, -3.1)" filter="url(#Rectangle_84)">
        <rect id="Rectangle_84-2" data-name="Rectangle 84" width="80" height="80" rx="40" transform="translate(30 20)" fill="#5d879f" opacity="0.15"/>
      </g>
      <g id="Group_3859" data-name="Group 3859" transform="translate(58.344 0)">
        <path id="Path_17422" data-name="Path 17422" d="M649-878.626c1.006-3.027,3.482-3.562,6.228-3.783,2.542-.205,5.07-.581,7.6-.869a1.387,1.387,0,0,0,1.293-1.019,20.708,20.708,0,0,1,1.2-2.9,1.861,1.861,0,0,0-.267-2.349c-1.909-2.324-3.733-4.72-5.592-7.086-1.837-2.337-1.711-4.633.381-6.752.713-.722,1.419-1.453,2.157-2.149a1.577,1.577,0,0,1,2.407-.076,1.615,1.615,0,0,1-.17,2.343c-.724.761-1.488,1.483-2.22,2.235-.831.854-.88,1.348-.153,2.285,1.93,2.489,3.846,4.989,5.838,7.427a4.353,4.353,0,0,1,.637,5.143,33.338,33.338,0,0,0-1.316,3.193,4.115,4.115,0,0,1-3.577,2.83q-4.683.573-9.372,1.1c-1.537.172-1.936.58-1.936,2.135q0,6.721,0,13.442c0,1.481.414,1.908,1.889,2.075q4.688.531,9.372,1.093a4.119,4.119,0,0,1,3.6,2.793c.45,1.172.918,2.341,1.445,3.48a4.153,4.153,0,0,1-.592,4.693c-1.9,2.378-3.766,4.784-5.649,7.176-1.17,1.486-1.159,1.781.143,3.083q4.714,4.716,9.433,9.429c1.071,1.069,1.484,1.1,2.689.16,2.456-1.915,4.921-3.819,7.343-5.776a4.182,4.182,0,0,1,4.776-.635c1.137.531,2.307.994,3.48,1.443a4.068,4.068,0,0,1,2.759,3.514q.581,4.63,1.091,9.267c.184,1.691.55,2.076,2.217,2.077q6.668,0,13.337,0c1.505,0,1.938-.4,2.1-1.856q.537-4.687,1.092-9.373a4.122,4.122,0,0,1,2.767-3.623c1.2-.467,2.4-.95,3.577-1.486a4.1,4.1,0,0,1,4.6.6c2.409,1.917,4.839,3.808,7.258,5.713,1.4,1.106,1.755,1.093,3.008-.159q4.679-4.677,9.354-9.358c1.2-1.206,1.22-1.561.147-2.929-1.857-2.368-3.684-4.76-5.586-7.091a4.28,4.28,0,0,1-.639-5.047,35.485,35.485,0,0,0,1.354-3.29,4.059,4.059,0,0,1,3.492-2.785c3.086-.388,6.174-.76,9.266-1.1,1.746-.189,2.112-.539,2.112-2.291q0-6.616,0-13.232c0-1.562-.4-1.975-1.927-2.146q-4.688-.526-9.372-1.1a4.115,4.115,0,0,1-3.582-2.822c-.419-1.11-.827-2.231-1.353-3.291a4.232,4.232,0,0,1,.6-4.959c1.917-2.365,3.773-4.778,5.651-7.174,1.059-1.35,1.037-1.708-.181-2.927q-4.713-4.718-9.432-9.43c-1.126-1.125-1.529-1.153-2.767-.184-2.424,1.9-4.864,3.777-7.257,5.714a4.244,4.244,0,0,1-4.96.611c-1.061-.524-2.182-.933-3.291-1.354a4.117,4.117,0,0,1-2.829-3.577q-.569-4.684-1.1-9.373c-.172-1.535-.581-1.933-2.138-1.934q-6.721,0-13.442,0c-1.481,0-1.9.412-2.071,1.891q-.531,4.688-1.095,9.373a4.122,4.122,0,0,1-2.794,3.6q-1.808.692-3.578,1.483a4.057,4.057,0,0,1-4.509-.575c-2.44-1.935-4.9-3.85-7.344-5.775-1.373-1.079-1.717-1.065-2.927.138-.67.667-1.321,1.353-2.012,2a1.6,1.6,0,0,1-2.341.09,1.56,1.56,0,0,1,.088-2.332c.767-.815,1.568-1.6,2.372-2.38a4.552,4.552,0,0,1,6.36-.353c2.489,1.929,4.977,3.861,7.419,5.848a1.678,1.678,0,0,0,2.076.231,22.671,22.671,0,0,1,2.993-1.248,1.44,1.44,0,0,0,1.068-1.37c.359-3.125.751-6.246,1.09-9.373a4.613,4.613,0,0,1,4.816-4.394q7.141-.008,14.282,0a4.529,4.529,0,0,1,4.767,4.085c.414,3.118.764,6.245,1.1,9.372.095.884.341,1.486,1.309,1.747a12.292,12.292,0,0,1,2.6,1.088,1.913,1.913,0,0,0,2.438-.259c2.318-1.917,4.716-3.738,7.081-5.6a4.6,4.6,0,0,1,6.675.369q4.95,4.926,9.875,9.878a4.585,4.585,0,0,1,.376,6.6c-1.915,2.456-3.82,4.92-5.784,7.336a1.614,1.614,0,0,0-.221,1.982,29.091,29.091,0,0,1,1.279,3.1,1.4,1.4,0,0,0,1.3,1.016c3.09.357,6.175.765,9.269,1.083a4.644,4.644,0,0,1,4.559,4.982q0,7.036,0,14.072a4.638,4.638,0,0,1-4.446,4.877c-3.128.334-6.248.732-9.374,1.092a1.4,1.4,0,0,0-1.3,1.009,34.125,34.125,0,0,1-1.362,3.288,1.41,1.41,0,0,0,.24,1.7c1.946,2.431,3.855,4.892,5.774,7.345,1.833,2.342,1.714,4.658-.374,6.756q-4.889,4.913-9.8,9.8a4.6,4.6,0,0,1-6.676.376c-2.421-1.9-4.856-3.787-7.253-5.72a1.585,1.585,0,0,0-1.973-.26,22.42,22.42,0,0,1-3.1,1.272,1.448,1.448,0,0,0-1.075,1.365c-.351,3.056-.759,6.105-1.072,9.164-.3,2.958-2.057,4.612-5.038,4.614q-7.036,0-14.072,0a4.529,4.529,0,0,1-4.771-4.081c-.415-3.118-.764-6.244-1.1-9.372-.095-.882-.337-1.486-1.3-1.76a14.5,14.5,0,0,1-2.8-1.172,1.723,1.723,0,0,0-2.16.291c-2.361,1.921-4.774,3.777-7.169,5.656a4.6,4.6,0,0,1-6.676-.369q-4.953-4.924-9.877-9.876a4.575,4.575,0,0,1-.38-6.594c1.921-2.451,3.822-4.918,5.784-7.335a1.612,1.612,0,0,0,.222-1.985,17.447,17.447,0,0,1-1.213-2.893,1.651,1.651,0,0,0-1.674-1.26c-2.813-.317-5.614-.78-8.435-.981A5.282,5.282,0,0,1,649-861.823Z" transform="translate(-649 923.993)" fill="#fff" fill-rule="evenodd"/>
        <path id="Path_17423" data-name="Path 17423" d="M792.209-749.79c0-.834-.01-1.5,0-2.158.026-1.326.592-2,1.633-1.976.979.027,1.546.732,1.56,1.964.011.941,0,1.882,0,2.918l2.133.294c.021-.46.05-.827.051-1.194q.007-3.623,0-7.246c0-.862.206-1.622,1.133-1.916,1.138-.361,2.077.408,2.1,1.77.034,2.415.01,4.831.011,7.246,0,.379,0,.758,0,1.3l2.138-.22v-14.522H795.4c0,1.128.02,2.439-.007,3.748a1.44,1.44,0,0,1-1.257,1.571,2.631,2.631,0,0,1-1.615-.65c-.254-.2-.289-.763-.3-1.166-.036-1.259-.057-2.522,0-3.78a1.642,1.642,0,0,0-.966-1.724,15.784,15.784,0,0,1-1.142-26.521,10.024,10.024,0,0,1,.972-.62,2.731,2.731,0,0,1,4.122,2.373c.036,2.73-.022,5.462.041,8.191a2.624,2.624,0,0,0,.638,1.528c.988,1.13,2.077,2.171,3.185,3.307,1.342-1.286,2.622-2.471,3.843-3.716a1.647,1.647,0,0,0,.276-1.049c.022-2.625.04-5.251,0-7.876a2.825,2.825,0,0,1,1.473-2.8,2.909,2.909,0,0,1,3.152.328,15.807,15.807,0,0,1-.653,26.886,1.6,1.6,0,0,0-.968,1.616c.046,4.305.022,8.611.022,12.917v1.193c.53-.149.924-.237,1.3-.37a24.917,24.917,0,0,0,16.541-24.72,24.773,24.773,0,0,0-4.428-13.018,2.373,2.373,0,0,1-.576-1.495,2.266,2.266,0,0,1,1.085-1.364,1.336,1.336,0,0,1,1.8.658,54.284,54.284,0,0,1,3.78,7.324,28.079,28.079,0,0,1-21.626,36.822,28.2,28.2,0,0,1-32.547-22.729,28.161,28.161,0,0,1,23.368-32.692,27.688,27.688,0,0,1,20.924,5.109,4.3,4.3,0,0,1,.867.754,1.428,1.428,0,0,1,0,1.926,1.442,1.442,0,0,1-1.872.46,5.6,5.6,0,0,1-.875-.572,24.948,24.948,0,0,0-39.3,15.83,24.946,24.946,0,0,0,16.585,27.808C791.5-749.957,791.764-749.9,792.209-749.79Zm-.134-39.61c-4.27,2.445-6.458,8.593-5.007,13.73a12.726,12.726,0,0,0,12.487,9.167,12.706,12.706,0,0,0,12.016-10.036c1.214-5.834-1.992-11.1-5.223-12.807,0,2.7-.025,5.34.012,7.982a3.3,3.3,0,0,1-1.1,2.6c-1.353,1.266-2.677,2.564-4.028,3.833a2.8,2.8,0,0,1-4.331-.085c-1.269-1.253-2.513-2.531-3.788-3.778a3.271,3.271,0,0,1-1.049-2.521C792.1-783.963,792.075-786.616,792.075-789.4Z" transform="translate(-745.443 827.384)" fill="#fff" fill-rule="evenodd"/>
      </g>
    </g>
  </g>
</svg>
