<svg xmlns="http://www.w3.org/2000/svg" width="129" height="129" viewBox="0 0 129 129">
  <g id="Group_6994" data-name="Group 6994" transform="translate(-4667 -3021)">
    <circle id="Ellipse_18" data-name="Ellipse 18" cx="64.5" cy="64.5" r="64.5" transform="translate(4667 3021)" fill="#ecf8ff"/>
    <g id="Group_6992" data-name="Group 6992" transform="translate(4139.789 3842.757)">
      <g id="Group_3888" data-name="Group 3888" transform="translate(554.211 -794.757)">
        <path id="Path_17460" data-name="Path 17460" d="M629.264-789.48v64.5c-.059.184-.126.365-.174.551a6.231,6.231,0,0,1-5.985,4.718q-31.366.01-62.732,0a6.175,6.175,0,0,1-5.75-4.026c-.154-.408-.275-.829-.411-1.243v-64.5c.057-.183.12-.364.172-.549a6.258,6.258,0,0,1,3.6-4.219c.481-.216,1-.342,1.5-.51h64.5c.158.053.314.116.475.158a6.21,6.21,0,0,1,4.29,3.614C628.969-790.5,629.1-789.983,629.264-789.48Zm-2.5,12.332H556.709v.865q0,24.883,0,49.766c0,2.836,1.494,4.316,4.355,4.316H622.41c2.884,0,4.357-1.483,4.357-4.388q0-24.846,0-49.692Zm-70.047-2.69h70.036c0-2.989.023-5.918-.013-8.846a3.482,3.482,0,0,0-1.111-2.477,4.223,4.223,0,0,0-3.152-1.1q-30.741.011-61.482.005c-.2,0-.391,0-.586.005a3.694,3.694,0,0,0-3.67,3.57C556.657-785.758,556.719-782.828,556.719-779.838Z" transform="translate(-554.211 794.757)" fill="#00629f" fill-rule="evenodd"/>
        <g id="Group_3883" data-name="Group 3883" transform="translate(41.237 47.507)">
          <g id="Group_3882" data-name="Group 3882">
            <path id="Path_17461" data-name="Path 17461" d="M785.221-541.707c0,2.027.012,4.054,0,6.081a3.746,3.746,0,0,1-4.016,3.958q-6.008.007-12.015,0a3.74,3.74,0,0,1-3.984-3.857q-.07-6.153,0-12.308a3.755,3.755,0,0,1,4.03-3.889q6.007-.008,12.015,0a3.757,3.757,0,0,1,3.974,3.933c0,.049,0,.1,0,.146Q785.221-544.673,785.221-541.707Zm-2.5.019q0-2.928,0-5.856c0-1.209-.412-1.635-1.619-1.637q-5.893-.011-11.785,0c-1.189,0-1.57.4-1.571,1.592q0,5.893,0,11.785c0,1.194.388,1.607,1.563,1.61q5.929.013,11.859,0c1.113,0,1.551-.459,1.553-1.564C782.721-537.735,782.717-539.711,782.718-541.688Z" transform="translate(-765.168 551.726)" fill="#00b9ea" fill-rule="evenodd"/>
          </g>
        </g>
        <path id="Path_17462" data-name="Path 17462" d="M634.358-674.739a11.321,11.321,0,0,1-11.267,11.292,11.278,11.278,0,0,1-11.26-11.278A11.225,11.225,0,0,1,623-685.994,11.277,11.277,0,0,1,634.358-674.739ZM623.106-666a8.713,8.713,0,0,0,8.7-8.775,8.762,8.762,0,0,0-8.716-8.712,8.793,8.793,0,0,0-8.752,8.837A8.737,8.737,0,0,0,623.106-666Z" transform="translate(-600.568 707.255)" fill="#00629f" fill-rule="evenodd"/>
        <path id="Path_17463" data-name="Path 17463" d="M634.359-546.72a11.286,11.286,0,0,1-11.287,11.254,11.236,11.236,0,0,1-11.24-11.277,11.22,11.22,0,0,1,11.261-11.247A11.279,11.279,0,0,1,634.359-546.72Zm-2.55.009a8.715,8.715,0,0,0-8.649-8.758,8.752,8.752,0,0,0-8.82,8.675,8.741,8.741,0,0,0,8.7,8.794A8.718,8.718,0,0,0,631.809-546.711Z" transform="translate(-600.568 604.272)" fill="#00629f" fill-rule="evenodd"/>
        <g id="Group_3884" data-name="Group 3884" transform="translate(41.243 22.484)">
          <path id="Path_17464" data-name="Path 17464" d="M775.247-659.695c-2,0-4.005.008-6.007,0a3.734,3.734,0,0,1-4.02-3.956q-.042-6.044,0-12.088a3.738,3.738,0,0,1,3.943-3.978c4-.033,8.01-.014,12.015-.006,1.022,0,1.548.446,1.558,1.252.011.823-.558,1.294-1.593,1.3q-5.9.006-11.8,0c-1.2,0-1.581.38-1.581,1.566q0,5.934,0,11.869c0,1.109.435,1.54,1.555,1.54q5.934.005,11.869,0c1.1,0,1.546-.461,1.55-1.567.006-1.49,0-2.979,0-4.469,0-.933.471-1.457,1.267-1.45.771.007,1.224.506,1.23,1.406.01,1.636.024,3.273-.007,4.909a3.676,3.676,0,0,1-3.685,3.671c-.073,0-.147,0-.22,0Z" transform="translate(-765.199 679.738)" fill="#00b9ea" fill-rule="evenodd"/>
        </g>
        <g id="Group_3885" data-name="Group 3885" transform="translate(46.302 22.568)">
          <path id="Path_17465" data-name="Path 17465" d="M796.025-667.375c.258-.244.454-.421.641-.608,3.591-3.588,7.2-7.158,10.757-10.78a1.337,1.337,0,0,1,2.318.259,1.363,1.363,0,0,1-.479,1.5q-3.186,3.182-6.37,6.367-2.848,2.847-5.7,5.693c-.841.837-1.412.838-2.246.009q-1.635-1.626-3.262-3.262c-.723-.727-.8-1.477-.226-2.036s1.257-.49,1.981.236C794.3-669.14,795.147-668.269,796.025-667.375Z" transform="translate(-791.08 679.305)" fill="#00b9ea" fill-rule="evenodd"/>
        </g>
        <g id="Group_3887" data-name="Group 3887" transform="translate(14.984 4.993)">
          <g id="Group_3886" data-name="Group 3886">
            <path id="Path_17466" data-name="Path 17466" d="M634.674-761.7a3.788,3.788,0,0,1-3.809-3.745,3.8,3.8,0,0,1,3.713-3.771,3.8,3.8,0,0,1,3.844,3.713A3.784,3.784,0,0,1,634.674-761.7Zm1.18-3.767a1.213,1.213,0,0,0-1.188-1.221,1.212,1.212,0,0,0-1.23,1.251,1.18,1.18,0,0,0,1.187,1.208A1.186,1.186,0,0,0,635.853-765.467Z" transform="translate(-630.865 769.216)" fill="#00b9ea" fill-rule="evenodd"/>
          </g>
        </g>
        <path id="Path_17467" data-name="Path 17467" d="M685.977-761.7a3.748,3.748,0,0,1-3.789-3.744,3.75,3.75,0,0,1,3.686-3.774,3.774,3.774,0,0,1,3.83,3.709A3.755,3.755,0,0,1,685.977-761.7Zm0-4.993a1.247,1.247,0,0,0-1.254,1.17,1.2,1.2,0,0,0,1.187,1.29,1.242,1.242,0,0,0,1.27-1.226A1.269,1.269,0,0,0,685.974-766.689Z" transform="translate(-657.172 774.207)" fill="#00629f" fill-rule="evenodd"/>
        <path id="Path_17468" data-name="Path 17468" d="M587.272-765.478a3.744,3.744,0,0,1-3.749,3.783,3.758,3.758,0,0,1-3.768-3.7,3.774,3.774,0,0,1,3.717-3.822A3.749,3.749,0,0,1,587.272-765.478Zm-2.533.064a1.242,1.242,0,0,0-1.224-1.272,1.267,1.267,0,0,0-1.234,1.2,1.246,1.246,0,0,0,1.167,1.257A1.205,1.205,0,0,0,584.74-765.415Z" transform="translate(-574.762 774.206)" fill="#00629f" fill-rule="evenodd"/>
        <path id="Path_17469" data-name="Path 17469" d="M654.338-619.424a3.588,3.588,0,0,1-2.958-2.113,1.262,1.262,0,0,1,.479-1.763,1.245,1.245,0,0,1,1.7.506c.785,1.162,1.611,1.156,2.413-.016a1.241,1.241,0,0,1,1.709-.479,1.271,1.271,0,0,1,.488,1.71A3.918,3.918,0,0,1,654.338-619.424Z" transform="translate(-632.246 656.945)" fill="#00629f" fill-rule="evenodd"/>
        <path id="Path_17470" data-name="Path 17470" d="M639.94-639.868a1.26,1.26,0,0,1-1.258,1.247,1.243,1.243,0,0,1-1.229-1.27,1.2,1.2,0,0,1,1.252-1.229A1.214,1.214,0,0,1,639.94-639.868Z" transform="translate(-621.181 671.152)" fill="#00629f" fill-rule="evenodd"/>
        <path id="Path_17471" data-name="Path 17471" d="M691.029-639.851a1.242,1.242,0,0,1-1.261,1.24,1.292,1.292,0,0,1-1.244-1.275,1.241,1.241,0,0,1,1.278-1.222A1.2,1.2,0,0,1,691.029-639.851Z" transform="translate(-662.269 671.143)" fill="#00629f" fill-rule="evenodd"/>
        <path id="Path_17472" data-name="Path 17472" d="M655.127-494a3.615,3.615,0,0,1,3.064,2.173,1.258,1.258,0,0,1-.5,1.706,1.231,1.231,0,0,1-1.7-.493c-.793-1.167-1.624-1.167-2.415,0a1.234,1.234,0,0,1-1.7.494,1.285,1.285,0,0,1-.506-1.706A3.907,3.907,0,0,1,655.127-494Z" transform="translate(-632.266 552.794)" fill="#00629f" fill-rule="evenodd"/>
        <path id="Path_17473" data-name="Path 17473" d="M689.767-510.746a1.309,1.309,0,0,1-1.241-1.29,1.3,1.3,0,0,1,1.278-1.249A1.261,1.261,0,0,1,691.028-512,1.266,1.266,0,0,1,689.767-510.746Z" transform="translate(-662.271 568.306)" fill="#00629f" fill-rule="evenodd"/>
        <path id="Path_17474" data-name="Path 17474" d="M639.942-511.985a1.271,1.271,0,0,1-1.28,1.233,1.269,1.269,0,0,1-1.206-1.3,1.266,1.266,0,0,1,1.275-1.233A1.274,1.274,0,0,1,639.942-511.985Z" transform="translate(-621.184 568.309)" fill="#00629f" fill-rule="evenodd"/>
      </g>
    </g>
  </g>
</svg>
