<svg xmlns="http://www.w3.org/2000/svg" width="76" height="76" viewBox="0 0 76 76">
  <g id="Group_4157" data-name="Group 4157" transform="translate(0 -0.255)">
    <circle id="Ellipse_9" data-name="Ellipse 9" cx="38" cy="38" r="38" transform="translate(0 0.255)" fill="#ebe3af"/>
    <g id="Icon_feather-shopping-cart" data-name="Icon feather-shopping-cart" transform="translate(21.194 21.4)">
      <path id="Path_12" data-name="Path 12" d="M15.167,31.583A1.583,1.583,0,1,1,13.583,30,1.583,1.583,0,0,1,15.167,31.583Z" transform="translate(-0.916 0.085)" fill="none" stroke="#a2974b" stroke-linecap="round" stroke-linejoin="round" stroke-width="2"/>
      <path id="Path_13" data-name="Path 13" d="M31.667,31.583A1.583,1.583,0,1,1,30.083,30,1.583,1.583,0,0,1,31.667,31.583Z" transform="translate(0.002 0.085)" fill="none" stroke="#a2974b" stroke-linecap="round" stroke-linejoin="round" stroke-width="2"/>
      <path id="Path_14" data-name="Path 14" d="M1.5,1.5H7.834l4.244,21.2a3.167,3.167,0,0,0,3.167,2.549H30.635A3.167,3.167,0,0,0,33.8,22.7L36.336,9.417H9.417" transform="translate(-1.5 -1.5)" fill="none" stroke="#a2974b" stroke-linecap="round" stroke-linejoin="round" stroke-width="2"/>
    </g>
  </g>
</svg>
