<svg width="24" height="30" xmlns="http://www.w3.org/2000/svg" xmlns:xlink="http://www.w3.org/1999/xlink" xmlns:svgjs="http://svgjs.com/svgjs" viewBox="44 643 24 30"><svg width="24" height="30" xmlns="http://www.w3.org/2000/svg" xmlns:xlink="http://www.w3.org/1999/xlink" xmlns:svgjs="http://svgjs.com/svgjs" viewBox="0.516 0 22.969 30" fill="#fff" x="44" y="643"><svg xmlns="http://www.w3.org/2000/svg" xmlns:xlink="http://www.w3.org/1999/xlink" width="24" height="30" viewBox="0.769 0.331 22.461 29.337"><path paint-order="stroke fill markers" fill-rule="evenodd" d="M2.488 29.669h19.024c.947 0 1.719-.772 1.719-1.72V5.49c0-.949-.772-1.72-1.72-1.72h-2.864v-.573a.573.573 0 0 0-.573-.573h-2.832A3.45 3.45 0 0 0 12 .331a3.45 3.45 0 0 0-3.242 2.292H5.926a.573.573 0 0 0-.573.573v.573H2.488A1.72 1.72 0 0 0 .77 5.49v22.46c0 .948.771 1.72 1.72 1.72zM6.5 3.769h2.693a.573.573 0 0 0 .562-.459A2.298 2.298 0 0 1 12 1.477c1.086 0 2.03.771 2.246 1.833a.573.573 0 0 0 .562.46H17.5v1.145H6.499V3.77zM1.915 5.49c0-.317.257-.574.573-.574h2.865v.573c0 .317.257.573.573.573h12.148a.573.573 0 0 0 .573-.573v-.573h2.865c.315 0 .573.257.573.573V27.95a.574.574 0 0 1-.573.573H2.488a.574.574 0 0 1-.573-.573V5.49z"/></svg></svg><svg width="5" height="5" xmlns="http://www.w3.org/2000/svg" xmlns:xlink="http://www.w3.org/1999/xlink" xmlns:svgjs="http://svgjs.com/svgjs" viewBox="0 0.625 5 3.75" fill="#fff" x="48" y="658"><svg xmlns="http://www.w3.org/2000/svg" xmlns:xlink="http://www.w3.org/1999/xlink" width="5" height="5" viewBox="0.207 0.573 4.584 3.438"><path paint-order="stroke fill markers" fill-rule="evenodd" d="M1.521 3.843a.57.57 0 0 0 .81 0L4.623 1.55a.573.573 0 0 0-.81-.81L1.926 2.627l-.74-.74a.573.573 0 1 0-.811.81l1.146 1.146z"/></svg></svg><svg width="5" height="5" xmlns="http://www.w3.org/2000/svg" xmlns:xlink="http://www.w3.org/1999/xlink" xmlns:svgjs="http://svgjs.com/svgjs" viewBox="0 0.625 5 3.75" fill="#fff" x="48" y="652"><svg xmlns="http://www.w3.org/2000/svg" xmlns:xlink="http://www.w3.org/1999/xlink" width="5" height="5" viewBox="0.207 0.843 4.584 3.438"><path paint-order="stroke fill markers" fill-rule="evenodd" d="M1.521 4.113a.571.571 0 0 0 .81 0l2.292-2.292a.573.573 0 0 0-.81-.81L1.926 2.898l-.74-.741a.573.573 0 0 0-.811.81l1.146 1.146z"/></svg></svg><svg width="4" height="4" xmlns="http://www.w3.org/2000/svg" xmlns:xlink="http://www.w3.org/1999/xlink" xmlns:svgjs="http://svgjs.com/svgjs" fill="#fff" x="48" y="664"><svg xmlns="http://www.w3.org/2000/svg" xmlns:xlink="http://www.w3.org/1999/xlink" width="4" height="4" viewBox="0.207 0.303 3.438 3.438"><path paint-order="stroke fill markers" fill-rule="evenodd" d="M1.926.303C.978.303.207 1.074.207 2.022c0 .948.771 1.719 1.72 1.719.947 0 1.718-.771 1.718-1.72 0-.947-.77-1.718-1.719-1.718zm0 2.292a.574.574 0 1 1 .002-1.148.574.574 0 0 1-.002 1.148z"/></svg></svg><svg width="7" height="2" xmlns="http://www.w3.org/2000/svg" xmlns:xlink="http://www.w3.org/1999/xlink" xmlns:svgjs="http://svgjs.com/svgjs" viewBox="0 0.34 7 1.321" fill="#fff" x="55" y="666"><svg xmlns="http://www.w3.org/2000/svg" xmlns:xlink="http://www.w3.org/1999/xlink" width="7" height="2" viewBox="0.427 0.595 6.074 1.146"><path paint-order="stroke fill markers" fill-rule="evenodd" d="M1 1.74h4.928a.573.573 0 0 0 0-1.145H1A.573.573 0 1 0 1 1.74z"/></svg></svg><svg width="9" height="2" xmlns="http://www.w3.org/2000/svg" xmlns:xlink="http://www.w3.org/1999/xlink" xmlns:svgjs="http://svgjs.com/svgjs" viewBox="0 0.383 9 1.233" fill="#fff" x="55" y="664"><svg xmlns="http://www.w3.org/2000/svg" xmlns:xlink="http://www.w3.org/1999/xlink" width="9" height="2" viewBox="0.427 0.303 8.366 1.146"><path paint-order="stroke fill markers" fill-rule="evenodd" d="M1 1.449h7.22a.573.573 0 0 0 0-1.146H1a.573.573 0 1 0 0 1.146z"/></svg></svg><svg width="6" height="2" xmlns="http://www.w3.org/2000/svg" xmlns:xlink="http://www.w3.org/1999/xlink" xmlns:svgjs="http://svgjs.com/svgjs" viewBox="0 0.302 6 1.395" fill="#fff" x="55" y="655"><svg xmlns="http://www.w3.org/2000/svg" xmlns:xlink="http://www.w3.org/1999/xlink" width="6" height="2" viewBox="0.427 0.135 4.928 1.146"><path paint-order="stroke fill markers" fill-rule="evenodd" d="M1 1.28h3.782a.573.573 0 0 0 0-1.145H1a.573.573 0 1 0 0 1.146z"/></svg></svg><svg width="7" height="3" xmlns="http://www.w3.org/2000/svg" xmlns:xlink="http://www.w3.org/1999/xlink" xmlns:svgjs="http://svgjs.com/svgjs" viewBox="0 0.84 7 1.321" fill="#fff" x="55" y="660"><svg xmlns="http://www.w3.org/2000/svg" xmlns:xlink="http://www.w3.org/1999/xlink" width="7" height="3" viewBox="0.427 0.865 6.074 1.146"><path paint-order="stroke fill markers" fill-rule="evenodd" d="M1 2.01h4.928a.573.573 0 0 0 0-1.145H1A.573.573 0 1 0 1 2.01z"/></svg></svg><svg width="9" height="2" xmlns="http://www.w3.org/2000/svg" xmlns:xlink="http://www.w3.org/1999/xlink" xmlns:svgjs="http://svgjs.com/svgjs" viewBox="0 0.384 9 1.233" fill="#fff" x="55" y="658"><svg xmlns="http://www.w3.org/2000/svg" xmlns:xlink="http://www.w3.org/1999/xlink" width="9" height="2" viewBox="0.427 0.573 8.366 1.146"><path paint-order="stroke fill markers" fill-rule="evenodd" d="M1 1.719h7.22a.573.573 0 1 0 0-1.146H1a.573.573 0 1 0 0 1.146z"/></svg></svg><svg width="9" height="2" xmlns="http://www.w3.org/2000/svg" xmlns:xlink="http://www.w3.org/1999/xlink" xmlns:svgjs="http://svgjs.com/svgjs" viewBox="0 0.383 9 1.233" fill="#fff" x="55" y="652"><svg xmlns="http://www.w3.org/2000/svg" width="9" height="2" viewBox="0.427 0.843 8.366 1.146"><path paint-order="stroke fill markers" fill-rule="evenodd" d="M1 1.989h7.22a.573.573 0 0 0 0-1.146H1a.573.573 0 1 0 0 1.146z"/></svg></svg></svg>