<svg xmlns="http://www.w3.org/2000/svg" width="63.622" height="63.621" viewBox="0 0 63.622 63.621">
  <g id="Icon_feather-image" data-name="Icon feather-image" transform="translate(-3 -3)">
    <path id="Path_1298" data-name="Path 1298" d="M11.167,4.5H57.833A6.667,6.667,0,0,1,64.5,11.167V57.833A6.667,6.667,0,0,1,57.833,64.5H11.167A6.667,6.667,0,0,1,4.5,57.833V11.167A6.667,6.667,0,0,1,11.167,4.5Z" fill="none" stroke="#393939" stroke-linecap="round" stroke-linejoin="round" stroke-width="3"/>
    <path id="Path_1299" data-name="Path 1299" d="M20.5,15.5a5,5,0,1,1-5-5A5,5,0,0,1,20.5,15.5Z" transform="translate(7.333 7.333)" fill="none" stroke="#393939" stroke-linecap="round" stroke-linejoin="round" stroke-width="3"/>
    <path id="Path_1300" data-name="Path 1300" d="M60.833,31.667,44.167,15,7.5,51.667" transform="translate(3.667 12.833)" fill="none" stroke="#393939" stroke-linecap="round" stroke-linejoin="round" stroke-width="3"/>
  </g>
</svg>
