<svg xmlns="http://www.w3.org/2000/svg" width="577.001" height="580.54" viewBox="0 0 577.001 580.54">
  <g id="Group_6974" data-name="Group 6974" transform="translate(-81.182 -183.773)">
    <g id="Background_Complete" data-name="Background Complete" transform="translate(81.182 183.773)">
      <g id="Group_6534" data-name="Group 6534" transform="translate(381.247 0)">
        <g id="Group_6515" data-name="Group 6515">
          <g id="Group_6506" data-name="Group 6506">
            <g id="Group_6505" data-name="Group 6505">
              <g id="Group_6504" data-name="Group 6504">
                <g id="Group_6503" data-name="Group 6503">
                  <path id="Path_18431" data-name="Path 18431" d="M443.05,362.953,323.567,317.765a15.983,15.983,0,0,1-9.3-20.6l62.544-165.377a15.983,15.983,0,0,1,20.6-9.3l75.776,28.656,35.792,82.64L463.652,353.657A15.984,15.984,0,0,1,443.05,362.953Z" transform="translate(-313.233 -121.45)" fill="#f5f5f5"/>
                </g>
              </g>
            </g>
          </g>
          <g id="Group_6510" data-name="Group 6510" transform="translate(141.393 29.694)">
            <g id="Group_6509" data-name="Group 6509">
              <g id="Group_6508" data-name="Group 6508">
                <g id="Group_6507" data-name="Group 6507">
                  <path id="Path_18432" data-name="Path 18432" d="M417.862,139.524l-17.6,46.545a14.865,14.865,0,0,0,8.644,19.163l44.75,16.932Z" transform="translate(-399.294 -139.524)" fill="#ebebeb"/>
                </g>
              </g>
            </g>
          </g>
          <g id="Group_6514" data-name="Group 6514" transform="translate(140.4 80.555)">
            <g id="Group_6513" data-name="Group 6513">
              <g id="Group_6512" data-name="Group 6512">
                <g id="Group_6511" data-name="Group 6511">
                  <path id="Path_18433" data-name="Path 18433" d="M399.714,170.481s-4.858,11.065,6.592,19.638a15.335,15.335,0,0,0,1.346.887c5.446,3.255,41.328,24.646,41.662,23.762l4.73-12.508-44.754-16.924S398.26,180.728,399.714,170.481Z" transform="translate(-398.69 -170.481)" fill="#e0e0e0"/>
                </g>
              </g>
            </g>
          </g>
        </g>
        <g id="Group_6518" data-name="Group 6518" transform="translate(77.778 49.588)">
          <g id="Group_6517" data-name="Group 6517">
            <g id="Group_6516" data-name="Group 6516">
              <path id="Path_18434" data-name="Path 18434" d="M415.854,172.6c-.227.6-12.785-3.6-28.047-9.37s-27.457-10.939-27.23-11.537,12.782,3.6,28.048,9.371S416.081,172,415.854,172.6Z" transform="translate(-360.574 -151.632)" fill="#e0e0e0"/>
            </g>
          </g>
        </g>
        <g id="Group_6521" data-name="Group 6521" transform="translate(67.827 75.927)">
          <g id="Group_6520" data-name="Group 6520">
            <g id="Group_6519" data-name="Group 6519">
              <path id="Path_18435" data-name="Path 18435" d="M445.5,202.105c-.227.6-20.775-6.619-45.894-16.121S354.292,168.3,354.519,167.7s20.773,6.618,45.9,16.121S445.722,201.507,445.5,202.105Z" transform="translate(-354.517 -167.664)" fill="#e0e0e0"/>
            </g>
          </g>
        </g>
        <g id="Group_6524" data-name="Group 6524" transform="translate(59.515 97.904)">
          <g id="Group_6523" data-name="Group 6523">
            <g id="Group_6522" data-name="Group 6522">
              <path id="Path_18436" data-name="Path 18436" d="M448.631,218.578c-.227.6-22.612-7.314-49.993-17.668s-49.4-19.239-49.178-19.837,22.607,7.313,50,17.671S448.856,217.979,448.631,218.578Z" transform="translate(-349.458 -181.041)" fill="#e0e0e0"/>
            </g>
          </g>
        </g>
        <g id="Group_6527" data-name="Group 6527" transform="translate(51.675 118.636)">
          <g id="Group_6526" data-name="Group 6526">
            <g id="Group_6525" data-name="Group 6525">
              <path id="Path_18437" data-name="Path 18437" d="M443.857,231.2c-.225.6-22.61-7.313-49.991-17.668s-49.4-19.239-49.178-19.837,22.607,7.313,50,17.671S444.084,230.6,443.857,231.2Z" transform="translate(-344.686 -193.66)" fill="#e0e0e0"/>
            </g>
          </g>
        </g>
        <g id="Group_6530" data-name="Group 6530" transform="translate(43.835 139.368)">
          <g id="Group_6529" data-name="Group 6529">
            <g id="Group_6528" data-name="Group 6528">
              <path id="Path_18438" data-name="Path 18438" d="M439.085,243.815c-.227.6-22.612-7.313-49.993-17.667s-49.4-19.239-49.177-19.839,22.605,7.313,50,17.671S439.312,243.219,439.085,243.815Z" transform="translate(-339.914 -206.279)" fill="#e0e0e0"/>
            </g>
          </g>
        </g>
        <g id="Group_6533" data-name="Group 6533" transform="translate(35.993 160.102)">
          <g id="Group_6532" data-name="Group 6532">
            <g id="Group_6531" data-name="Group 6531">
              <path id="Path_18439" data-name="Path 18439" d="M434.312,256.436c-.225.6-22.61-7.314-49.991-17.668s-49.4-19.239-49.178-19.837,22.607,7.311,50,17.67S434.539,255.838,434.312,256.436Z" transform="translate(-335.141 -218.899)" fill="#e0e0e0"/>
            </g>
          </g>
        </g>
      </g>
      <g id="Group_6539" data-name="Group 6539" transform="translate(0 128.984)">
        <g id="Group_6536" data-name="Group 6536">
          <g id="Group_6535" data-name="Group 6535">
            <path id="Path_18440" data-name="Path 18440" d="M180.721,199.963c.076.219-22.147,8.2-49.628,17.823s-49.834,17.253-49.911,17.034,22.14-8.2,49.633-17.824S180.644,199.746,180.721,199.963Z" transform="translate(-81.182 -199.958)" fill="#e0e0e0"/>
          </g>
        </g>
        <g id="Group_6538" data-name="Group 6538" transform="translate(27.105 4.082)">
          <g id="Group_6537" data-name="Group 6537">
            <path id="Path_18441" data-name="Path 18441" d="M141.652,202.453c.077.219-9.7,3.843-21.846,8.095s-22.05,7.521-22.126,7.3,9.7-3.841,21.848-8.095S141.576,202.235,141.652,202.453Z" transform="translate(-97.68 -202.443)" fill="#e0e0e0"/>
          </g>
        </g>
      </g>
    </g>
    <g id="Plants" transform="translate(525.135 570.145)">
      <g id="Group_6590" data-name="Group 6590">
        <g id="Group_6589" data-name="Group 6589">
          <g id="Group_6564" data-name="Group 6564">
            <g id="Group_6543" data-name="Group 6543" transform="translate(57.906 76.714)">
              <g id="Group_6542" data-name="Group 6542">
                <g id="Group_6541" data-name="Group 6541">
                  <g id="Group_6540" data-name="Group 6540">
                    <path id="Path_18442" data-name="Path 18442" d="M393.722,406.219c5.9-3.046,12.848-3.44,19.4-2.358,3.521.58,7.188,1.635,9.583,4.277s2.849,7.3.1,9.568c-1.638,1.352-3.92,1.557-6.044,1.533-5.128-.061-10.817-.964-14.915,2.123-2.338,1.761-3.892,4.687-6.687,5.551-2.734.848-5.819-.766-7.27-3.232a11.287,11.287,0,0,1-.821-8.335A12.714,12.714,0,0,1,393.722,406.219Z" transform="translate(-386.646 -403.314)" fill="#2074a5"/>
                  </g>
                </g>
              </g>
            </g>
            <g id="Group_6547" data-name="Group 6547" transform="translate(48.056)">
              <g id="Group_6546" data-name="Group 6546">
                <g id="Group_6545" data-name="Group 6545">
                  <g id="Group_6544" data-name="Group 6544">
                    <path id="Path_18443" data-name="Path 18443" d="M384.057,410.141c3.608,5.152,10.622,3.447,13.871.3s4.627-7.705,5.878-12.053c2.859-9.933,5.74-20.353,3.615-30.47a16.95,16.95,0,0,0-3.891-8.282,8.848,8.848,0,0,0-8.382-2.79c-3.534.936-5.732,4.4-7.321,7.692a72.6,72.6,0,0,0-7.176,31.17c-.018,5.019.573,10.285,3.406,14.43" transform="translate(-380.651 -356.621)" fill="#2074a5"/>
                  </g>
                </g>
              </g>
            </g>
            <g id="Group_6551" data-name="Group 6551" transform="translate(0 16.583)">
              <g id="Group_6550" data-name="Group 6550">
                <g id="Group_6549" data-name="Group 6549">
                  <g id="Group_6548" data-name="Group 6548">
                    <path id="Path_18444" data-name="Path 18444" d="M392.955,411.047c3.918-4.649,4.661-11.432,2.918-17.256s-5.681-10.781-10.219-14.826a55.093,55.093,0,0,0-18.3-10.8,19.55,19.55,0,0,0-8.231-1.4,8.637,8.637,0,0,0-6.907,4.18c-1.926,3.672-.079,8.128,1.919,11.763a139.517,139.517,0,0,0,12.02,18.3c3.6,4.645,7.73,9.227,13.221,11.326s11.195,1.852,14.1-1.957" transform="translate(-351.401 -366.714)" fill="#2074a5"/>
                  </g>
                </g>
              </g>
            </g>
            <g id="Group_6555" data-name="Group 6555" transform="translate(51.152 83.869)">
              <g id="Group_6554" data-name="Group 6554">
                <g id="Group_6553" data-name="Group 6553">
                  <g id="Group_6552" data-name="Group 6552">
                    <path id="Path_18445" data-name="Path 18445" d="M382.6,455.056a11.316,11.316,0,0,0,.325-2.341c.164-1.7.373-3.843.623-6.389a91.563,91.563,0,0,1,1.438-9.373,72.239,72.239,0,0,1,3.406-11.065,40.791,40.791,0,0,1,5.65-10.009,21.086,21.086,0,0,1,7.142-5.939,19.952,19.952,0,0,1,6.015-1.871,11.2,11.2,0,0,0,2.331-.338,11.062,11.062,0,0,0-2.372-.036,18.226,18.226,0,0,0-6.271,1.631,21.036,21.036,0,0,0-7.535,5.99,39.856,39.856,0,0,0-5.857,10.213,67.582,67.582,0,0,0-3.381,11.243,79.408,79.408,0,0,0-1.247,9.493c-.2,2.713-.279,4.911-.317,6.43A10.945,10.945,0,0,0,382.6,455.056Z" transform="translate(-382.535 -407.669)" fill="#263238"/>
                  </g>
                </g>
              </g>
            </g>
            <g id="Group_6559" data-name="Group 6559" transform="translate(51.152 20.707)">
              <g id="Group_6558" data-name="Group 6558">
                <g id="Group_6557" data-name="Group 6557">
                  <g id="Group_6556" data-name="Group 6556">
                    <path id="Path_18446" data-name="Path 18446" d="M383.041,474.858a4.529,4.529,0,0,0,.062-1.088c0-.817,0-1.845-.008-3.107,0-2.7,0-6.6.138-11.417.24-9.638,1.07-20.009,2.671-34.632,1.518-13.75,3.555-29.75,5.706-40.155.46-2.367.925-4.5,1.362-6.361.417-1.866.772-3.48,1.116-4.783.3-1.227.536-2.226.726-3.02a4.5,4.5,0,0,0,.189-1.071,4.666,4.666,0,0,0-.376,1.017c-.238.784-.536,1.768-.9,2.979-.4,1.291-.81,2.893-1.278,4.753-.488,1.857-1,3.981-1.5,6.343a352.924,352.924,0,0,0-6,37.26c-1.605,14.652-2.328,27.994-2.392,37.656-.057,4.83.046,8.742.169,11.44.077,1.262.14,2.29.189,3.105A4.673,4.673,0,0,0,383.041,474.858Z" transform="translate(-382.535 -369.225)" fill="#263238"/>
                  </g>
                </g>
              </g>
            </g>
            <g id="Group_6563" data-name="Group 6563" transform="translate(17.3 28.574)">
              <g id="Group_6562" data-name="Group 6562">
                <g id="Group_6561" data-name="Group 6561">
                  <g id="Group_6560" data-name="Group 6560">
                    <path id="Path_18447" data-name="Path 18447" d="M396.353,446.046a20.617,20.617,0,0,0-.021-3.246c-.12-2.085-.406-5.1-.994-8.793a115.99,115.99,0,0,0-2.86-12.812,104.922,104.922,0,0,0-5.358-15.161c-4.444-10.541-10.482-19.16-15.733-24.5a39.9,39.9,0,0,0-3.7-3.439c-.568-.48-1.07-.959-1.582-1.339q-.769-.532-1.436-.989a20.774,20.774,0,0,0-2.732-1.751c-.156.212,3.872,2.583,8.957,7.991a85.079,85.079,0,0,1,15.34,24.411,119.862,119.862,0,0,1,5.387,15.02,130.027,130.027,0,0,1,3.044,12.685c.67,3.657,1.06,6.641,1.293,8.708A21.107,21.107,0,0,0,396.353,446.046Z" transform="translate(-361.93 -374.013)" fill="#263238"/>
                  </g>
                </g>
              </g>
            </g>
          </g>
          <g id="Group_6567" data-name="Group 6567" transform="translate(26.851 146)">
            <g id="Group_6566" data-name="Group 6566">
              <g id="Group_6565" data-name="Group 6565">
                <path id="Path_18448" data-name="Path 18448" d="M367.744,445.486l2.578,35.326h45.383l2.578-35.326Z" transform="translate(-367.744 -445.486)" fill="#263238"/>
              </g>
            </g>
          </g>
          <g id="Group_6570" data-name="Group 6570" transform="translate(22.467 132.076)">
            <g id="Group_6569" data-name="Group 6569">
              <g id="Group_6568" data-name="Group 6568">
                <rect id="Rectangle_275" data-name="Rectangle 275" width="60.338" height="13.923" fill="#263238"/>
              </g>
            </g>
          </g>
          <g id="Group_6573" data-name="Group 6573" transform="translate(22.467 179.974)">
            <g id="Group_6572" data-name="Group 6572">
              <g id="Group_6571" data-name="Group 6571">
                <path id="Path_18449" data-name="Path 18449" d="M365.076,466.165v3.86h59.34v-3.86Z" transform="translate(-365.076 -466.165)" fill="#455a64"/>
              </g>
            </g>
          </g>
          <g id="Group_6576" data-name="Group 6576" transform="translate(25.302 183.834)">
            <g id="Group_6575" data-name="Group 6575">
              <g id="Group_6574" data-name="Group 6574">
                <path id="Path_18450" data-name="Path 18450" d="M369.58,475.307l-2.779-6.793h54.344l-3.243,6.793Z" transform="translate(-366.801 -468.514)" fill="#455a64"/>
              </g>
            </g>
          </g>
          <g id="Group_6580" data-name="Group 6580" transform="translate(27.616 152.583)">
            <g id="Group_6579" data-name="Group 6579">
              <g id="Group_6578" data-name="Group 6578">
                <g id="Group_6577" data-name="Group 6577">
                  <path id="Path_18451" data-name="Path 18451" d="M417.142,454.455a1.489,1.489,0,0,1-.212.325c-.181.238-.4.536-.679.9-.646.825-1.53,1.958-2.645,3.384l-.117.15-.113-.158c-1.661-2.3-3.882-5.369-6.495-8.984h.373c-1.932,2.736-4.083,5.785-6.394,9.056l-.2.284-.222-.268c-2.361-2.808-4.924-5.857-7.586-9.025l.437,0-.417.524c-2.351,2.949-4.627,5.8-6.78,8.5l-.225.284-.209-.3-6.4-9.053.373.018-7.88,8.977-.14.159-.107-.179c-1.038-1.745-1.866-3.136-2.468-4.145-.258-.45-.467-.812-.633-1.1a1.913,1.913,0,0,1-.194-.4,2,2,0,0,1,.266.35c.182.279.414.631.7,1.063.631.989,1.5,2.356,2.591,4.07l-.246-.02c2.019-2.367,4.65-5.451,7.753-9.087l.2-.228.176.246c1.963,2.739,4.134,5.768,6.455,9.011l-.435-.011c2.149-2.7,4.419-5.561,6.767-8.514.143-.179.284-.36.417-.524l.214-.271.223.265c2.652,3.171,5.208,6.228,7.563,9.041l-.424.018c2.333-3.256,4.507-6.289,6.458-9.01l.189-.264.184.264c2.56,3.654,4.732,6.756,6.358,9.081l-.23-.007,2.749-3.3.738-.853C417.039,454.54,417.131,454.447,417.142,454.455Z" transform="translate(-368.209 -449.493)" fill="#e0e0e0"/>
                </g>
              </g>
            </g>
          </g>
          <g id="Group_6584" data-name="Group 6584" transform="translate(27.229 145.484)">
            <g id="Group_6583" data-name="Group 6583">
              <g id="Group_6582" data-name="Group 6582">
                <g id="Group_6581" data-name="Group 6581">
                  <path id="Path_18452" data-name="Path 18452" d="M418.766,445.455c0,.156-11.371.283-25.395.283s-25.4-.127-25.4-.283,11.367-.283,25.4-.283S418.766,445.3,418.766,445.455Z" transform="translate(-367.974 -445.172)" fill="#455a64"/>
                </g>
              </g>
            </g>
          </g>
          <g id="Group_6588" data-name="Group 6588" transform="translate(25.113 183.932)">
            <g id="Group_6587" data-name="Group 6587">
              <g id="Group_6586" data-name="Group 6586">
                <g id="Group_6585" data-name="Group 6585">
                  <path id="Path_18453" data-name="Path 18453" d="M421.889,468.857c0,.154-12.36.283-27.6.283s-27.6-.128-27.6-.283,12.357-.283,27.6-.283S421.889,468.7,421.889,468.857Z" transform="translate(-366.686 -468.574)" fill="#263238"/>
                </g>
              </g>
            </g>
          </g>
        </g>
      </g>
    </g>
    <g id="Character" transform="translate(216.104 205.865)">
      <g id="Group_6905" data-name="Group 6905">
        <g id="Group_6596" data-name="Group 6596" transform="translate(28.462 361.735)">
          <g id="Group_6591" data-name="Group 6591" transform="translate(0 0.271)">
            <rect id="Rectangle_276" data-name="Rectangle 276" width="242.535" height="193.41" fill="#e0e0e0"/>
          </g>
          <g id="Group_6593" data-name="Group 6593" transform="translate(17.668)" opacity="0.3">
            <g id="Group_6592" data-name="Group 6592">
              <path id="Path_18454" data-name="Path 18454" d="M191.382,355.747c28.554,10.19,60.051,12.361,90.694,12.935,6.347.118,12.774.108,18.914,1.709s12.087,5.044,15.242,10.553c3.43,6,3.066,13.5,1.117,20.131s-5.326,12.739-7.766,19.2a71.808,71.808,0,0,0-3.826,35.777c.757,5.093,2.124,10.224,5.068,14.451s7.687,7.446,12.838,7.521c9.217.133,15.529-8.929,20.1-16.934,18.744-32.834,39.02-70.167,51.015-106.021Z" transform="translate(-191.382 -355.072)"/>
            </g>
          </g>
          <g id="Group_6595" data-name="Group 6595" transform="translate(82.21 1.163)">
            <g id="Group_6594" data-name="Group 6594">
              <path id="Path_18455" data-name="Path 18455" d="M231.095,547.262c-.237,0-.429-42.868-.429-95.736,0-52.886.192-95.746.429-95.746s.427,42.859.427,95.746C231.522,504.394,231.33,547.262,231.095,547.262Z" transform="translate(-230.666 -355.78)" fill="#455a64"/>
            </g>
          </g>
        </g>
        <g id="Group_6889" data-name="Group 6889">
          <g id="Group_6631" data-name="Group 6631" transform="translate(0 87.094)">
            <g id="Group_6598" data-name="Group 6598" transform="translate(25.447)">
              <g id="Group_6597" data-name="Group 6597">
                <path id="Path_18456" data-name="Path 18456" d="M363.828,319.887c-.72-4.822-15.135-20.77-15.135-20.77s-7.208-28.929-9.371-37.459a28.188,28.188,0,0,0-3.133-6.987,56.314,56.314,0,0,0-21.041-20.3L295.2,223.154l-4.774-10.62-47.933-24.626-13,22.927s-31.561,10.03-35.737,17.2S195.83,331.2,195.83,331.2s-13.209,55.408-16,66.873.9,25.142.9,25.142l23.507-29.5c7.3-9.166,23.341-13.377,34.858-13.216l98.43.435-3.915-27.57L413.2,368.844s13.694-26.7,14.775-27.24S363.828,319.887,363.828,319.887Z" transform="translate(-178.793 -187.908)" fill="#5fd3f3"/>
              </g>
            </g>
            <g id="Group_6599" data-name="Group 6599" transform="translate(87.046 31.922)">
              <path id="Path_18457" data-name="Path 18457" d="M216.339,207.355c-.692-.7,5.563,20.417,13.411,41.923a105.789,105.789,0,0,1,6.35,36.256v77.874l47.2-3.207-7.055-51.3s-5.755-33.092-7.365-45.677c-1.474-11.524-6.544-42.772-6.544-42.772S236.1,227.481,216.339,207.355Z" transform="translate(-216.286 -207.338)" fill="#fff"/>
            </g>
            <g id="Group_6601" data-name="Group 6601" transform="translate(191.777 131.725)">
              <g id="Group_6600" data-name="Group 6600">
                <path id="Path_18458" data-name="Path 18458" d="M280.08,287.687a2.973,2.973,0,0,1,0-1.186,17.492,17.492,0,0,1,.621-3.174,21.3,21.3,0,0,1,14.542-14.57,17.406,17.406,0,0,1,3.169-.628,2.974,2.974,0,0,1,1.19,0c.02.146-1.654.324-4.175,1.2a22.666,22.666,0,0,0-14.149,14.179C280.4,286.033,280.226,287.709,280.08,287.687Z" transform="translate(-280.032 -268.084)" fill="#263238"/>
              </g>
            </g>
            <g id="Group_6603" data-name="Group 6603" transform="translate(194.253 130.483)">
              <g id="Group_6602" data-name="Group 6602">
                <path id="Path_18459" data-name="Path 18459" d="M281.542,269.492c-.1-.187,3-1.756,7.2-2.088,4.206-.361,7.521.682,7.449.882-.049.255-3.332-.381-7.378-.03C284.767,268.57,281.632,269.735,281.542,269.492Z" transform="translate(-281.539 -267.328)" fill="#263238"/>
              </g>
            </g>
            <g id="Group_6611" data-name="Group 6611" transform="translate(33.63 162.766)">
              <g id="Group_6605" data-name="Group 6605" transform="translate(0 12.37)" opacity="0.3">
                <g id="Group_6604" data-name="Group 6604">
                  <path id="Path_18460" data-name="Path 18460" d="M187.87,294.507l-4.1,4.645c4.388,5.1,10.091,9.386,16.628,11s13.329,1.8,20.06,1.815a28.936,28.936,0,0,0,8.113-.772c2.67-.769,5.16-2.287,7.934-2.453a20.724,20.724,0,0,1,5.506.789,10.76,10.76,0,0,0,5.515.089,4.367,4.367,0,0,0,3.21-4.07A290.664,290.664,0,0,0,187.87,294.507Z" transform="translate(-183.774 -294.507)"/>
                </g>
              </g>
              <g id="Group_6606" data-name="Group 6606" transform="translate(55.619)">
                <path id="Path_18461" data-name="Path 18461" d="M300.829,305.305l-11.579-12.3-23.819-6.028s-21.828,6.539-22.351,6.521-19-5.049-19-5.049l-6.457,23.685,33.273,2.277,37.99-1.521s1.981-1.845.808-3.105,6.352,2.133,7.237,2.174c.869.039,2.606.721,3.779-.7C301.512,310.293,302.6,307.185,300.829,305.305Z" transform="translate(-217.627 -286.978)" fill="#ffbe9d"/>
              </g>
              <g id="Group_6608" data-name="Group 6608" transform="translate(101.77 16.093)">
                <g id="Group_6607" data-name="Group 6607">
                  <path id="Path_18462" data-name="Path 18462" d="M271.637,303.488a20.764,20.764,0,0,1-3.785-1.076c-2.308-.734-5.5-1.712-9.076-2.629s-6.849-1.592-9.225-2.068a20.255,20.255,0,0,1-3.833-.9,16.363,16.363,0,0,1,3.933.3,84.922,84.922,0,0,1,9.335,1.835,81.993,81.993,0,0,1,9.066,2.887A15.915,15.915,0,0,1,271.637,303.488Z" transform="translate(-245.718 -296.773)" fill="#eb996e"/>
                </g>
              </g>
              <g id="Group_6610" data-name="Group 6610" transform="translate(102.324 8.976)">
                <g id="Group_6609" data-name="Group 6609">
                  <path id="Path_18463" data-name="Path 18463" d="M282.551,301.791a49.771,49.771,0,0,1-5.285-1.7c-3.242-1.094-7.773-2.432-12.813-3.841-5.034-1.5-9.516-2.99-12.914-3.189a31.47,31.47,0,0,0-5.484.215,4.345,4.345,0,0,1,1.426-.48,15.572,15.572,0,0,1,4.094-.338c3.509.048,8.131,1.49,13.111,2.969,5.042,1.41,9.577,2.849,12.784,4.1,1.608.614,2.887,1.162,3.761,1.562A4.972,4.972,0,0,1,282.551,301.791Z" transform="translate(-246.055 -292.441)" fill="#eb996e"/>
                </g>
              </g>
            </g>
            <g id="Group_6613" data-name="Group 6613" transform="translate(0 40.122)">
              <g id="Group_6612" data-name="Group 6612">
                <path id="Path_18464" data-name="Path 18464" d="M203.717,212.329s-17.172,11.943-21.35,29.138S160.09,328.876,163.8,339.386,239.717,360.2,239.717,360.2l8.555-36.1-36.664-10.032s.463-33.434.928-47.285S203.717,212.329,203.717,212.329Z" transform="translate(-163.304 -212.329)" fill="#5fd3f3"/>
              </g>
            </g>
            <g id="Group_6614" data-name="Group 6614" transform="translate(77.586 157.278)">
              <path id="Path_18465" data-name="Path 18465" d="M217.43,283.637l11.816,2.909-7.108,27.247-11.61-1.859Z" transform="translate(-210.528 -283.637)" fill="#fff"/>
            </g>
            <g id="Group_6616" data-name="Group 6616" transform="translate(0.166 142.034)">
              <g id="Group_6615" data-name="Group 6615">
                <path id="Path_18466" data-name="Path 18466" d="M163.466,295.788c.061,0-.033.6.176,1.7a8.016,8.016,0,0,0,2.519,4.1c3.138,2.921,9.128,5.354,16.728,6.723l.025,0,.03.01c3.473,1.14,7.428,2.047,11.658,3s8.785,1.917,13.589,2.895c9.606,1.963,20.236,4.03,31.5,6.138l-.49.315L241.75,310.2c2.026-8.284,3.989-16.306,5.849-23.915l.289.495-32.588-9.3-.02,0-.018-.008a32.2,32.2,0,0,0-14.213-2.487,31.324,31.324,0,0,0-10.725,2.519,36.139,36.139,0,0,0-6.164,3.412c-.621.455-1.114.813-1.492,1.088a2.98,2.98,0,0,1-.529.352,2.789,2.789,0,0,1,.467-.427c.322-.266.79-.68,1.439-1.17a33.381,33.381,0,0,1,6.128-3.6,31.2,31.2,0,0,1,10.843-2.708,32.532,32.532,0,0,1,14.5,2.405l-.036-.011c9.407,2.637,20.487,5.745,32.629,9.15l.384.107-.1.388c-1.85,7.61-3.8,15.636-5.819,23.921-.876,3.59-1.74,7.129-2.558,10.477l-.1.393-.394-.074c-11.269-2.123-21.894-4.219-31.5-6.23-4.8-1-9.347-2-13.586-2.977s-8.172-1.924-11.706-3.122l.053.013c-7.681-1.462-13.691-3.992-16.857-7.066a7.967,7.967,0,0,1-2.458-4.3A5.02,5.02,0,0,1,163.466,295.788Z" transform="translate(-163.405 -274.359)" fill="#263238"/>
              </g>
            </g>
            <g id="Group_6618" data-name="Group 6618" transform="translate(22.915 135.392)">
              <g id="Group_6617" data-name="Group 6617">
                <path id="Path_18467" data-name="Path 18467" d="M204.619,279.181c-.1.108-1.324-1.015-3.527-2.489A33.666,33.666,0,0,0,181.563,271c-2.65.061-4.285.352-4.311.205a13.425,13.425,0,0,1,4.283-.81,29.881,29.881,0,0,1,19.906,5.8A13.346,13.346,0,0,1,204.619,279.181Z" transform="translate(-177.252 -270.316)" fill="#263238"/>
              </g>
            </g>
            <g id="Group_6620" data-name="Group 6620" transform="translate(44.387 85.441)">
              <g id="Group_6619" data-name="Group 6619">
                <path id="Path_18468" data-name="Path 18468" d="M201.023,239.913a10.961,10.961,0,0,1,.026,2.2c-.033,1.416-.154,3.462-.348,5.985-.4,5.045-1.157,12.007-2.474,19.62a136.861,136.861,0,0,1-4.554,19.26c-.4,1.2-.817,2.276-1.171,3.219-.391.882-.739,1.669-1.05,2.367a10.965,10.965,0,0,1-1.124,1.9,10.847,10.847,0,0,1,.82-2.037c.268-.707.568-1.5.905-2.4.309-.953.68-2.029,1.043-3.233a170.329,170.329,0,0,0,4.288-19.222c1.313-7.587,2.159-14.514,2.714-19.531.248-2.382.455-4.378.618-5.951A10.82,10.82,0,0,1,201.023,239.913Z" transform="translate(-190.321 -239.913)" fill="#263238"/>
              </g>
            </g>
            <g id="Group_6622" data-name="Group 6622" transform="translate(74.573 22.927)">
              <g id="Group_6621" data-name="Group 6621">
                <path id="Path_18469" data-name="Path 18469" d="M231.084,245.754c-.056.015-.169-.449-.568-1.214a7.323,7.323,0,0,0-2.469-2.7,6.178,6.178,0,0,0-5.341-.78,6.887,6.887,0,0,0-4.51,5.1l-.23,1.168-.5-1.081a114.484,114.484,0,0,1-5.019-12.685c-2.778-8.46-3.976-16.561-3.713-22.411-.008-1.464.205-2.778.291-3.933.2-1.145.345-2.134.522-2.931a14.394,14.394,0,0,1,.728-2.427c.212.039-.973,3.506-.936,9.3-.105,5.775,1.168,13.748,3.922,22.139a127,127,0,0,0,4.911,12.624l-.733.089a7.526,7.526,0,0,1,5.075-5.57,6.622,6.622,0,0,1,5.8,1.012,7.067,7.067,0,0,1,2.43,2.975,4.968,4.968,0,0,1,.311.971C231.092,245.631,231.105,245.749,231.084,245.754Z" transform="translate(-208.694 -201.863)" fill="#263238"/>
              </g>
            </g>
            <g id="Group_6624" data-name="Group 6624" transform="translate(136.216 24.626)">
              <g id="Group_6623" data-name="Group 6623">
                <path id="Path_18470" data-name="Path 18470" d="M247.017,248.789a11.733,11.733,0,0,1-.38-1.955,20.415,20.415,0,0,1-.348-5.509,11.528,11.528,0,0,1,3.961-7.277,7.548,7.548,0,0,1,4.778-1.715,6.521,6.521,0,0,1,5.027,2.249l-.725.416c-.5-1.26-1.025-2.581-1.559-3.927-3.066-7.74-5.795-14.762-7.73-19.862-.907-2.44-1.663-4.472-2.251-6.053a12.5,12.5,0,0,1-.715-2.261,12.858,12.858,0,0,1,1.027,2.144c.654,1.556,1.5,3.557,2.505,5.959,2.08,5.044,4.9,12.033,7.965,19.774.531,1.346,1.051,2.668,1.549,3.928l1,2.537-1.728-2.121a5.72,5.72,0,0,0-4.377-1.973,6.805,6.805,0,0,0-4.306,1.493,11.138,11.138,0,0,0-3.867,6.762,23.336,23.336,0,0,0,.094,5.394A8.372,8.372,0,0,1,247.017,248.789Z" transform="translate(-246.214 -202.897)" fill="#263238"/>
              </g>
            </g>
            <g id="Group_6626" data-name="Group 6626" transform="translate(167.477 74.593)">
              <g id="Group_6625" data-name="Group 6625">
                <path id="Path_18471" data-name="Path 18471" d="M265.254,233.31c.235-.033,3.948,24.945,8.292,55.783s7.677,55.873,7.446,55.908-3.948-24.94-8.292-55.788S265.02,233.343,265.254,233.31Z" transform="translate(-265.242 -233.31)" fill="#263238"/>
              </g>
            </g>
            <g id="Group_6628" data-name="Group 6628" transform="translate(78.824 54.899)" opacity="0.3">
              <g id="Group_6627" data-name="Group 6627">
                <path id="Path_18472" data-name="Path 18472" d="M211.282,221.323a51.542,51.542,0,0,0,4.091,18.554c1.789-2.21,3.774-4.546,6.495-5.2,3.394-.813,6.825,1.286,9.278,3.835a16.856,16.856,0,0,0-2.964-7.089,8.307,8.307,0,0,0-6.513-3.4,5.765,5.765,0,0,0-5.483,4.47l-4.709-11.06" transform="translate(-211.282 -221.323)"/>
              </g>
            </g>
            <g id="Group_6630" data-name="Group 6630" transform="translate(35.08 49.199)">
              <g id="Group_6629" data-name="Group 6629">
                <path id="Path_18473" data-name="Path 18473" d="M200.656,241.606c-.159,0-.107-1.72-.6-4.4a26.811,26.811,0,0,0-3.994-9.771,28.783,28.783,0,0,0-3.756-4.466,25.421,25.421,0,0,0-3.766-2.931c-2.307-1.457-3.933-2.016-3.879-2.167a3.376,3.376,0,0,1,1.178.289,8.238,8.238,0,0,1,1.326.516,14.269,14.269,0,0,1,1.687.844,22.416,22.416,0,0,1,3.989,2.87,26.608,26.608,0,0,1,3.932,4.569A24.4,24.4,0,0,1,200.65,237.1a17.156,17.156,0,0,1,.161,3.3A3.377,3.377,0,0,1,200.656,241.606Z" transform="translate(-184.656 -217.853)" fill="#263238"/>
              </g>
            </g>
          </g>
          <g id="Group_6770" data-name="Group 6770" transform="translate(65.14)">
            <g id="Group_6755" data-name="Group 6755">
              <g id="Group_6754" data-name="Group 6754">
                <g id="Group_6634" data-name="Group 6634" transform="translate(16.266 11.333)">
                  <g id="Group_6633" data-name="Group 6633">
                    <g id="Group_6632" data-name="Group 6632">
                      <path id="Path_18474" data-name="Path 18474" d="M277.884,173.259a35.2,35.2,0,0,0-35.915-31.452l-1.822.048c-19.623,1.653-29.18,19.241-26.985,38.811l5.384,68.829,2.28,2.8a36.828,36.828,0,0,0,43.712,10.3h0l-1.507-22.142s18.817-3.424,18.565-22.318C281.475,209.008,279.693,190.231,277.884,173.259Z" transform="translate(-212.853 -141.795)" fill="#ffbe9d"/>
                    </g>
                  </g>
                </g>
                <g id="Group_6644" data-name="Group 6644" transform="translate(41.656 103.353)">
                  <g id="Group_6643" data-name="Group 6643">
                    <g id="Group_6642" data-name="Group 6642">
                      <g id="Group_6641" data-name="Group 6641">
                        <g id="Group_6640" data-name="Group 6640">
                          <g id="Group_6639" data-name="Group 6639">
                            <g id="Group_6638" data-name="Group 6638">
                              <g id="Group_6637" data-name="Group 6637">
                                <g id="Group_6636" data-name="Group 6636">
                                  <g id="Group_6635" data-name="Group 6635">
                                    <path id="Path_18475" data-name="Path 18475" d="M253.242,204.412a45.817,45.817,0,0,1-24.935-6.608s6.169,13.444,24.974,11.259Z" transform="translate(-228.307 -197.804)" fill="#eb996e"/>
                                  </g>
                                </g>
                              </g>
                            </g>
                          </g>
                        </g>
                      </g>
                    </g>
                  </g>
                </g>
                <g id="Group_6657" data-name="Group 6657" transform="translate(69.946 56.053)">
                  <g id="Group_6656" data-name="Group 6656">
                    <g id="Group_6655" data-name="Group 6655">
                      <g id="Group_6654" data-name="Group 6654">
                        <g id="Group_6653" data-name="Group 6653">
                          <g id="Group_6652" data-name="Group 6652">
                            <g id="Group_6651" data-name="Group 6651">
                              <g id="Group_6650" data-name="Group 6650">
                                <g id="Group_6649" data-name="Group 6649">
                                  <g id="Group_6648" data-name="Group 6648">
                                    <g id="Group_6647" data-name="Group 6647">
                                      <g id="Group_6646" data-name="Group 6646">
                                        <g id="Group_6645" data-name="Group 6645">
                                          <path id="Path_18476" data-name="Path 18476" d="M250.9,171.386a2.7,2.7,0,0,1-2.53,2.788,2.58,2.58,0,0,1-2.844-2.361,2.7,2.7,0,0,1,2.528-2.79A2.583,2.583,0,0,1,250.9,171.386Z" transform="translate(-245.526 -169.015)" fill="#263238"/>
                                        </g>
                                      </g>
                                    </g>
                                  </g>
                                </g>
                              </g>
                            </g>
                          </g>
                        </g>
                      </g>
                    </g>
                  </g>
                </g>
                <g id="Group_6671" data-name="Group 6671" transform="translate(67.102 47.892)">
                  <g id="Group_6670" data-name="Group 6670">
                    <g id="Group_6669" data-name="Group 6669">
                      <g id="Group_6668" data-name="Group 6668">
                        <g id="Group_6667" data-name="Group 6667">
                          <g id="Group_6666" data-name="Group 6666">
                            <g id="Group_6665" data-name="Group 6665">
                              <g id="Group_6664" data-name="Group 6664">
                                <g id="Group_6663" data-name="Group 6663">
                                  <g id="Group_6662" data-name="Group 6662">
                                    <g id="Group_6661" data-name="Group 6661">
                                      <g id="Group_6660" data-name="Group 6660">
                                        <g id="Group_6659" data-name="Group 6659">
                                          <g id="Group_6658" data-name="Group 6658">
                                            <path id="Path_18477" data-name="Path 18477" d="M253.219,164.31c-.214.33-2.356.557-4.909,1.939-2.558,1.359-4.091,3.1-4.449,3.079-.173,0-.018-.478.644-1.249a12.521,12.521,0,0,1,3.462-2.68,11.205,11.205,0,0,1,4.009-1.329C252.916,163.985,253.329,164.154,253.219,164.31Z" transform="translate(-243.795 -164.047)" fill="#263238"/>
                                          </g>
                                        </g>
                                      </g>
                                    </g>
                                  </g>
                                </g>
                              </g>
                            </g>
                          </g>
                        </g>
                      </g>
                    </g>
                  </g>
                </g>
                <g id="Group_6684" data-name="Group 6684" transform="translate(42.678 57.487)">
                  <g id="Group_6683" data-name="Group 6683">
                    <g id="Group_6682" data-name="Group 6682">
                      <g id="Group_6681" data-name="Group 6681">
                        <g id="Group_6680" data-name="Group 6680">
                          <g id="Group_6679" data-name="Group 6679">
                            <g id="Group_6678" data-name="Group 6678">
                              <g id="Group_6677" data-name="Group 6677">
                                <g id="Group_6676" data-name="Group 6676">
                                  <g id="Group_6675" data-name="Group 6675">
                                    <g id="Group_6674" data-name="Group 6674">
                                      <g id="Group_6673" data-name="Group 6673">
                                        <g id="Group_6672" data-name="Group 6672">
                                          <path id="Path_18478" data-name="Path 18478" d="M234.308,172.259a2.7,2.7,0,0,1-2.532,2.786,2.579,2.579,0,0,1-2.842-2.361,2.7,2.7,0,0,1,2.528-2.788A2.581,2.581,0,0,1,234.308,172.259Z" transform="translate(-228.929 -169.887)" fill="#263238"/>
                                        </g>
                                      </g>
                                    </g>
                                  </g>
                                </g>
                              </g>
                            </g>
                          </g>
                        </g>
                      </g>
                    </g>
                  </g>
                </g>
                <g id="Group_6698" data-name="Group 6698" transform="translate(37.316 49.108)">
                  <g id="Group_6697" data-name="Group 6697">
                    <g id="Group_6696" data-name="Group 6696">
                      <g id="Group_6695" data-name="Group 6695">
                        <g id="Group_6694" data-name="Group 6694">
                          <g id="Group_6693" data-name="Group 6693">
                            <g id="Group_6692" data-name="Group 6692">
                              <g id="Group_6691" data-name="Group 6691">
                                <g id="Group_6690" data-name="Group 6690">
                                  <g id="Group_6689" data-name="Group 6689">
                                    <g id="Group_6688" data-name="Group 6688">
                                      <g id="Group_6687" data-name="Group 6687">
                                        <g id="Group_6686" data-name="Group 6686">
                                          <g id="Group_6685" data-name="Group 6685">
                                            <path id="Path_18479" data-name="Path 18479" d="M235.992,167.805c-.38.082-2.137-1.107-4.953-1.8-2.808-.711-5.1-.534-5.351-.774-.126-.108.3-.322,1.3-.409a13.793,13.793,0,0,1,4.349.416,12.332,12.332,0,0,1,3.876,1.636C235.972,167.406,236.173,167.772,235.992,167.805Z" transform="translate(-225.666 -164.787)" fill="#263238"/>
                                          </g>
                                        </g>
                                      </g>
                                    </g>
                                  </g>
                                </g>
                              </g>
                            </g>
                          </g>
                        </g>
                      </g>
                    </g>
                  </g>
                </g>
                <g id="Group_6711" data-name="Group 6711" transform="translate(57.052 50.532)">
                  <g id="Group_6710" data-name="Group 6710">
                    <g id="Group_6709" data-name="Group 6709">
                      <g id="Group_6708" data-name="Group 6708">
                        <g id="Group_6707" data-name="Group 6707">
                          <g id="Group_6706" data-name="Group 6706">
                            <g id="Group_6705" data-name="Group 6705">
                              <g id="Group_6704" data-name="Group 6704">
                                <g id="Group_6703" data-name="Group 6703">
                                  <g id="Group_6702" data-name="Group 6702">
                                    <g id="Group_6701" data-name="Group 6701">
                                      <g id="Group_6700" data-name="Group 6700">
                                        <g id="Group_6699" data-name="Group 6699">
                                          <path id="Path_18480" data-name="Path 18480" d="M239.658,189.807c-.018-.164,1.778-.522,4.692-.971.738-.1,1.436-.263,1.549-.772a3.792,3.792,0,0,0-.552-2.183q-1.114-2.662-2.336-5.588c-3.251-7.957-5.625-14.507-5.3-14.637s3.219,6.219,6.468,14.177q1.176,2.943,2.246,5.624a4.287,4.287,0,0,1,.46,2.9,1.867,1.867,0,0,1-1.191,1.116,5,5,0,0,1-1.255.207C241.5,189.91,239.672,189.971,239.658,189.807Z" transform="translate(-237.678 -165.654)" fill="#263238"/>
                                        </g>
                                      </g>
                                    </g>
                                  </g>
                                </g>
                              </g>
                            </g>
                          </g>
                        </g>
                      </g>
                    </g>
                  </g>
                </g>
                <g id="Group_6720" data-name="Group 6720" transform="translate(34.387 38.451)">
                  <g id="Group_6719" data-name="Group 6719">
                    <g id="Group_6718" data-name="Group 6718">
                      <g id="Group_6717" data-name="Group 6717">
                        <g id="Group_6716" data-name="Group 6716">
                          <g id="Group_6715" data-name="Group 6715">
                            <g id="Group_6714" data-name="Group 6714">
                              <g id="Group_6713" data-name="Group 6713">
                                <g id="Group_6712" data-name="Group 6712">
                                  <path id="Path_18481" data-name="Path 18481" d="M237.181,160.759c-.324.775-3.2.261-6.624.506-3.429.176-6.22,1.038-6.638.309-.184-.347.33-1.066,1.477-1.776a11.556,11.556,0,0,1,10.1-.621C236.724,159.741,237.322,160.391,237.181,160.759Z" transform="translate(-223.883 -158.3)" fill="#263238"/>
                                </g>
                              </g>
                            </g>
                          </g>
                        </g>
                      </g>
                    </g>
                  </g>
                </g>
                <g id="Group_6729" data-name="Group 6729" transform="translate(64.12 38.612)">
                  <g id="Group_6728" data-name="Group 6728">
                    <g id="Group_6727" data-name="Group 6727">
                      <g id="Group_6726" data-name="Group 6726">
                        <g id="Group_6725" data-name="Group 6725">
                          <g id="Group_6724" data-name="Group 6724">
                            <g id="Group_6723" data-name="Group 6723">
                              <g id="Group_6722" data-name="Group 6722">
                                <g id="Group_6721" data-name="Group 6721">
                                  <path id="Path_18482" data-name="Path 18482" d="M254.314,161.342c-.631.665-3.131.007-6.131,0-3-.085-5.533.5-6.125-.184-.26-.332.133-1,1.237-1.633a10.081,10.081,0,0,1,4.972-1.13,9.9,9.9,0,0,1,4.9,1.275C254.235,160.341,254.591,161.018,254.314,161.342Z" transform="translate(-241.98 -158.398)" fill="#263238"/>
                                </g>
                              </g>
                            </g>
                          </g>
                        </g>
                      </g>
                    </g>
                  </g>
                </g>
                <g id="Group_6732" data-name="Group 6732" transform="translate(12.152)">
                  <g id="Group_6731" data-name="Group 6731">
                    <g id="Group_6730" data-name="Group 6730">
                      <path id="Path_18483" data-name="Path 18483" d="M285,160.985a3.609,3.609,0,0,0-3.784-2.906,7.615,7.615,0,0,0,2.606-1.327,2.6,2.6,0,0,0,.894-2.634c-.485-1.461-2.354-1.761-3.835-2.182a9.713,9.713,0,0,1-4.929-3.289c-1.8-2.267-2.487-5.22-4.038-7.661a12.548,12.548,0,0,0-19.471-2.146,13.065,13.065,0,0,0-21.012,3.2,15.243,15.243,0,0,0-20.875,16.681l11.765,7.211a6.354,6.354,0,0,1,7.748-5.512c3.552,1.025,5.824,5.137,9.511,5.417,2.87.219,5.312-2.006,8.091-2.75,3.375-.905,6.937.447,9.979,2.162s5.934,3.846,9.32,4.7c3.969,1,8.2.123,11.989-1.428a12.514,12.514,0,0,0,4.438-2.745A5.543,5.543,0,0,0,285,160.985Z" transform="translate(-210.349 -134.897)" fill="#263238"/>
                    </g>
                  </g>
                </g>
                <g id="Group_6735" data-name="Group 6735" transform="translate(9.834 8.151)">
                  <g id="Group_6734" data-name="Group 6734">
                    <g id="Group_6733" data-name="Group 6733">
                      <path id="Path_18484" data-name="Path 18484" d="M225.278,157.2l53.882-.309a24.652,24.652,0,0,0-8.165-8.931,42.1,42.1,0,0,0-24.626-8.1c-8.786.092-26.368,11.284-32.561,17.515-4.955,4.988-4.807,9.181-4.807,9.181-.614,7,3.513,14.832,5.257,21.644.9,3.513,2.744,14.165,2.744,14.165h0c2.966-.092,4-2.484,3.47-5.405l-.874-11.492s9.892-7.452,4.746-20.443C223.548,164,221.777,159.251,225.278,157.2Z" transform="translate(-208.938 -139.858)" fill="#263238"/>
                    </g>
                  </g>
                </g>
                <g id="Group_6738" data-name="Group 6738" transform="translate(0 23.673)">
                  <g id="Group_6737" data-name="Group 6737">
                    <g id="Group_6736" data-name="Group 6736">
                      <path id="Path_18485" data-name="Path 18485" d="M222.608,178.629c-2.742-9.544-5.261-19.766-2.346-29.258q-.8-.034-1.6-.066l-.667.486a7.537,7.537,0,0,0-8.469,11.617,6.513,6.513,0,0,0-6.546,5.7c-.2,2.195.754,4.318,1.733,6.294s2.032,4.022,2.047,6.228-1.4,4.6-3.588,4.861a5.385,5.385,0,0,0,6.1,2.966,10.658,10.658,0,0,1-3.7,4.668c3.509,2.39,8.328,1.574,12.146-.284,2.266-1.1,4.487-2.676,5.412-5.019C224.159,184.23,223.378,181.312,222.608,178.629Z" transform="translate(-202.953 -149.306)" fill="#263238"/>
                    </g>
                  </g>
                </g>
                <g id="Group_6741" data-name="Group 6741" transform="translate(6.411 63.62)">
                  <g id="Group_6740" data-name="Group 6740">
                    <g id="Group_6739" data-name="Group 6739">
                      <path id="Path_18486" data-name="Path 18486" d="M219.218,174.113c-.325-.131-13.078-3.5-12.332,9.4s13.544,9.495,13.546,9.123S219.218,174.113,219.218,174.113Z" transform="translate(-206.855 -173.62)" fill="#ffbe9d"/>
                    </g>
                  </g>
                </g>
                <g id="Group_6744" data-name="Group 6744" transform="translate(10.85 67.869)">
                  <g id="Group_6743" data-name="Group 6743">
                    <g id="Group_6742" data-name="Group 6742">
                      <path id="Path_18487" data-name="Path 18487" d="M215.608,186.279c-.059-.038-.217.171-.587.366a2.251,2.251,0,0,1-1.679.131c-1.39-.422-2.663-2.52-2.86-4.842a7.437,7.437,0,0,1,.444-3.255,2.6,2.6,0,0,1,1.59-1.822,1.142,1.142,0,0,1,1.362.539c.2.352.128.613.2.631.038.031.265-.232.13-.759a1.431,1.431,0,0,0-.554-.779,1.7,1.7,0,0,0-1.262-.256,3.159,3.159,0,0,0-2.233,2.136,7.633,7.633,0,0,0-.572,3.641c.232,2.6,1.7,4.952,3.6,5.384a2.411,2.411,0,0,0,2.036-.462C215.6,186.591,215.654,186.3,215.608,186.279Z" transform="translate(-209.557 -176.207)" fill="#eb996e"/>
                    </g>
                  </g>
                </g>
                <g id="Group_6747" data-name="Group 6747" transform="translate(5.111 25.989)">
                  <g id="Group_6746" data-name="Group 6746">
                    <g id="Group_6745" data-name="Group 6745">
                      <path id="Path_18488" data-name="Path 18488" d="M206.329,178.139c-.036.025-.361-.486-.237-1.5a4.855,4.855,0,0,1,2.412-3.363c1.561-.95,3.718-1.183,5.911-1.428,2.17-.235,4.651-.851,5.89-2.992a10.711,10.711,0,0,0,1.01-6.772c-.307-2.167-.881-4.135-1.163-5.829-.683-3.416-.028-5.594.087-5.537a24.776,24.776,0,0,0,.608,5.394c.365,1.646,1.005,3.56,1.387,5.842a11.283,11.283,0,0,1-1.071,7.429,6.389,6.389,0,0,1-3.076,2.6,12.873,12.873,0,0,1-3.565.782c-2.256.2-4.24.357-5.673,1.13a4.676,4.676,0,0,0-2.374,2.818A11.328,11.328,0,0,0,206.329,178.139Z" transform="translate(-206.064 -150.715)" fill="#455a64"/>
                    </g>
                  </g>
                </g>
                <g id="Group_6750" data-name="Group 6750" transform="translate(1.822 24.516)">
                  <g id="Group_6749" data-name="Group 6749">
                    <g id="Group_6748" data-name="Group 6748">
                      <path id="Path_18489" data-name="Path 18489" d="M204.5,173.087c-.051.02-.286-.368-.4-1.166a5.6,5.6,0,0,1,.642-3.319,5.863,5.863,0,0,1,1.533-1.842,6.623,6.623,0,0,1,2.478-1.157,7.128,7.128,0,0,0,2.45-1.005,2.962,2.962,0,0,0,.971-2.366c.038-.982-.11-2.018-.087-3.053a15.154,15.154,0,0,1,.33-2.929,14.1,14.1,0,0,1,1.85-4.612,3.562,3.562,0,0,1,2.859-1.817c.854.008,1.211.394,1.173.427a6.467,6.467,0,0,0-1.143-.036,3.28,3.28,0,0,0-2.285,1.8,14.886,14.886,0,0,0-1.544,4.415,15.323,15.323,0,0,0-.253,2.755c-.013.951.145,1.963.107,3.087a3.916,3.916,0,0,1-1.362,3.1A7.62,7.62,0,0,1,209,166.5a5.337,5.337,0,0,0-3.639,2.458A7.233,7.233,0,0,0,204.5,173.087Z" transform="translate(-204.062 -149.819)" fill="#455a64"/>
                    </g>
                  </g>
                </g>
                <g id="Group_6753" data-name="Group 6753" transform="translate(20.371 6.966)">
                  <g id="Group_6752" data-name="Group 6752">
                    <g id="Group_6751" data-name="Group 6751">
                      <path id="Path_18490" data-name="Path 18490" d="M272.752,145.934c.079.018-.976.7-2.667-.094a7.58,7.58,0,0,1-2.435-2.075,10.471,10.471,0,0,0-3-2.657,8.961,8.961,0,0,0-9.731.644c-1.6,1.158-3.008,2.773-4.863,4.125a8.351,8.351,0,0,1-3.23,1.493,6.992,6.992,0,0,1-3.674-.348c-2.326-.835-4.162-2.261-6.169-2.989a16.269,16.269,0,0,0-6.059-1.091,15.993,15.993,0,0,0-9.772,3.363,17.606,17.606,0,0,0-4.613,5.405c-.805,1.5-1.1,2.41-1.18,2.382-.033-.01.013-.245.13-.687a13.5,13.5,0,0,1,.7-1.871,16.7,16.7,0,0,1,4.52-5.786,16.452,16.452,0,0,1,10.2-3.733,16.954,16.954,0,0,1,6.424,1.1c2.165.787,4.038,2.216,6.148,2.959a6,6,0,0,0,3.156.314,7.4,7.4,0,0,0,2.844-1.311c1.737-1.24,3.181-2.857,4.893-4.073a9.361,9.361,0,0,1,5.639-1.866,9.973,9.973,0,0,1,4.991,1.354,10.7,10.7,0,0,1,3.072,2.915,7.618,7.618,0,0,0,2.183,2.088A3.683,3.683,0,0,0,272.752,145.934Z" transform="translate(-215.352 -139.137)" fill="#455a64"/>
                    </g>
                  </g>
                </g>
              </g>
            </g>
            <g id="Group_6769" data-name="Group 6769" transform="translate(51.618 78.066)">
              <g id="Group_6768" data-name="Group 6768">
                <g id="Group_6767" data-name="Group 6767">
                  <g id="Group_6766" data-name="Group 6766">
                    <g id="Group_6765" data-name="Group 6765">
                      <g id="Group_6764" data-name="Group 6764">
                        <g id="Group_6763" data-name="Group 6763">
                          <g id="Group_6762" data-name="Group 6762">
                            <g id="Group_6761" data-name="Group 6761">
                              <g id="Group_6760" data-name="Group 6760">
                                <g id="Group_6759" data-name="Group 6759">
                                  <g id="Group_6758" data-name="Group 6758">
                                    <g id="Group_6757" data-name="Group 6757">
                                      <g id="Group_6756" data-name="Group 6756">
                                        <path id="Path_18491" data-name="Path 18491" d="M234.61,182.415c.409-.1.879,2.663,3.57,4.224s5.576.762,5.663,1.145c.067.166-.565.646-1.8.889a6.971,6.971,0,0,1-4.7-.8,6.062,6.062,0,0,1-2.816-3.572C234.227,183.166,234.419,182.43,234.61,182.415Z" transform="translate(-234.371 -182.413)" fill="#263238"/>
                                      </g>
                                    </g>
                                  </g>
                                </g>
                              </g>
                            </g>
                          </g>
                        </g>
                      </g>
                    </g>
                  </g>
                </g>
              </g>
            </g>
          </g>
          <g id="Group_6888" data-name="Group 6888" transform="translate(24.183 275.773)">
            <g id="Group_6772" data-name="Group 6772" transform="translate(233.587 52.964)">
              <g id="Group_6771" data-name="Group 6771">
                <path id="Path_18492" data-name="Path 18492" d="M349.451,341.023a25.258,25.258,0,0,0-18.151-5.99l-11.1,35.284c8.136.357,16.25,4.554,24.107,2.4,6.306-1.727,11.091-7.653,11.967-14.131A20.428,20.428,0,0,0,349.451,341.023Z" transform="translate(-320.2 -334.988)" fill="#2074a5"/>
              </g>
            </g>
            <g id="Group_6774" data-name="Group 6774" transform="translate(235.595 51.694)">
              <g id="Group_6773" data-name="Group 6773">
                <path id="Path_18493" data-name="Path 18493" d="M330.711,334.7c.021-.284,1.206-.506,3.365-.485a27.372,27.372,0,0,1,9.087,1.712,24.708,24.708,0,0,1,11.064,8.594,22.9,22.9,0,0,1,3.692,7.651,20.175,20.175,0,0,1,.274,9.256,18.691,18.691,0,0,1-4.035,8.423,17.612,17.612,0,0,1-7.163,4.968,25.614,25.614,0,0,1-13.965.9,43.5,43.5,0,0,1-8.706-2.7c-1.957-.843-2.98-1.462-2.9-1.743s1.286-.2,3.366.148c2.08.329,5.044.978,8.657,1.3a24.889,24.889,0,0,0,12.064-1.561,14.222,14.222,0,0,0,5.432-4.007A15.161,15.161,0,0,0,354,360.57a18.185,18.185,0,0,0-3-13.791,23.714,23.714,0,0,0-9.046-8.08,41.071,41.071,0,0,0-8.1-2.834C331.832,335.346,330.686,335,330.711,334.7Z" transform="translate(-321.422 -334.214)" fill="#f5f5f5"/>
              </g>
            </g>
            <g id="Group_6865" data-name="Group 6865" transform="translate(117.847 184.527)">
              <g id="Group_6864" data-name="Group 6864">
                <g id="Group_6784" data-name="Group 6784">
                  <g id="Group_6783" data-name="Group 6783">
                    <g id="Group_6782" data-name="Group 6782">
                      <g id="Group_6781" data-name="Group 6781">
                        <g id="Group_6780" data-name="Group 6780">
                          <g id="Group_6779" data-name="Group 6779">
                            <g id="Group_6778" data-name="Group 6778">
                              <g id="Group_6777" data-name="Group 6777">
                                <g id="Group_6776" data-name="Group 6776">
                                  <g id="Group_6775" data-name="Group 6775">
                                    <path id="Path_18494" data-name="Path 18494" d="M273.908,415.065l-24.155,67.668,84.036,30.48c2.418-8.2-35.21-40.091-35.21-40.091L315.834,430.4Z" transform="translate(-249.753 -415.065)" fill="#2074a5"/>
                                  </g>
                                </g>
                              </g>
                            </g>
                          </g>
                        </g>
                      </g>
                    </g>
                  </g>
                </g>
                <g id="Group_6794" data-name="Group 6794" transform="translate(20.347 44.962)" opacity="0.6">
                  <g id="Group_6793" data-name="Group 6793">
                    <g id="Group_6792" data-name="Group 6792">
                      <g id="Group_6791" data-name="Group 6791">
                        <g id="Group_6790" data-name="Group 6790">
                          <g id="Group_6789" data-name="Group 6789">
                            <g id="Group_6788" data-name="Group 6788">
                              <g id="Group_6787" data-name="Group 6787">
                                <g id="Group_6786" data-name="Group 6786">
                                  <g id="Group_6785" data-name="Group 6785">
                                    <path id="Path_18495" data-name="Path 18495" d="M265.952,442.46a3.651,3.651,0,0,0-3.792,3.056,3.51,3.51,0,0,0,3,3.787c1.786.176,3.982-1.464,4-3.258s-1.779-3.848-3.554-3.591" transform="translate(-262.138 -442.432)" fill="#fff"/>
                                  </g>
                                </g>
                              </g>
                            </g>
                          </g>
                        </g>
                      </g>
                    </g>
                  </g>
                </g>
                <g id="Group_6803" data-name="Group 6803" transform="translate(0 60.838)">
                  <g id="Group_6802" data-name="Group 6802">
                    <g id="Group_6801" data-name="Group 6801">
                      <g id="Group_6800" data-name="Group 6800">
                        <g id="Group_6799" data-name="Group 6799">
                          <g id="Group_6798" data-name="Group 6798">
                            <g id="Group_6797" data-name="Group 6797">
                              <g id="Group_6796" data-name="Group 6796">
                                <g id="Group_6795" data-name="Group 6795">
                                  <path id="Path_18496" data-name="Path 18496" d="M249.753,458.925l2.438-6.83,79.826,31.843s3.153,2.985,1.773,5.466Z" transform="translate(-249.753 -452.095)" fill="#fff"/>
                                </g>
                              </g>
                            </g>
                          </g>
                        </g>
                      </g>
                    </g>
                  </g>
                </g>
                <g id="Group_6813" data-name="Group 6813" transform="translate(40.999 56.887)">
                  <g id="Group_6812" data-name="Group 6812">
                    <g id="Group_6811" data-name="Group 6811">
                      <g id="Group_6810" data-name="Group 6810">
                        <g id="Group_6809" data-name="Group 6809">
                          <g id="Group_6808" data-name="Group 6808">
                            <g id="Group_6807" data-name="Group 6807">
                              <g id="Group_6806" data-name="Group 6806">
                                <g id="Group_6805" data-name="Group 6805">
                                  <g id="Group_6804" data-name="Group 6804">
                                    <path id="Path_18497" data-name="Path 18497" d="M284.053,450.927c-.163.4-2.282-.153-4.779.434-2.514.522-4.2,1.921-4.516,1.622-.35-.217,1.152-2.446,4.188-3.105C281.975,449.192,284.278,450.582,284.053,450.927Z" transform="translate(-274.708 -449.69)" fill="#263238"/>
                                  </g>
                                </g>
                              </g>
                            </g>
                          </g>
                        </g>
                      </g>
                    </g>
                  </g>
                </g>
                <g id="Group_6823" data-name="Group 6823" transform="translate(50.121 64.453)">
                  <g id="Group_6822" data-name="Group 6822">
                    <g id="Group_6821" data-name="Group 6821">
                      <g id="Group_6820" data-name="Group 6820">
                        <g id="Group_6819" data-name="Group 6819">
                          <g id="Group_6818" data-name="Group 6818">
                            <g id="Group_6817" data-name="Group 6817">
                              <g id="Group_6816" data-name="Group 6816">
                                <g id="Group_6815" data-name="Group 6815">
                                  <g id="Group_6814" data-name="Group 6814">
                                    <path id="Path_18498" data-name="Path 18498" d="M287.975,454.807c-.051.432-2.082.486-4.1,1.715-2.059,1.171-3.092,2.919-3.493,2.755-.409-.076.177-2.583,2.722-4.065C285.633,453.71,288.109,454.415,287.975,454.807Z" transform="translate(-280.26 -454.295)" fill="#263238"/>
                                  </g>
                                </g>
                              </g>
                            </g>
                          </g>
                        </g>
                      </g>
                    </g>
                  </g>
                </g>
                <g id="Group_6833" data-name="Group 6833" transform="translate(58.836 71.325)">
                  <g id="Group_6832" data-name="Group 6832">
                    <g id="Group_6831" data-name="Group 6831">
                      <g id="Group_6830" data-name="Group 6830">
                        <g id="Group_6829" data-name="Group 6829">
                          <g id="Group_6828" data-name="Group 6828">
                            <g id="Group_6827" data-name="Group 6827">
                              <g id="Group_6826" data-name="Group 6826">
                                <g id="Group_6825" data-name="Group 6825">
                                  <g id="Group_6824" data-name="Group 6824">
                                    <path id="Path_18499" data-name="Path 18499" d="M285.745,464.483c-.406-.048-.232-2.305,1.636-4.17s4.112-2.064,4.163-1.658c.108.421-1.574,1.175-3.086,2.731C286.911,462.9,286.167,464.592,285.745,464.483Z" transform="translate(-285.564 -458.478)" fill="#263238"/>
                                  </g>
                                </g>
                              </g>
                            </g>
                          </g>
                        </g>
                      </g>
                    </g>
                  </g>
                </g>
                <g id="Group_6843" data-name="Group 6843" transform="translate(44.293 44.52)">
                  <g id="Group_6842" data-name="Group 6842">
                    <g id="Group_6841" data-name="Group 6841">
                      <g id="Group_6840" data-name="Group 6840">
                        <g id="Group_6839" data-name="Group 6839">
                          <g id="Group_6838" data-name="Group 6838">
                            <g id="Group_6837" data-name="Group 6837">
                              <g id="Group_6836" data-name="Group 6836">
                                <g id="Group_6835" data-name="Group 6835">
                                  <g id="Group_6834" data-name="Group 6834">
                                    <path id="Path_18500" data-name="Path 18500" d="M285.615,445.592c-.306.314-1.985-.936-4.36-1.62-2.363-.731-4.451-.608-4.536-1.037-.13-.383,2.182-1.262,4.972-.419C284.483,443.34,285.935,445.344,285.615,445.592Z" transform="translate(-276.713 -442.163)" fill="#263238"/>
                                  </g>
                                </g>
                              </g>
                            </g>
                          </g>
                        </g>
                      </g>
                    </g>
                  </g>
                </g>
                <g id="Group_6853" data-name="Group 6853" transform="translate(43.686 26.479)">
                  <g id="Group_6852" data-name="Group 6852">
                    <g id="Group_6851" data-name="Group 6851">
                      <g id="Group_6850" data-name="Group 6850">
                        <g id="Group_6849" data-name="Group 6849">
                          <g id="Group_6848" data-name="Group 6848">
                            <g id="Group_6847" data-name="Group 6847">
                              <g id="Group_6846" data-name="Group 6846">
                                <g id="Group_6845" data-name="Group 6845">
                                  <g id="Group_6844" data-name="Group 6844">
                                    <path id="Path_18501" data-name="Path 18501" d="M287.469,441.958c-.057.169-1.771-.164-4.2-1.549a20.084,20.084,0,0,1-3.912-2.951A21.242,21.242,0,0,1,277.4,435.3a5.42,5.42,0,0,1-.912-1.451,1.9,1.9,0,0,1,.6-2.251,2.4,2.4,0,0,1,2.139-.286,5.778,5.778,0,0,1,1.5.792,15.725,15.725,0,0,1,5.248,5.8c1.3,2.512,1.406,4.286,1.237,4.314-.235.069-.718-1.559-2.162-3.771a17.858,17.858,0,0,0-2.985-3.477,16.648,16.648,0,0,0-2.147-1.622c-.805-.555-1.559-.836-1.932-.524-.138.12-.169.177-.079.506a4.506,4.506,0,0,0,.674,1.06,23.924,23.924,0,0,0,1.761,2.078,24.7,24.7,0,0,0,3.5,3.034C286.012,441.05,287.556,441.738,287.469,441.958Z" transform="translate(-276.343 -431.182)" fill="#263238"/>
                                  </g>
                                </g>
                              </g>
                            </g>
                          </g>
                        </g>
                      </g>
                    </g>
                  </g>
                </g>
                <g id="Group_6863" data-name="Group 6863" transform="translate(53.877 25.367)">
                  <g id="Group_6862" data-name="Group 6862">
                    <g id="Group_6861" data-name="Group 6861">
                      <g id="Group_6860" data-name="Group 6860">
                        <g id="Group_6859" data-name="Group 6859">
                          <g id="Group_6858" data-name="Group 6858">
                            <g id="Group_6857" data-name="Group 6857">
                              <g id="Group_6856" data-name="Group 6856">
                                <g id="Group_6855" data-name="Group 6855">
                                  <g id="Group_6854" data-name="Group 6854">
                                    <path id="Path_18502" data-name="Path 18502" d="M282.733,442.788c-.169.01-.45-1.755.363-4.469a14.487,14.487,0,0,1,4.244-6.565A3.7,3.7,0,0,1,290.8,430.6a2.089,2.089,0,0,1,1.331,1.812,5.991,5.991,0,0,1-.128,1.7,9.858,9.858,0,0,1-1.025,2.836,10.278,10.278,0,0,1-3.373,3.695c-2.433,1.582-4.323,1.452-4.308,1.3-.062-.255,1.656-.527,3.672-2.165a10.287,10.287,0,0,0,2.765-3.471,9.279,9.279,0,0,0,.807-2.459c.192-.941.118-1.783-.25-1.814a2.555,2.555,0,0,0-1.971.846,14.663,14.663,0,0,0-1.871,1.9,16.02,16.02,0,0,0-2.336,3.9C283.1,441.109,282.978,442.806,282.733,442.788Z" transform="translate(-282.546 -430.505)" fill="#263238"/>
                                  </g>
                                </g>
                              </g>
                            </g>
                          </g>
                        </g>
                      </g>
                    </g>
                  </g>
                </g>
              </g>
            </g>
            <g id="Group_6866" data-name="Group 6866" transform="translate(0 2.136)">
              <path id="Path_18503" data-name="Path 18503" d="M238.6,305.7c-12.748.3-24.84,2.1-33.62,11.345-11.645,12.263-26.046,29.731-26.864,41.846C176.9,377,187.819,382.384,195.8,386.8a22.131,22.131,0,0,0,11.578,2.676l147.341-1.117,4.625-24.958-95.294-23.486L268,304.05Z" transform="translate(-178.024 -304.05)" fill="#263238"/>
            </g>
            <g id="Group_6867" data-name="Group 6867" transform="translate(86.022)">
              <path id="Path_18504" data-name="Path 18504" d="M234.34,304.886l46.349-2.136s80.069,4.451,97.147,20.108,14.946,33.445,9.251,50.525S331.226,499.7,331.226,499.7s4.068,6.943,1.779,13.876a18.319,18.319,0,0,1-13.086,12.462l-44.557-16.375s-6.048-2.136-1.778-7.829,7.116-6.761,7.116-6.761V483.684s15.657-28.464,17.08-32.379,16.429-61.847,16.429-61.847l9.966-17.129s-24.107-11.335-45-19.551l-48.8-12.026Z" transform="translate(-230.382 -302.75)" fill="#263238"/>
            </g>
            <g id="Group_6869" data-name="Group 6869" transform="translate(135.817 193.587)">
              <g id="Group_6868" data-name="Group 6868">
                <path id="Path_18505" data-name="Path 18505" d="M290.029,431.838c-.087.108-1.493-1-3.909-2.563a52.849,52.849,0,0,0-20.806-7.909c-2.841-.439-4.628-.542-4.623-.682a17.272,17.272,0,0,1,4.7.082,44.369,44.369,0,0,1,21.067,8.009A17.312,17.312,0,0,1,290.029,431.838Z" transform="translate(-260.691 -420.579)" fill="#455a64"/>
              </g>
            </g>
            <g id="Group_6871" data-name="Group 6871" transform="translate(172.27 176.436)">
              <g id="Group_6870" data-name="Group 6870">
                <path id="Path_18506" data-name="Path 18506" d="M298.034,430.727A15.424,15.424,0,0,1,295.445,428c-1.5-1.765-3.5-4.265-5.6-7.114s-3.89-5.5-5.126-7.464a15.5,15.5,0,0,1-1.832-3.281,17.384,17.384,0,0,1,2.331,2.941c1.556,2.136,3.342,4.589,5.317,7.3,2,2.688,3.807,5.124,5.384,7.244A17.486,17.486,0,0,1,298.034,430.727Z" transform="translate(-282.879 -410.14)" fill="#455a64"/>
              </g>
            </g>
            <g id="Group_6873" data-name="Group 6873" transform="translate(178.613 53.912)">
              <g id="Group_6872" data-name="Group 6872">
                <path id="Path_18507" data-name="Path 18507" d="M311.881,335.59c.026.138-1.636.491-4.221,1.351a44.334,44.334,0,0,0-17.849,11.142c-1.906,1.947-2.954,3.284-3.067,3.2a15.367,15.367,0,0,1,2.624-3.611,37.9,37.9,0,0,1,18.117-11.31A15.265,15.265,0,0,1,311.881,335.59Z" transform="translate(-286.739 -335.564)" fill="#455a64"/>
              </g>
            </g>
            <g id="Group_6875" data-name="Group 6875" transform="translate(158.17 45.724)">
              <g id="Group_6874" data-name="Group 6874">
                <path id="Path_18508" data-name="Path 18508" d="M274.3,416.146a4.281,4.281,0,0,1,.184-.963c.177-.713.4-1.612.683-2.717.659-2.458,1.564-5.828,2.67-9.941,2.361-8.473,5.571-19.99,9.118-32.716,1.848-6.38,3.435-12.467,5.218-17.977a37.507,37.507,0,0,1,8.391-12.8,48.051,48.051,0,0,1,7.965-6.565c1.03-.652,1.835-1.15,2.4-1.449a4.518,4.518,0,0,1,.879-.434c.039.067-1.114.759-3.094,2.157A52.786,52.786,0,0,0,301,339.45a37.715,37.715,0,0,0-8.088,12.654c-1.71,5.433-3.294,11.589-5.137,17.949-3.639,12.7-6.933,24.186-9.358,32.637-1.213,4.084-2.206,7.429-2.929,9.867l-.84,2.671A4.157,4.157,0,0,1,274.3,416.146Z" transform="translate(-274.296 -330.58)" fill="#455a64"/>
              </g>
            </g>
            <g id="Group_6877" data-name="Group 6877" transform="translate(113.627 9.056)">
              <g id="Group_6876" data-name="Group 6876">
                <path id="Path_18509" data-name="Path 18509" d="M250.736,347.05c-.235.02-1.209-8.647-2.175-19.356s-1.559-19.411-1.324-19.433,1.209,8.644,2.177,19.357S250.971,347.027,250.736,347.05Z" transform="translate(-247.185 -308.262)" fill="#455a64"/>
              </g>
            </g>
            <g id="Group_6879" data-name="Group 6879" transform="translate(18.665 54.262)">
              <g id="Group_6878" data-name="Group 6878">
                <path id="Path_18510" data-name="Path 18510" d="M210.753,352.5c-.13.064-.846-1.339-2.3-3.394a33.352,33.352,0,0,0-15.222-11.893c-2.346-.91-3.879-1.265-3.849-1.406a12.52,12.52,0,0,1,4.053.836,29.221,29.221,0,0,1,15.522,12.128A12.486,12.486,0,0,1,210.753,352.5Z" transform="translate(-189.385 -335.778)" fill="#455a64"/>
              </g>
            </g>
            <g id="Group_6881" data-name="Group 6881" transform="translate(28.512 31.448)">
              <g id="Group_6880" data-name="Group 6880">
                <path id="Path_18511" data-name="Path 18511" d="M235.3,329.963c-.084.131-2.047-1.129-5.451-2.678a51.373,51.373,0,0,0-28.484-4.086c-3.7.527-5.941,1.186-5.984,1.035a6.164,6.164,0,0,1,1.536-.583,33.562,33.562,0,0,1,4.35-1.05,46.616,46.616,0,0,1,28.84,4.139,33.568,33.568,0,0,1,3.881,2.231A6.135,6.135,0,0,1,235.3,329.963Z" transform="translate(-195.378 -321.891)" fill="#455a64"/>
              </g>
            </g>
            <g id="Group_6883" data-name="Group 6883" transform="translate(66.755 39.15)">
              <g id="Group_6882" data-name="Group 6882">
                <path id="Path_18512" data-name="Path 18512" d="M331.315,348.893a6.2,6.2,0,0,1-1.155-.192c-.831-.181-1.919-.414-3.271-.708l-12.01-2.7c-10.142-2.272-24.173-5.317-39.725-8.4s-29.69-5.607-39.932-7.37l-12.132-2.082-3.3-.59a6.255,6.255,0,0,1-1.14-.263,5.636,5.636,0,0,1,1.167.092c.843.108,1.947.251,3.32.432,2.882.388,7.043,1.005,12.177,1.812,10.273,1.612,24.432,4.048,40,7.129s29.583,6.225,39.692,8.648c5.057,1.211,9.14,2.226,11.952,2.965l3.233.864A5.966,5.966,0,0,1,331.315,348.893Z" transform="translate(-218.655 -326.579)" fill="#455a64"/>
              </g>
            </g>
            <g id="Group_6885" data-name="Group 6885" transform="translate(60.387 19.573)">
              <g id="Group_6884" data-name="Group 6884">
                <path id="Path_18513" data-name="Path 18513" d="M240.414,337.322a51.094,51.094,0,0,0-2.041-4.71A20.707,20.707,0,0,0,235,328.253a54.377,54.377,0,0,0-5.159-4.461,77.779,77.779,0,0,0-10.554-6.554,34.184,34.184,0,0,1-4.508-2.566,28.483,28.483,0,0,1,4.783,2.026,61.148,61.148,0,0,1,10.8,6.416,47.7,47.7,0,0,1,5.2,4.592,19.419,19.419,0,0,1,3.335,4.622,16.1,16.1,0,0,1,1.318,3.6A4.062,4.062,0,0,1,240.414,337.322Z" transform="translate(-214.779 -314.664)" fill="#455a64"/>
              </g>
            </g>
            <g id="Group_6887" data-name="Group 6887" transform="translate(243.062 64.501)">
              <g id="Group_6886" data-name="Group 6886">
                <path id="Path_18514" data-name="Path 18514" d="M333.032,342.018c.189.182-2.277,2.673-4.2,6.462-1.958,3.767-2.545,7.221-2.8,7.173-.212,0,.01-3.641,2.044-7.566C330.078,344.149,332.909,341.848,333.032,342.018Z" transform="translate(-325.967 -342.01)" fill="#263238"/>
              </g>
            </g>
          </g>
        </g>
        <g id="Group_6891" data-name="Group 6891" transform="translate(168.853 171.914)" opacity="0.3">
          <g id="Group_6890" data-name="Group 6890">
            <path id="Path_18515" data-name="Path 18515" d="M266.079,239.535l10.546,74.294.526,1.188A159.427,159.427,0,0,0,266.079,239.535Z" transform="translate(-266.079 -239.535)"/>
          </g>
        </g>
        <g id="Group_6904" data-name="Group 6904" transform="translate(106.649 212.692)">
          <g id="Group_6892" data-name="Group 6892">
            <path id="Path_18516" data-name="Path 18516" d="M347.221,266.272l-34.295,59.981-84.5,1.835-.21,3.828,81.817-.608,2.594-.089,86.4.171,17.46-30.11,22.3-31.965a3.154,3.154,0,0,0-2.6-4.96l-86.243.329A3.155,3.155,0,0,0,347.221,266.272Z" transform="translate(-228.218 -264.355)" fill="#e0e0e0"/>
          </g>
          <g id="Group_6900" data-name="Group 6900" transform="translate(160.262 36.925)">
            <g id="Group_6893" data-name="Group 6893">
              <path id="Path_18517" data-name="Path 18517" d="M353.77,286.83s4.439,4.068,3.738,7.526-.467,6.026-3.738,6.26a4.976,4.976,0,0,1-4.439,5.141s1,5.42-5.308,6.355c0,0-1.935,5.8-5.908,4.395a35.1,35.1,0,0,1-6.544-3.038l-1.168-2.1s-5.852-2.2-4.41-5.505c.874-2.006,3.9-2.529,3.9-2.529s-1.26-2.943.373-5.137c1.4-1.886,5.974-.329,5.974-.329a6.438,6.438,0,0,1,1.447-4.47c1.554-1.845,8.829,3.168,8.829,3.168l3.968-4.738Z" transform="translate(-325.764 -286.83)" fill="#ffbe9d"/>
            </g>
            <g id="Group_6895" data-name="Group 6895" transform="translate(4.127 16.486)">
              <g id="Group_6894" data-name="Group 6894">
                <path id="Path_18518" data-name="Path 18518" d="M342.407,305.66c-.125.2-3.388-1.6-7.29-4.025s-6.963-4.553-6.838-4.755,3.386,1.6,7.29,4.027S342.532,305.459,342.407,305.66Z" transform="translate(-328.276 -296.865)" fill="#eb996e"/>
              </g>
            </g>
            <g id="Group_6897" data-name="Group 6897" transform="translate(10.474 11.018)">
              <g id="Group_6896" data-name="Group 6896">
                <path id="Path_18519" data-name="Path 18519" d="M345.232,301.445c-.122.2-3.151-1.4-6.766-3.578s-6.445-4.111-6.324-4.313,3.15,1.4,6.766,3.58S345.353,301.243,345.232,301.445Z" transform="translate(-332.139 -293.537)" fill="#eb996e"/>
              </g>
            </g>
            <g id="Group_6899" data-name="Group 6899" transform="translate(16.332 7.005)">
              <g id="Group_6898" data-name="Group 6898">
                <path id="Path_18520" data-name="Path 18520" d="M335.707,291.12c.131-.241,2.842,1.188,6,3.186a54.089,54.089,0,0,1,5.642,3.744c-.12.279-2.941-1-6.1-3.018S335.613,291.3,335.707,291.12Z" transform="translate(-335.704 -291.094)" fill="#eb996e"/>
              </g>
            </g>
          </g>
          <g id="Group_6902" data-name="Group 6902" transform="translate(88.17 1.833)">
            <g id="Group_6901" data-name="Group 6901">
              <path id="Path_18521" data-name="Path 18521" d="M404.3,265.912a1.56,1.56,0,0,1-.412.043l-1.212.044q-1.705.027-4.666.079l-17.157.135c-14.55.034-34.533.077-56.606.126h-4.119a3.4,3.4,0,0,0-3.141,1.484q-1.952,3.517-3.843,6.927c-2.525,4.556-4.962,8.954-7.283,13.145-4.651,8.358-8.844,15.887-12.376,22.236-3.524,6.266-6.388,11.359-8.409,14.954-.982,1.709-1.758,3.061-2.323,4.043-.253.422-.458.764-.623,1.042-.145.233-.225.348-.24.34a1.711,1.711,0,0,1,.163-.383c.148-.289.327-.644.55-1.081q.8-1.508,2.183-4.125c1.963-3.626,4.746-8.763,8.172-15.087,3.488-6.375,7.623-13.935,12.215-22.326,2.307-4.2,4.73-8.6,7.239-13.17q1.9-3.435,3.863-6.983a4.258,4.258,0,0,1,3.853-1.87l4.119,0,56.606.125c7.191.057,13.033.105,17.157.136l4.666.081c.491.018.889.033,1.212.043A1.5,1.5,0,0,1,404.3,265.912Z" transform="translate(-281.884 -265.471)" fill="#263238"/>
            </g>
          </g>
          <g id="Group_6903" data-name="Group 6903" transform="translate(148.615 30.941)">
            <path id="Path_18522" data-name="Path 18522" d="M319.844,284.672a3.645,3.645,0,1,0,5.446-.642A3.895,3.895,0,0,0,319.844,284.672Z" transform="translate(-318.675 -283.188)" fill="#fff"/>
          </g>
        </g>
      </g>
      <g id="Group_6907" data-name="Group 6907" transform="translate(15.003 219.888)" opacity="0.3">
        <g id="Group_6906" data-name="Group 6906">
          <path id="Path_18523" data-name="Path 18523" d="M174.012,270.768c-.733.3-1.567.785-1.576,1.572a1.446,1.446,0,0,0,1.214,1.29c.626.135,2.885-.8,3.509-.94,8.88-1.96,16.2-.082,24.667,3.245l.274-.281C198.725,268.527,183.565,266.92,174.012,270.768Z" transform="translate(-172.436 -268.735)"/>
        </g>
      </g>
    </g>
    <g id="Floor" transform="translate(131.433 760.853)">
      <g id="Group_6909" data-name="Group 6909">
        <g id="Group_6908" data-name="Group 6908">
          <path id="Path_18524" data-name="Path 18524" d="M621.5,473.125c0,.237-114.115.427-254.851.427-140.785,0-254.876-.191-254.876-.427s114.091-.427,254.876-.427C507.38,472.7,621.5,472.89,621.5,473.125Z" transform="translate(-111.768 -472.698)" fill="#263238"/>
        </g>
      </g>
    </g>
    <g id="Speech_Bubble" data-name="Speech Bubble" transform="translate(387.173 247.036)">
      <g id="Group_6963" data-name="Group 6963">
        <g id="Group_6955" data-name="Group 6955">
          <g id="Group_6954" data-name="Group 6954">
            <g id="Group_6953" data-name="Group 6953">
              <g id="Group_6950" data-name="Group 6950" transform="translate(0 0.312)">
                <path id="Path_18557" data-name="Path 18557" d="M267.428,180.658l23.2,2.556a54.407,54.407,0,1,1-8.162,17.7l-.015.028Z" transform="translate(-267.428 -160.146)" fill="#fafafa"/>
              </g>
              <g id="Group_6952" data-name="Group 6952">
                <g id="Group_6951" data-name="Group 6951">
                  <path id="Path_18558" data-name="Path 18558" d="M267.428,180.78c.912,1.208,5.6,7.428,15.2,20.156l-.358.021.016-.026a.212.212,0,0,1,.391.158,54.1,54.1,0,0,0,.36,28.048,48.487,48.487,0,0,0,3,7.981c.66,1.309,1.286,2.662,2,3.991q1.2,1.92,2.44,3.89a54.257,54.257,0,0,0,33.092,22.224,53.56,53.56,0,0,0,22.605.1A54.73,54.73,0,0,0,367.815,257.3a52.9,52.9,0,0,0,15.693-19.26,53.871,53.871,0,0,0,5.384-24.785,54.774,54.774,0,0,0-6.085-23.529,52.952,52.952,0,0,0-14.683-17.706,54.564,54.564,0,0,0-38.847-11.1,58.364,58.364,0,0,0-17.006,4.7A53.989,53.989,0,0,0,290.8,183.455a.211.211,0,0,1-.191.085l-23.184-2.76,23.228,2.353-.189.085a54.106,54.106,0,0,1,21.554-18.133,58.727,58.727,0,0,1,17.184-4.83,55.18,55.18,0,0,1,39.4,11.146,53.652,53.652,0,0,1,14.931,17.947,55.465,55.465,0,0,1,6.2,23.887,54.63,54.63,0,0,1-5.461,25.18,53.67,53.67,0,0,1-15.946,19.561,55.447,55.447,0,0,1-21.984,10.157,54.223,54.223,0,0,1-22.944-.141,54.867,54.867,0,0,1-33.483-22.61q-1.242-2-2.455-3.95c-.716-1.346-1.346-2.717-2.008-4.047a49,49,0,0,1-3-8.083,54.289,54.289,0,0,1-.194-28.319l.393.158-.015.026a.211.211,0,0,1-.288.084.252.252,0,0,1-.071-.061C272.9,188.3,268.318,182,267.428,180.78Z" transform="translate(-267.428 -159.956)" fill="#263238"/>
                </g>
              </g>
            </g>
          </g>
        </g>
        <g id="Group_6962" data-name="Group 6962" transform="translate(47.228 34.931)">
          <g id="Group_6958" data-name="Group 6958">
            <g id="Group_6957" data-name="Group 6957">
              <g id="Group_6956" data-name="Group 6956">
                <path id="Path_18559" data-name="Path 18559" d="M296.547,181.59a5.443,5.443,0,0,1,.041.751c.012.539.026,1.234.044,2.106.021,1.9.056,4.553.1,7.9.048,6.812.112,16.415.189,27.91l-.37-.37,38.66-.058c.1-.092-.807.807-.424.421v-5.256q0-2.61,0-5.169.007-5.116.012-9.994c.016-6.488.031-12.613.043-18.238l.37.37c-11.5-.077-21.1-.143-27.91-.187-3.343-.043-6-.074-7.9-.1l-2.1-.044a5.456,5.456,0,0,1-.751-.041,3.867,3.867,0,0,1,.669-.043l2.034-.041,7.814-.1c6.869-.044,16.553-.11,28.147-.187l.37,0,0,.373c.012,5.625.026,11.75.043,18.238q0,4.87.011,9.994,0,2.561,0,5.169,0,1.306,0,2.622v2.634c.381-.378-.521.529-.432.435l-38.66-.057-.373,0,0-.37c.077-11.593.141-21.278.189-28.147.041-3.307.072-5.936.1-7.812.018-.843.033-1.515.043-2.034A3.67,3.67,0,0,1,296.547,181.59Z" transform="translate(-296.174 -181.217)" fill="#263238"/>
              </g>
            </g>
          </g>
          <g id="Group_6961" data-name="Group 6961" transform="translate(7.695 6.744)">
            <g id="Group_6960" data-name="Group 6960">
              <g id="Group_6959" data-name="Group 6959">
                <path id="Path_18560" data-name="Path 18560" d="M328.026,185.342c.557.442-4.646,7.932-11.617,16.73-1.393,1.756-2.75,3.43-4.01,4.955l-.826,1-.925-.833c-6.039-5.438-10.137-9.613-9.766-10.043s5.1,3.018,11.359,8.2l-1.753.166c1.2-1.576,2.515-3.279,3.909-5.037C321.367,191.679,327.471,184.9,328.026,185.342Z" transform="translate(-300.858 -185.322)" fill="#2074a5"/>
              </g>
            </g>
          </g>
        </g>
      </g>
    </g>
  </g>
</svg>
