<svg xmlns="http://www.w3.org/2000/svg" width="129" height="129" viewBox="0 0 129 129">
  <g id="Group_6996" data-name="Group 6996" transform="translate(-4548 -3180)">
    <circle id="Ellipse_19" data-name="Ellipse 19" cx="64.5" cy="64.5" r="64.5" transform="translate(4548 3180)" fill="#ecf8ff"/>
    <g id="Group_6993" data-name="Group 6993" transform="translate(4265.212 -113.235)">
      <g id="Group_5985" data-name="Group 5985" transform="translate(308.788 3318.235)">
        <g id="Group_3877" data-name="Group 3877" transform="translate(0 0)">
          <path id="Path_17445" data-name="Path 17445" d="M-712.788-869.2h-37.694v-50.327h60.274a8.984,8.984,0,0,1,9.217-8.823,8.917,8.917,0,0,1,8.425,7.88,8.877,8.877,0,0,1-7.515,9.688v.818q0,11.517-.013,23.034a1.515,1.515,0,0,0,.586,1.26,19.82,19.82,0,0,1,6.942,16.626,20.161,20.161,0,0,1-16.585,18.4A20.092,20.092,0,0,1-712.4-866.58C-712.575-867.422-712.655-868.285-712.788-869.2Zm-35.188-47.814v45.265h35.209l.31-2.49h-2.8v-15.027h7.55v5.31c7.451-7.209,15.77-8.569,25.067-4.063v-22.606l-4.1-1.708c-2.35,2.352-4.8,4.792-7.226,7.257a.9.9,0,0,0-.126.734,3.676,3.676,0,0,1-1.237,4.1,3.526,3.526,0,0,1-4.114.411,3.208,3.208,0,0,1-1.945-3.674c.367-1.359-.333-1.893-1.05-2.607a6.355,6.355,0,0,0-.847-.816,1.556,1.556,0,0,0-.8-.19c-.771-.022-1.544-.024-2.314.007a1.4,1.4,0,0,0-.855.222q-2.786,2.716-5.5,5.5a1.047,1.047,0,0,0-.2.853,3.844,3.844,0,0,1-1.721,4.413,3.786,3.786,0,0,1-4.562-.594,3.781,3.781,0,0,1-.586-4.624,3.719,3.719,0,0,1,4.348-1.653.8.8,0,0,0,.948-.234q2.7-2.744,5.448-5.447a.8.8,0,0,0,.232-.949,3.644,3.644,0,0,1,1.209-4.024,3.585,3.585,0,0,1,4.118-.42c1.462.763,2.385,2.107,1.956,3.667-.387,1.406.38,1.932,1.1,2.667.11.113.233.214.331.336.452.564.915.942,1.715.531a1.465,1.465,0,0,1,1.151-.039c1.124.551,1.724-.135,2.353-.846.173-.2.369-.372.554-.558l5.908-5.892a14.588,14.588,0,0,1-1.035-2.022,1.019,1.019,0,0,0-1.175-.8q-28.224.027-56.448.014Zm69.9,56.442-4.344-2.508a12.687,12.687,0,0,1-20.478.005l-4.323,2.5c3.483,4.808,8.092,7.492,13.947,7.682C-686.935-852.687-681.922-855.378-678.08-860.57Zm-15.889-22.448v-4.994c-6.175.684-10.915,3.546-13.971,8.894-3.011,5.27-3.059,10.729-.554,16.331l4.336-2.5a12.41,12.41,0,0,1,.6-11.442A12.521,12.521,0,0,1-693.969-883.018Zm2.6.007a12.475,12.475,0,0,1,9.589,6.256,12.409,12.409,0,0,1,.617,11.468l4.348,2.5c2.633-6.036,2.4-11.795-1.127-17.242A17.187,17.187,0,0,0-691.366-888Zm8.773,12.565a10.14,10.14,0,0,0-10.034-10.079,10.142,10.142,0,0,0-10.1,10.014,10.144,10.144,0,0,0,10.073,10.12A10.142,10.142,0,0,0-682.594-870.446Zm1.275-55.368a6.349,6.349,0,0,0-6.307,6.29,6.358,6.358,0,0,0,6.231,6.289,6.358,6.358,0,0,0,6.347-6.252A6.353,6.353,0,0,0-681.319-925.814Zm-31.443,49.248c.456-.21.949-.274,1.057-.512.855-1.889,1.819-3.763,1.444-5.961a7.546,7.546,0,0,1-.01-1.254v-2.464h-2.491Zm7.546-32.9a1.312,1.312,0,0,0,1.224-1.277,1.31,1.31,0,0,0-1.276-1.225,1.31,1.31,0,0,0-1.224,1.277A1.31,1.31,0,0,0-705.215-909.468Zm7.53,7.549a1.313,1.313,0,0,0,1.244-1.258,1.31,1.31,0,0,0-1.258-1.244,1.31,1.31,0,0,0-1.243,1.258A1.31,1.31,0,0,0-697.685-901.919Zm-17.628,2.554a1.309,1.309,0,0,0-1.219-1.282,1.309,1.309,0,0,0-1.281,1.22,1.31,1.31,0,0,0,1.219,1.282A1.313,1.313,0,0,0-715.314-899.365Z" transform="translate(750.482 928.353)" fill="#00629f" fill-rule="evenodd"/>
          <g id="Group_3872" data-name="Group 3872" transform="translate(25.153 34.055)">
            <g id="Group_3871" data-name="Group 3871">
              <path id="Path_17446" data-name="Path 17446" d="M-623.091-745.939h-7.452v-20.024h7.452Zm-2.514-2.507v-15h-2.424v15Z" transform="translate(630.543 765.963)" fill="#00b9ea" fill-rule="evenodd"/>
            </g>
          </g>
          <path id="Path_17447" data-name="Path 17447" d="M-726.548-717.583V-730.06h7.446v12.477Zm2.531-9.973v7.455h2.425v-7.455Z" transform="translate(731.567 771.645)" fill="#00629f" fill-rule="evenodd"/>
          <path id="Path_17448" data-name="Path 17448" d="M-670.979-718v9.961h-7.446V-718Zm-4.939,2.487v4.967h2.419v-4.967Z" transform="translate(693.536 762.111)" fill="#00629f" fill-rule="evenodd"/>
          <path id="Path_17449" data-name="Path 17449" d="M-685-861.979v2.413H-702.53v-2.413Z" transform="translate(712.586 875.899)" fill="#00629f" fill-rule="evenodd"/>
          <g id="Group_3873" data-name="Group 3873" transform="translate(10.037 18.961)">
            <path id="Path_17450" data-name="Path 17450" d="M-702.621-835.543v-2.395H-685.1v2.395Z" transform="translate(702.621 837.938)" fill="#00b9ea" fill-rule="evenodd"/>
          </g>
          <g id="Group_3874" data-name="Group 3874" transform="translate(10.08 23.98)">
            <path id="Path_17451" data-name="Path 17451" d="M-684.912-814v2.421h-17.506V-814Z" transform="translate(702.418 814.005)" fill="#00b9ea" fill-rule="evenodd"/>
          </g>
          <path id="Path_17452" data-name="Path 17452" d="M-685-789.989v2.413h-17.534v-2.413Z" transform="translate(712.587 819.006)" fill="#00629f" fill-rule="evenodd"/>
          <path id="Path_17453" data-name="Path 17453" d="M-724.011-859.534h-2.4v-2.437h2.4Z" transform="translate(731.455 875.892)" fill="#00629f" fill-rule="evenodd"/>
          <path id="Path_17454" data-name="Path 17454" d="M-724.049-838.038v2.409h-2.422v-2.409Z" transform="translate(731.506 856.978)" fill="#00629f" fill-rule="evenodd"/>
          <path id="Path_17455" data-name="Path 17455" d="M-724.024-811.58h-2.4V-814h2.4Z" transform="translate(731.472 837.98)" fill="#00629f" fill-rule="evenodd"/>
          <path id="Path_17456" data-name="Path 17456" d="M-726.513-790.086h2.412v2.426h-2.412Z" transform="translate(731.54 819.082)" fill="#00629f" fill-rule="evenodd"/>
          <g id="Group_3876" data-name="Group 3876" transform="translate(50.277 50.35)">
            <g id="Group_3875" data-name="Group 3875">
              <path id="Path_17457" data-name="Path 17457" d="M-510.739-680.793a7.53,7.53,0,0,1,7.6-7.472,7.524,7.524,0,0,1,7.492,7.656,7.53,7.53,0,0,1-7.636,7.434A7.531,7.531,0,0,1-510.739-680.793Zm7.583,5.1a5.1,5.1,0,0,0,4.993-5.031,5.09,5.09,0,0,0-5.068-5.032,5.092,5.092,0,0,0-4.993,5.108A5.1,5.1,0,0,0-503.156-675.688Z" transform="translate(510.739 688.265)" fill="#00b9ea" fill-rule="evenodd"/>
            </g>
          </g>
        </g>
      </g>
    </g>
  </g>
</svg>
