<svg xmlns="http://www.w3.org/2000/svg" xmlns:xlink="http://www.w3.org/1999/xlink" width="140" height="150.655" viewBox="0 0 140 150.655">
  <defs>
    <filter id="Rectangle_86" x="0" y="10.655" width="140" height="140" filterUnits="userSpaceOnUse">
      <feOffset dy="10" input="SourceAlpha"/>
      <feGaussianBlur stdDeviation="10" result="blur"/>
      <feFlood flood-color="#f5e3f9" flood-opacity="0.11"/>
      <feComposite operator="in" in2="blur"/>
      <feComposite in="SourceGraphic"/>
    </filter>
  </defs>
  <g id="Group_6978" data-name="Group 6978" transform="translate(-4527.686 -2436.456)">
    <g transform="matrix(1, 0, 0, 1, 4527.69, 2436.46)" filter="url(#Rectangle_86)">
      <rect id="Rectangle_86-2" data-name="Rectangle 86" width="80" height="80" rx="40" transform="translate(30 30.65)" fill="#5d879f" opacity="0.15"/>
    </g>
    <g id="Group_3861" data-name="Group 3861" transform="translate(4543.958 2436.456)">
      <path id="Path_17428" data-name="Path 17428" d="M-860.448-146.612c-4.794-1.28-9.593-2.542-14.381-3.846-4.107-1.119-8.217-2.236-12.3-3.45a8.032,8.032,0,0,0-6.884.772,14.076,14.076,0,0,1-1.582.839c-1.12.512-2,1.032-1.862,2.6.109,1.259-.872,2.009-2.2,1.982q-7.78-.157-15.558-.4c-1.529-.048-2.262-.911-2.221-2.515q.265-10.353.568-20.7.187-6.7.374-13.4c.048-1.785.817-2.51,2.618-2.463q7.3.192,14.6.375c2.225.055,2.888.762,2.827,3.024-.019.713,0,1.427,0,2.287.327-.12.644-.215.943-.349a25.412,25.412,0,0,1,22.72.338,22.87,22.87,0,0,0,10.636,2.687c4.027-.031,8.056.248,12.085.347a12.706,12.706,0,0,1,10.956,6.181c.107.165.222.324.362.527,5.32-2.508,10.6-5.033,15.91-7.486a9.783,9.783,0,0,1,10.585,1.145,11.247,11.247,0,0,1,2.264,2.44c1.088,1.5.828,2.584-.739,3.6q-7.827,5.076-15.664,10.135c-6.026,3.9-12.078,7.752-18.067,11.7a23.435,23.435,0,0,1-9.351,3.382,7.886,7.886,0,0,0-.888.251Zm-36.629-9.52c.417-.211.744-.35,1.044-.532a12.035,12.035,0,0,1,10.12-1.148q6.063,1.8,12.173,3.443c4.608,1.239,9.188,2.673,13.873,3.5a17.29,17.29,0,0,0,12.439-2.363c10.74-6.816,21.382-13.787,32.06-20.7.315-.2.606-.445.987-.726a6.2,6.2,0,0,0-6.928-.86c-5.159,2.412-10.3,4.864-15.444,7.3-.24.114-.46.269-.67.394.066.511.148.943.174,1.378.145,2.388-.552,3.117-2.92,3.063q-6.524-.147-13.048-.3c-3.232-.081-6.465-.153-9.695-.285-1.509-.061-2.391-.966-2.3-2.189.087-1.2,1.008-1.922,2.458-1.882q9.157.251,18.313.517c.945.026,1.892,0,2.844,0a8.55,8.55,0,0,0-7.972-6.9c-3.351-.109-6.7-.163-10.055-.275-2.273-.076-4.55-.13-6.812-.339-3.118-.288-5.806-1.823-8.6-3.1a21.751,21.751,0,0,0-20.642.924,1.726,1.726,0,0,0-1.019,1.677c-.082,4.15-.268,8.3-.368,12.447C-897.121-160.807-897.077-158.539-897.077-156.133Zm-15.388-26.746c-.28,10.168-.562,20.395-.85,30.822h11.891c.278-10.2.556-20.421.839-30.822Z" transform="translate(917.436 269.27)" fill="#fff" fill-rule="evenodd"/>
      <path id="Path_17429" data-name="Path 17429" d="M-703.25-513.06a2.975,2.975,0,0,1,1.342,2.841c-.033,5.819-.014,11.638-.016,17.456a7.133,7.133,0,0,1-.04.954,2.062,2.062,0,0,1-1.951,1.917,2.083,2.083,0,0,1-2.069-1.922,6.952,6.952,0,0,1-.039-.954c0-5.819.016-11.637-.016-17.456a2.962,2.962,0,0,1,1.352-2.836Z" transform="translate(759.28 513.06)" fill="#fff" fill-rule="evenodd"/>
      <path id="Path_17430" data-name="Path 17430" d="M-784.533-348.338a29.229,29.229,0,0,1-29.25-28.957,29.2,29.2,0,0,1,29.159-29.4,29.187,29.187,0,0,1,29.25,29.062A29.224,29.224,0,0,1-784.533-348.338Zm-.027-4.093a25.127,25.127,0,0,0,25.133-25.085,25.124,25.124,0,0,0-25.107-25.106,25.151,25.151,0,0,0-25.2,25.147A25.133,25.133,0,0,0-784.56-352.431Z" transform="translate(839.888 433.483)" fill="#fff" fill-rule="evenodd"/>
      <path id="Path_17431" data-name="Path 17431" d="M-642.025-466.45c0,1.393.034,2.786-.009,4.178a2.1,2.1,0,0,1-2.073,2.289,2.083,2.083,0,0,1-1.994-2.253q-.065-4.3,0-8.6a2.015,2.015,0,0,1,2.08-2.252,2.006,2.006,0,0,1,1.989,2.215C-641.989-469.4-642.025-467.922-642.025-466.45Z" transform="translate(714.461 483.151)" fill="#fff" fill-rule="evenodd"/>
      <path id="Path_17432" data-name="Path 17432" d="M-761.822-466.532c0,1.393.028,2.786-.008,4.178-.037,1.432-.836,2.342-2,2.371-1.206.03-2.064-.913-2.08-2.41q-.045-4.178,0-8.356c.017-1.47.785-2.312,2-2.334,1.272-.022,2.047.829,2.084,2.372C-761.8-469.318-761.822-467.925-761.822-466.532Z" transform="translate(804.09 483.151)" fill="#fff" fill-rule="evenodd"/>
      <path id="Path_17433" data-name="Path 17433" d="M-714.9-354.693c.016,1.648-.729,2.579-1.875,2.67-1.187.093-2.042-.76-2.172-2.168a4.507,4.507,0,0,0-4.269-4.358,4.508,4.508,0,0,0-4.791,3.779,4.5,4.5,0,0,0,3.123,5.026,15.986,15.986,0,0,0,2.478.349,8.587,8.587,0,0,1,7.462,7.458,8.452,8.452,0,0,1-5.12,8.872c-1.264.5-1.857,1.03-1.7,2.428a1.661,1.661,0,0,1-1.419,1.931,3.077,3.077,0,0,1-2.025-.572,2.051,2.051,0,0,1-.565-1.607c.119-1.277-.415-1.8-1.548-2.347a8.166,8.166,0,0,1-4.776-7.326,2,2,0,0,1,1.859-2.33c1.251-.083,2.051.7,2.179,2.145a4.532,4.532,0,0,0,4.028,4.338,4.5,4.5,0,0,0,4.993-3.655,4.45,4.45,0,0,0-2.882-5.046,9.411,9.411,0,0,0-2.226-.375,8.606,8.606,0,0,1-7.907-7.408,8.579,8.579,0,0,1,5.212-9.064c.8-.33,1.132-.7,1.041-1.551a3.785,3.785,0,0,1,.123-1.3,1.846,1.846,0,0,1,2.026-1.5c1,.059,1.912.665,1.818,1.7-.159,1.746.773,2.258,2.151,2.9A8.177,8.177,0,0,1-714.9-354.693Z" transform="translate(778.817 403.268)" fill="#fff" fill-rule="evenodd"/>
    </g>
  </g>
</svg>
