<svg xmlns="http://www.w3.org/2000/svg" width="490.662" height="537.578" viewBox="0 0 490.662 537.578">
  <g id="Group_6975" data-name="Group 6975" transform="translate(-31.002 -8.057)">
    <g id="Background_Complete" data-name="Background Complete" transform="translate(31.028 8.057)">
      <g id="Group_6040" data-name="Group 6040">
        <path id="Path_18260" data-name="Path 18260" d="M249.111,228.5l0,.011.025.016Z" transform="translate(-4.802 18.449)" fill="#f5f5f5"/>
        <path id="Path_18261" data-name="Path 18261" d="M249.238,228.666l-.054.062h.134Z" transform="translate(-4.793 18.469)" fill="#f5f5f5"/>
        <path id="Path_18262" data-name="Path 18262" d="M249.393,228.713l0,.01h.033Z" transform="translate(-4.768 18.475)" fill="#f5f5f5"/>
        <path id="Path_18263" data-name="Path 18263" d="M249.313,228.721l.077,0-.055-.03Z" transform="translate(-4.778 18.473)" fill="#f5f5f5"/>
        <path id="Path_18264" data-name="Path 18264" d="M249.124,228.7l-.011-.07-.366-.107.327.21Z" transform="translate(-4.846 18.452)" fill="#f5f5f5"/>
        <path id="Path_18265" data-name="Path 18265" d="M249.094,228.625l-.009.063.047-.03Z" transform="translate(-4.805 18.464)" fill="#f5f5f5"/>
        <path id="Path_18266" data-name="Path 18266" d="M249.374,228.65l-.017.02.022.014Z" transform="translate(-4.772 18.467)" fill="#f5f5f5"/>
        <path id="Path_18267" data-name="Path 18267" d="M249.32,228.691l-.022-.006.013.028Z" transform="translate(-4.78 18.472)" fill="#f5f5f5"/>
        <path id="Path_18268" data-name="Path 18268" d="M249.132,228.654l.019-.013-.028-.008Z" transform="translate(-4.801 18.465)" fill="#f5f5f5"/>
        <path id="Path_18269" data-name="Path 18269" d="M249.353,228.625l-.045.013.029.019Z" transform="translate(-4.778 18.464)" fill="#f5f5f5"/>
        <path id="Path_18270" data-name="Path 18270" d="M238.21,150.247l14.81,103.813L267.7,150.227l.232.033,19.63-139.89a246.852,246.852,0,0,0-69.845.347L237.778,150.31Z" transform="translate(-8.577 -8.057)" fill="#f5f5f5"/>
        <path id="Path_18271" data-name="Path 18271" d="M293.167,156.472l-43.73,96.109,161.115-187.1A245.555,245.555,0,0,0,351.4,27.556L292.934,156.367Z" transform="translate(-4.763 -5.712)" fill="#f5f5f5"/>
        <path id="Path_18272" data-name="Path 18272" d="M173.023,213.377l100.659,29.472h-.4l.971.285-.012.009.019-.007h0l.044-.03,0,.016.067-.02-.009-.019.015.018.021-.007-.009.02.025.03.054-.063.08.062h-.133l.069.058.056-.041-.012.029.047-.013,0-.007.006,0,.06-.018,0,.024.041-.036.024.007-.063.041.408.177-.334-.215L375.973,272.8c-.02.073-.043.146-.062.218l134.25,39.463a245.27,245.27,0,0,0,10.488-69.628H380.226v.183l-105.5.112h-.035l.011,0-.044-.028.012-.1.463-.138-.38.246.937-.277h-.456L511.03,173a244.1,244.1,0,0,0-29.192-64.23L275.181,242.849h-.363l.151-.176-.27.176h0l0-.018-.022.018.1-.569-.194.428.02.141-.125.093-.043-.093h-.087l.02-.143-.167-.365.067.469.036.039h-.029l0,.015-.214-.138.108.123h-.351L67.9,110.252a244.025,244.025,0,0,0-28.622,63.976l133.74,39.152Zm101.634,29.758.031.009h-.033Zm-.09.006.022-.026.055.03Zm.066-.076,0,.034-.022-.015Zm-.027-.029-.016.033-.029-.019Zm-.035.074-.009.024-.012-.029Zm-.208-.043-.009-.02.028.008Zm-.024-.173.024.027-.025-.016Zm-.019.142.038.034-.047.029Zm-.021-.006.01.071-.049.031-.327-.209Z" transform="translate(-30.032 4.053)" fill="#f5f5f5"/>
        <path id="Path_18273" data-name="Path 18273" d="M197.208,172.713l69.072,79.7-43.813-96,.034-.016L163.932,28.445a245.61,245.61,0,0,0-58.6,38.325l91.859,105.957Z" transform="translate(-22.09 -5.606)" fill="#f5f5f5"/>
        <path id="Path_18274" data-name="Path 18274" d="M455.124,361.478,338.163,285.97c-.021.031-.04.062-.059.093L249.62,229.086l69,79.59-.169.147L409.077,413.6A246.655,246.655,0,0,0,455.124,361.478Z" transform="translate(-4.741 18.52)" fill="#f5f5f5"/>
        <path id="Path_18275" data-name="Path 18275" d="M249.364,228.929l0-.007-.017-.01Z" transform="translate(-4.773 18.499)" fill="#f5f5f5"/>
        <path id="Path_18276" data-name="Path 18276" d="M249.145,228.745l-.012.029-.041-.026.013.08.008-.01,0,.009.07-.02-.036-.024.025-.03.019,0-.008-.017.015-.018h-.107Z" transform="translate(-4.805 18.476)" fill="#f5f5f5"/>
        <path id="Path_18277" data-name="Path 18277" d="M248.687,228.965l.422-.125.014-.1-.025-.016Z" transform="translate(-4.853 18.476)" fill="#f5f5f5"/>
        <path id="Path_18278" data-name="Path 18278" d="M270.755,229.119l-88.262,57.263c-.069-.109-.139-.215-.207-.324L66.608,360.921a246.637,246.637,0,0,0,45.612,52L215.357,293.451Z" transform="translate(-26.746 18.524)" fill="#f5f5f5"/>
        <path id="Path_18279" data-name="Path 18279" d="M174.076,258.685l101.156-29.963-244.207.261a245.2,245.2,0,0,0,10.418,68.858L174.081,258.7Z" transform="translate(-31.025 18.476)" fill="#f5f5f5"/>
        <path id="Path_18280" data-name="Path 18280" d="M159.333,450.146A243.574,243.574,0,0,0,225.8,469.59l33.956-240.154Z" transform="translate(-15.597 18.562)" fill="#f5f5f5"/>
        <path id="Path_18281" data-name="Path 18281" d="M249.381,228.813l.007-.046-.028.019Z" transform="translate(-4.772 18.482)" fill="#f5f5f5"/>
        <path id="Path_18282" data-name="Path 18282" d="M283.772,469.787a243.563,243.563,0,0,0,66.691-19.111L249.481,229.419Z" transform="translate(-4.757 18.56)" fill="#f5f5f5"/>
        <path id="Path_18283" data-name="Path 18283" d="M249.141,229.1l.113.792.107-.764-.116-.257Z" transform="translate(-4.798 18.495)" fill="#f5f5f5"/>
        <path id="Path_18284" data-name="Path 18284" d="M249.348,228.793l-.014.009.021.005Z" transform="translate(-4.775 18.485)" fill="#f5f5f5"/>
      </g>
    </g>
    <g id="Floor" transform="translate(31.002 535.73)">
      <g id="Group_6042" data-name="Group 6042">
        <g id="Group_6041" data-name="Group 6041">
          <path id="Path_18285" data-name="Path 18285" d="M521.664,479.384c0,.161-109.848.292-245.321.292-135.519,0-245.342-.131-245.342-.292s109.823-.292,245.342-.292C411.817,479.092,521.664,479.223,521.664,479.384Z" transform="translate(-31.002 -479.092)" fill="#263238"/>
        </g>
      </g>
    </g>
    <g id="Character" transform="translate(39.404 41.311)">
      <g id="Group_6243" data-name="Group 6243">
        <g id="Group_6056" data-name="Group 6056" transform="translate(0 89.383)">
          <g id="Group_6049" data-name="Group 6049">
            <g id="Group_6045" data-name="Group 6045">
              <g id="Group_6044" data-name="Group 6044">
                <g id="Group_6043" data-name="Group 6043">
                  <path id="Path_18286" data-name="Path 18286" d="M339.641,117.531s35.561,76.132,8.8,147.13S223.368,437.369,212.468,442.745c0,0,25.223-39.621-20.816-39.295s-69.169-10.886-74.114-27.033,22.354-68.276-2.758-80.8-55.748-8.774-76.277-26.15c0,0,47.891-3.986,83.238-7.587,37.123-3.782,148.65-81.473,157.658-138.618" transform="translate(-38.502 -117.531)" fill="#2178ab"/>
                </g>
              </g>
            </g>
            <g id="Group_6048" data-name="Group 6048" opacity="0.4">
              <g id="Group_6047" data-name="Group 6047">
                <g id="Group_6046" data-name="Group 6046">
                  <path id="Path_18287" data-name="Path 18287" d="M339.641,117.531s35.561,76.132,8.8,147.13S223.368,437.369,212.468,442.745c0,0,25.223-39.621-20.816-39.295s-69.169-10.886-74.114-27.033,22.354-68.276-2.758-80.8-55.748-8.774-76.277-26.15c0,0,47.891-3.986,83.238-7.587,37.123-3.782,148.65-81.473,157.658-138.618" transform="translate(-38.502 -117.531)" fill="#5fd3f3"/>
                </g>
              </g>
            </g>
          </g>
          <g id="Group_6051" data-name="Group 6051" transform="translate(102.305 131.165)">
            <g id="Group_6050" data-name="Group 6050">
              <path id="Path_18288" data-name="Path 18288" d="M199.283,234.619a3.968,3.968,0,0,1-.627.474l-1.864,1.264c-1.621,1.1-4.006,2.619-6.988,4.446a270.565,270.565,0,0,1-49.22,23.58c-3.292,1.18-5.974,2.083-7.843,2.661-.889.272-1.6.491-2.152.66a4.132,4.132,0,0,1-.763.193,3.821,3.821,0,0,1,.726-.3l2.117-.763c1.845-.643,4.5-1.605,7.772-2.833,6.54-2.449,15.484-6.085,25.1-10.686s18.044-9.3,24.052-12.86c3-1.779,5.421-3.248,7.078-4.283l1.921-1.172A3.977,3.977,0,0,1,199.283,234.619Z" transform="translate(-129.826 -234.618)" fill="#263238"/>
            </g>
          </g>
          <g id="Group_6053" data-name="Group 6053" transform="translate(130.585 173.399)">
            <g id="Group_6052" data-name="Group 6052">
              <path id="Path_18289" data-name="Path 18289" d="M226.5,272.319a6.184,6.184,0,0,1-.756.6l-2.234,1.638c-1.95,1.4-4.753,3.466-8.19,6.046-6.875,5.158-16.209,12.506-26.088,21.13s-18.413,16.9-24.448,23.015c-3.019,3.058-5.439,5.559-7.092,7.3l-1.922,1.992a5.971,5.971,0,0,1-.7.669,5.937,5.937,0,0,1,.613-.747l1.844-2.068c1.6-1.792,3.978-4.339,6.962-7.436,5.965-6.2,14.47-14.521,24.36-23.168s19.283-15.943,26.227-21.02c3.471-2.541,6.313-4.553,8.305-5.9l2.3-1.548A6.032,6.032,0,0,1,226.5,272.319Z" transform="translate(-155.07 -272.318)" fill="#263238"/>
            </g>
          </g>
          <g id="Group_6055" data-name="Group 6055" transform="translate(158.045 185.882)">
            <g id="Group_6054" data-name="Group 6054">
              <path id="Path_18290" data-name="Path 18290" d="M219.468,283.462a1.905,1.905,0,0,1-.336.42c-.285.307-.628.679-1.043,1.125-.912.97-2.262,2.347-3.956,4.022-3.385,3.351-8.186,7.861-13.7,12.6s-10.708,8.794-14.535,11.629c-1.913,1.42-3.478,2.545-4.576,3.3-.5.343-.923.626-1.27.86a1.87,1.87,0,0,1-.466.268c-.012-.016.125-.141.4-.363.329-.258.727-.571,1.205-.948l4.461-3.444c3.758-2.916,8.894-7.017,14.405-11.743s10.34-9.178,13.795-12.449l4.082-3.886,1.12-1.047A1.863,1.863,0,0,1,219.468,283.462Z" transform="translate(-179.583 -283.461)" fill="#263238"/>
            </g>
          </g>
        </g>
        <g id="Group_6083" data-name="Group 6083" transform="translate(175.416 229.489)">
          <g id="Group_6061" data-name="Group 6061" transform="translate(0 225.666)">
            <g id="Group_6058" data-name="Group 6058">
              <g id="Group_6057" data-name="Group 6057">
                <path id="Path_18291" data-name="Path 18291" d="M211.614,444.043l-5.738,25.937-10.454,19.207a2.723,2.723,0,0,0,1.256,3.775h0a2.708,2.708,0,0,0,2.489-.112c4.863-2.811,22.7-13.237,23.016-15.158.364-2.226,7.869-26.959,7.869-26.959Z" transform="translate(-195.09 -444.043)" fill="#263238"/>
              </g>
            </g>
            <g id="Group_6060" data-name="Group 6060" transform="translate(1.613 31.05)">
              <g id="Group_6059" data-name="Group 6059">
                <path id="Path_18292" data-name="Path 18292" d="M222.856,471.764a5.193,5.193,0,0,1-.989.765l-2.807,1.913-9.311,6.229-9.3,6.252-2.835,1.872a5.2,5.2,0,0,1-1.083.625,5.209,5.209,0,0,1,.952-.811c.635-.491,1.568-1.182,2.73-2.023,2.325-1.684,5.572-3.958,9.21-6.4s6.974-4.581,9.412-6.092c1.22-.756,2.214-1.357,2.909-1.758A5.174,5.174,0,0,1,222.856,471.764Z" transform="translate(-196.53 -471.761)" fill="#455a64"/>
              </g>
            </g>
          </g>
          <g id="Group_6067" data-name="Group 6067" transform="translate(110.067 230.988)">
            <g id="Group_6064" data-name="Group 6064" transform="translate(0.213)">
              <g id="Group_6063" data-name="Group 6063">
                <g id="Group_6062" data-name="Group 6062">
                  <path id="Path_18293" data-name="Path 18293" d="M314.8,449.629l-1.55,20.727s20.546,8.536,20.633,12.394H293.533l1.143-33.956Z" transform="translate(-293.533 -448.794)" fill="#263238"/>
                </g>
              </g>
            </g>
            <g id="Group_6066" data-name="Group 6066" transform="translate(0 31.519)">
              <g id="Group_6065" data-name="Group 6065">
                <path id="Path_18294" data-name="Path 18294" d="M332.637,477.988a7.7,7.7,0,0,1-1.548.023l-4.21-.128c-3.553-.119-8.462-.266-13.885-.342s-10.335-.062-13.891-.041l-4.212.012a7.881,7.881,0,0,1-1.547-.066,7.875,7.875,0,0,1,1.54-.16c.994-.068,2.432-.137,4.21-.2,3.558-.127,8.475-.2,13.908-.129s10.344.288,13.9.512c1.777.111,3.213.22,4.2.314A7.932,7.932,0,0,1,332.637,477.988Z" transform="translate(-293.343 -476.93)" fill="#455a64"/>
              </g>
            </g>
          </g>
          <g id="Group_6069" data-name="Group 6069" transform="translate(5.637 23.202)">
            <g id="Group_6068" data-name="Group 6068">
              <path id="Path_18295" data-name="Path 18295" d="M235.738,263.311,200.122,483.223l32.7,1.979,50.485-221.891Z" transform="translate(-200.122 -263.311)" fill="#2178ab"/>
            </g>
          </g>
          <g id="Group_6071" data-name="Group 6071" transform="translate(89.421)">
            <g id="Group_6070" data-name="Group 6070">
              <path id="Path_18296" data-name="Path 18296" d="M274.913,256.216,291.34,487.693h30.775V242.6Z" transform="translate(-274.913 -242.599)" fill="#2178ab"/>
            </g>
          </g>
          <g id="Group_6073" data-name="Group 6073" transform="translate(114.969 25.812)">
            <g id="Group_6072" data-name="Group 6072">
              <path id="Path_18297" data-name="Path 18297" d="M308.238,470.447c-.162.009-2.644-45.836-5.546-102.382-2.9-56.568-5.125-102.416-4.965-102.424s2.644,45.826,5.547,102.393C306.176,424.581,308.4,470.439,308.238,470.447Z" transform="translate(-297.719 -265.641)" fill="#263238"/>
            </g>
          </g>
          <g id="Group_6075" data-name="Group 6075" transform="translate(105.008 230.611)">
            <g id="Group_6074" data-name="Group 6074">
              <path id="Path_18298" data-name="Path 18298" d="M320.441,448.465a.044.044,0,0,1,.03-.008c.008,0,.034,0,0,.043a.188.188,0,0,1-.04.02,1.412,1.412,0,0,1-.235.074c-.208.05-.516.109-.915.175-.8.13-1.951.289-3.38.463-2.86.348-6.815.765-11.192,1.155-8.743.793-15.9,1.121-15.886.716a1.811,1.811,0,0,1,.323-.011l.92-.047,3.393-.259,11.2-.979,11.2-.985C318.7,448.576,320.567,448.441,320.441,448.465Z" transform="translate(-288.827 -448.457)" fill="#263238"/>
            </g>
          </g>
          <g id="Group_6077" data-name="Group 6077" transform="translate(22.63 28.38)">
            <g id="Group_6076" data-name="Group 6076">
              <path id="Path_18299" data-name="Path 18299" d="M253.3,267.933s-.009.177-.054.519c-.053.365-.123.867-.215,1.512-.206,1.355-.5,3.307-.882,5.806-.774,5.041-1.943,12.328-3.428,21.326-2.973,17.994-7.3,42.819-12.541,70.15s-10.435,52-14.339,69.816c-1.954,8.907-3.567,16.108-4.716,21.076-.574,2.462-1.021,4.385-1.331,5.72-.153.632-.273,1.125-.362,1.484-.084.334-.142.5-.142.5s.019-.176.085-.514c.073-.362.174-.859.3-1.5.286-1.341.7-3.271,1.224-5.743,1.077-5.012,2.624-12.22,4.535-21.114,3.8-17.835,8.917-42.506,14.17-69.839S245.24,315,248.315,297.028c1.521-8.971,2.755-16.238,3.612-21.294.426-2.493.758-4.438.989-5.789.117-.64.207-1.139.272-1.5C253.253,268.1,253.3,267.933,253.3,267.933Z" transform="translate(-215.291 -267.933)" fill="#263238"/>
            </g>
          </g>
          <g id="Group_6079" data-name="Group 6079" transform="translate(7.876 229.112)">
            <g id="Group_6078" data-name="Group 6078">
              <path id="Path_18300" data-name="Path 18300" d="M235.879,448.626a5.851,5.851,0,0,1-1.332.047l-3.621-.087c-3.186-.127-7.341-.291-11.935-.476l-11.932-.561c-1.429-.067-2.638-.125-3.613-.173a10.232,10.232,0,0,1-1.326-.077,23.6,23.6,0,0,1,4.951-.162c3.059.043,7.283.183,11.945.391s8.878.445,11.929.647c1.526.1,2.76.194,3.613.271A5.96,5.96,0,0,1,235.879,448.626Z" transform="translate(-202.121 -447.119)" fill="#263238"/>
            </g>
          </g>
          <g id="Group_6082" data-name="Group 6082" transform="translate(39.52 24.468)">
            <g id="Group_6080" data-name="Group 6080" transform="translate(0 2.365)" opacity="0.3">
              <path id="Path_18301" data-name="Path 18301" d="M230.368,273.62l.707-4.366,47.748-2.7-1.8,7.967Z" transform="translate(-230.368 -266.552)"/>
            </g>
            <g id="Group_6081" data-name="Group 6081" transform="translate(49.9)" opacity="0.3">
              <path id="Path_18302" data-name="Path 18302" d="M276.265,274.774l-1.352-8,47.2-2.331-.015,11.316Z" transform="translate(-274.913 -264.441)"/>
            </g>
          </g>
        </g>
        <g id="Group_6132" data-name="Group 6132" transform="translate(147.67 82.693)">
          <g id="Group_6084" data-name="Group 6084" transform="translate(72.058 0)">
            <path id="Path_18303" data-name="Path 18303" d="M234.646,118.973l33.332-7.413,28.007,1.159,24.418,7.758-13.891,69.663-53.159,4.71Z" transform="translate(-234.646 -111.559)" fill="#263238"/>
          </g>
          <g id="Group_6086" data-name="Group 6086" transform="translate(65.262 1.159)">
            <g id="Group_6085" data-name="Group 6085">
              <path id="Path_18304" data-name="Path 18304" d="M263.64,112.594l-35.061,7.758,17.531,93.913s-15.652,38.121-17.531,73.5l51.905-2.736s3.572-46.675,2.347-64.64-2.041-49.407-2.041-49.407Z" transform="translate(-228.579 -112.594)" fill="#2178ab"/>
            </g>
          </g>
          <g id="Group_6088" data-name="Group 6088" transform="translate(0 8.917)">
            <g id="Group_6087" data-name="Group 6087">
              <path id="Path_18305" data-name="Path 18305" d="M170.384,165.642s11.9-12.071,24.31-18.556c9.155-4.786,27.08-10.783,34.2-18.5a45.976,45.976,0,0,0,6.688-9.072l8.261,44.251-35.19,5.564s5.234,2.859,1.968,4.9l22.049,25.815L217.564,228.54S168.343,186.058,170.384,165.642Z" transform="translate(-170.322 -119.519)" fill="#2178ab"/>
            </g>
          </g>
          <g id="Group_6090" data-name="Group 6090" transform="translate(116.967 1.159)">
            <g id="Group_6089" data-name="Group 6089">
              <path id="Path_18306" data-name="Path 18306" d="M291.165,112.594a78.64,78.64,0,0,1,12.594,2.616c7.456,2.469,20.071,5.142,20.071,5.142L305.864,215.49s24.363,30.117,17.965,66.964c0,0-33.662,2.656-48.9,2.577l-.2-115.771s12.756-16.242,14.39-32.167S291.165,112.594,291.165,112.594Z" transform="translate(-274.734 -112.594)" fill="#2178ab"/>
            </g>
          </g>
          <g id="Group_6092" data-name="Group 6092" transform="translate(157.816 8.917)">
            <g id="Group_6091" data-name="Group 6091">
              <path id="Path_18307" data-name="Path 18307" d="M319.445,119.519s20.09,20.806,31.147,28.655,24.969,19.61,24.969,25.856c0,3.678-1.3,8.285-2.367,11.451a22.93,22.93,0,0,1-3.407,6.436c-5.069,6.74-18.519,24.271-27.4,32.59l-22.35-23.6,21.279-23.488s-28.566-11.776-29.977-14.983S319.445,119.519,319.445,119.519Z" transform="translate(-311.198 -119.519)" fill="#2178ab"/>
            </g>
          </g>
          <g id="Group_6094" data-name="Group 6094" transform="translate(84.315 2.589)">
            <g id="Group_6093" data-name="Group 6093">
              <path id="Path_18308" data-name="Path 18308" d="M278.02,181.66a3.515,3.515,0,0,1-.511-.464l-1.4-1.4c-1.243-1.282-2.985-3.076-5.146-5.3l-17.425-18.213-.106-.112.037-.151c.737-3.094,1.51-6.342,2.3-9.678q.518-2.166,1.023-4.277l.282.357-11.112-.017h-.379l.118-.358c2.709-8.21,5.031-15.245,6.695-20.291.83-2.447,1.493-4.408,1.97-5.817l.547-1.541a2.559,2.559,0,0,1,.218-.522,2.608,2.608,0,0,1-.13.55c-.12.4-.273.922-.463,1.569-.441,1.42-1.056,3.4-1.822,5.867-1.614,5.06-3.867,12.118-6.494,20.355l-.261-.358,11.112-.017h.367l-.085.358q-.5,2.109-1.021,4.278c-.8,3.334-1.576,6.581-2.318,9.674l-.071-.261,17.279,18.353,5.024,5.416,1.331,1.472A3.721,3.721,0,0,1,278.02,181.66Z" transform="translate(-245.587 -113.87)" fill="#263238"/>
            </g>
          </g>
          <g id="Group_6096" data-name="Group 6096" transform="translate(116.633 56.937)">
            <g id="Group_6095" data-name="Group 6095">
              <path id="Path_18309" data-name="Path 18309" d="M274.97,279.045c-.162,0-.376-26.116-.479-58.327s-.056-58.332.106-58.333.375,26.111.477,58.332S275.131,279.045,274.97,279.045Z" transform="translate(-274.436 -162.385)" fill="#263238"/>
            </g>
          </g>
          <g id="Group_6098" data-name="Group 6098" transform="translate(118.689 2.007)">
            <g id="Group_6097" data-name="Group 6097">
              <path id="Path_18310" data-name="Path 18310" d="M296.357,113.351a3.164,3.164,0,0,1,.15.631c.087.469.2,1.078.337,1.837.282,1.666.676,3.985,1.162,6.859.953,5.908,2.272,14.086,3.781,23.45l.062.378-.381-.052-6.188-.83.3-.417c.4.819.835,1.694,1.27,2.578l2.5,5.076.081.165-.114.143c-6.458,8.072-12.173,15.217-16.319,20.4-2.044,2.517-3.7,4.555-4.887,6.016-.556.664-1,1.2-1.34,1.605a3.654,3.654,0,0,1-.494.534,3.694,3.694,0,0,1,.409-.6l1.26-1.669,4.749-6.123,16.168-20.521-.032.308-2.5-5.074c-.434-.884-.865-1.76-1.267-2.579l-.242-.491.541.074,6.188.844-.32.326c-1.431-9.378-2.678-17.567-3.581-23.481-.417-2.886-.753-5.215-.995-6.886-.1-.764-.18-1.378-.241-1.852A3.212,3.212,0,0,1,296.357,113.351Z" transform="translate(-276.271 -113.351)" fill="#263238"/>
            </g>
          </g>
          <g id="Group_6099" data-name="Group 6099" transform="translate(106.417 134.172)">
            <path id="Path_18311" data-name="Path 18311" d="M271.187,232.912c-1.186-1.453-3.506-2.292-4.621-.784l.043-.025a3.6,3.6,0,0,0-1.074,3.94,3.476,3.476,0,0,0,4.682,1.705A3.353,3.353,0,0,0,271.187,232.912Z" transform="translate(-265.316 -231.33)" fill="#263238"/>
          </g>
          <g id="Group_6100" data-name="Group 6100" transform="translate(107.047 103.931)">
            <path id="Path_18312" data-name="Path 18312" d="M271.75,205.917c-1.187-1.453-3.506-2.293-4.621-.784l.043-.026a3.6,3.6,0,0,0-1.074,3.94,3.476,3.476,0,0,0,4.68,1.706A3.354,3.354,0,0,0,271.75,205.917Z" transform="translate(-265.879 -204.335)" fill="#263238"/>
          </g>
          <g id="Group_6101" data-name="Group 6101" transform="translate(187.05 101.442)">
            <path id="Path_18313" data-name="Path 18313" d="M343.166,203.694c-1.187-1.452-3.506-2.292-4.621-.783l.043-.026a3.6,3.6,0,0,0-1.074,3.94,3.475,3.475,0,0,0,4.68,1.705A3.353,3.353,0,0,0,343.166,203.694Z" transform="translate(-337.295 -202.112)" fill="#263238"/>
          </g>
          <g id="Group_6102" data-name="Group 6102" transform="translate(41.164 104.243)">
            <path id="Path_18314" data-name="Path 18314" d="M212.938,206.2c-1.186-1.453-3.506-2.293-4.621-.784l.043-.026a3.6,3.6,0,0,0-1.074,3.94,3.476,3.476,0,0,0,4.681,1.706A3.353,3.353,0,0,0,212.938,206.2Z" transform="translate(-207.067 -204.614)" fill="#263238"/>
          </g>
          <g id="Group_6104" data-name="Group 6104" transform="translate(22.622 60.893)">
            <g id="Group_6103" data-name="Group 6103">
              <path id="Path_18315" data-name="Path 18315" d="M208.535,169.078c-.072.186-3.726-2.1-8.859-2.509-5.13-.483-9.122,1.139-9.16.942a8.3,8.3,0,0,1,2.573-.981,19.882,19.882,0,0,1,13.08,1.137A8.271,8.271,0,0,1,208.535,169.078Z" transform="translate(-190.516 -165.916)" fill="#263238"/>
            </g>
          </g>
          <g id="Group_6106" data-name="Group 6106" transform="translate(22.622 56.93)">
            <g id="Group_6105" data-name="Group 6105">
              <path id="Path_18316" data-name="Path 18316" d="M190.516,164.182a7.285,7.285,0,0,1,2.275-.963,20.1,20.1,0,0,1,11.808.1,7.274,7.274,0,0,1,2.26,1c-.056.185-3.559-1.341-8.162-1.35C194.1,162.9,190.568,164.367,190.516,164.182Z" transform="translate(-190.515 -162.379)" fill="#263238"/>
            </g>
          </g>
          <g id="Group_6108" data-name="Group 6108" transform="translate(64.529 10.819)">
            <g id="Group_6107" data-name="Group 6107">
              <path id="Path_18317" data-name="Path 18317" d="M237.981,169.262a12.336,12.336,0,0,1-.479-1.872c-.295-1.307-.686-3.037-1.157-5.131-1.051-4.41-2.462-10.335-4.022-16.883-1.567-6.6-2.813-12.621-3.51-17.015-.353-2.2-.6-3.979-.727-5.216a12.268,12.268,0,0,1-.149-1.928,12.2,12.2,0,0,1,.374,1.9c.195,1.226.5,2.994.909,5.177.8,4.366,2.1,10.357,3.671,16.953s2.974,12.57,3.857,16.929c.444,2.178.78,3.945.977,5.174A12.281,12.281,0,0,1,237.981,169.262Z" transform="translate(-227.925 -121.217)" fill="#263238"/>
            </g>
          </g>
          <g id="Group_6110" data-name="Group 6110" transform="translate(156.266 11.07)">
            <g id="Group_6109" data-name="Group 6109">
              <path id="Path_18318" data-name="Path 18318" d="M318.374,121.441a13.121,13.121,0,0,1-.248,1.969c-.22,1.353-.511,3.152-.865,5.331-.751,4.59-1.76,10.762-2.875,17.584-1.128,6.87-2.2,13.081-3.046,17.565-.422,2.242-.779,4.053-1.046,5.3a12.923,12.923,0,0,1-.471,1.927,12.978,12.978,0,0,1,.246-1.968c.22-1.353.511-3.152.864-5.331.751-4.59,1.76-10.763,2.877-17.588,1.127-6.867,2.2-13.079,3.045-17.562.422-2.242.779-4.053,1.046-5.3A12.576,12.576,0,0,1,318.374,121.441Z" transform="translate(-309.815 -121.441)" fill="#263238"/>
            </g>
          </g>
          <g id="Group_6112" data-name="Group 6112" transform="translate(187.678 54.912)">
            <g id="Group_6111" data-name="Group 6111">
              <path id="Path_18319" data-name="Path 18319" d="M353.214,160.9c-.007.1-1.245-.012-3.222.1a11.571,11.571,0,0,0-7.046,2.5A15.594,15.594,0,0,0,339,169.959a24.99,24.99,0,0,1-1.13,3.028,13.863,13.863,0,0,1,.739-3.161,14.649,14.649,0,0,1,3.956-6.776,9.489,9.489,0,0,1,3.887-2.023,14.344,14.344,0,0,1,3.528-.448,17.241,17.241,0,0,1,2.378.137A2.427,2.427,0,0,1,353.214,160.9Z" transform="translate(-337.855 -160.577)" fill="#263238"/>
            </g>
          </g>
          <g id="Group_6114" data-name="Group 6114" transform="translate(188.084 60.183)">
            <g id="Group_6113" data-name="Group 6113">
              <path id="Path_18320" data-name="Path 18320" d="M358.51,165.558c-.008.1-1.238.018-3.207.138a29.4,29.4,0,0,0-14.433,4.8c-1.648,1.084-2.584,1.885-2.649,1.81-.027-.03.183-.257.587-.644a17.6,17.6,0,0,1,1.828-1.506,25.683,25.683,0,0,1,14.652-4.872,17.728,17.728,0,0,1,2.366.11A2.549,2.549,0,0,1,358.51,165.558Z" transform="translate(-338.218 -165.282)" fill="#263238"/>
            </g>
          </g>
          <g id="Group_6116" data-name="Group 6116" transform="translate(83.677 102.674)">
            <g id="Group_6115" data-name="Group 6115">
              <path id="Path_18321" data-name="Path 18321" d="M252.521,206.057a21.78,21.78,0,0,1-3.781-1.326,21.743,21.743,0,0,1-3.723-1.48,16.283,16.283,0,0,1,7.5,2.806Z" transform="translate(-245.017 -203.213)" fill="#263238"/>
            </g>
          </g>
          <g id="Group_6118" data-name="Group 6118" transform="translate(81.892 94.245)">
            <g id="Group_6117" data-name="Group 6117">
              <path id="Path_18322" data-name="Path 18322" d="M254.148,195.7c.094.146-2.525,1.935-5.472,4.483s-5.118,4.861-5.247,4.746a33.418,33.418,0,0,1,10.72-9.23Z" transform="translate(-243.424 -195.689)" fill="#263238"/>
            </g>
          </g>
          <g id="Group_6120" data-name="Group 6120" transform="translate(65.262 171.003)">
            <g id="Group_6119" data-name="Group 6119">
              <path id="Path_18323" data-name="Path 18323" d="M329.379,264.224c.009.161-22.552,1.481-50.383,2.947s-50.409,2.526-50.418,2.365,22.547-1.48,50.387-2.947S329.372,264.064,329.379,264.224Z" transform="translate(-228.579 -264.208)" fill="#263238"/>
            </g>
          </g>
          <g id="Group_6121" data-name="Group 6121" transform="translate(67.973 176.332)">
            <path id="Path_18324" data-name="Path 18324" d="M231,268.964" transform="translate(-230.999 -268.964)" fill="none" stroke="#263238" stroke-miterlimit="10" stroke-width="0.05"/>
          </g>
          <g id="Group_6123" data-name="Group 6123" transform="translate(186.309 53.284)" opacity="0.3">
            <g id="Group_6122" data-name="Group 6122">
              <path id="Path_18325" data-name="Path 18325" d="M337.174,172.015a10.732,10.732,0,0,1,3.942-12.029,3.759,3.759,0,0,1,2.711-.823,1.7,1.7,0,0,1,1.392,2.116,3.11,3.11,0,0,1-1.37,1.205,9.739,9.739,0,0,0-3.672,4.785,29.041,29.041,0,0,0-1.4,5.961" transform="translate(-336.634 -159.123)"/>
            </g>
          </g>
          <g id="Group_6125" data-name="Group 6125" transform="translate(84.694 30.705)" opacity="0.3">
            <g id="Group_6124" data-name="Group 6124">
              <path id="Path_18326" data-name="Path 18326" d="M245.925,139.109c.211.6,4.215,1.06,4.974,2.717a8.28,8.28,0,0,1,.059,5.36,16.056,16.056,0,0,0-.818,5.373c.342,3.25,3.007,5.7,5.491,7.819,6.947,5.931,15.4,12.333,22.348,18.264-6.234-7.371-14.288-14.947-21.129-21.758a9.416,9.416,0,0,1-2.526-3.41c-.58-1.694-.138-3.549.308-5.283q.884-3.446,1.77-6.894c.152-.59.491-1.589.569-1.914a14.546,14.546,0,0,0-2.51-.212,62.627,62.627,0,0,0-8.536-.062" transform="translate(-245.925 -138.968)"/>
            </g>
          </g>
          <g id="Group_6127" data-name="Group 6127" transform="translate(46.115 88.641)">
            <g id="Group_6126" data-name="Group 6126">
              <path id="Path_18327" data-name="Path 18327" d="M211.494,210.546a3.2,3.2,0,0,1,.357-.921c.261-.577.677-1.395,1.22-2.388a63.506,63.506,0,0,1,10.61-14.113c.8-.8,1.473-1.425,1.955-1.836s.757-.628.785-.6a30.913,30.913,0,0,1-2.442,2.72c-1.525,1.659-3.565,4.008-5.63,6.753s-3.751,5.358-4.92,7.283A31.505,31.505,0,0,1,211.494,210.546Z" transform="translate(-211.487 -190.686)" fill="#263238"/>
            </g>
          </g>
          <g id="Group_6129" data-name="Group 6129" transform="translate(37.386 80.75)">
            <g id="Group_6128" data-name="Group 6128">
              <path id="Path_18328" data-name="Path 18328" d="M220.732,183.644c.066.071-1.227,1.315-3.153,3.468a68.627,68.627,0,0,0-12.065,18.941c-1.137,2.656-1.717,4.353-1.81,4.323a5.29,5.29,0,0,1,.3-1.228c.223-.782.6-1.9,1.129-3.251a58.441,58.441,0,0,1,12.143-19.064c1.007-1.049,1.855-1.865,2.469-2.4A5.284,5.284,0,0,1,220.732,183.644Z" transform="translate(-203.695 -183.642)" fill="#263238"/>
            </g>
          </g>
          <g id="Group_6131" data-name="Group 6131" transform="translate(175.879 80.523)">
            <g id="Group_6130" data-name="Group 6130">
              <path id="Path_18329" data-name="Path 18329" d="M350.252,206.313a5.387,5.387,0,0,1-.9-.914l-2.327-2.577c-1.971-2.169-4.758-5.107-7.92-8.269s-6.114-5.934-8.288-7.9l-2.583-2.32a5.318,5.318,0,0,1-.915-.893,5.566,5.566,0,0,1,1.06.718c.656.5,1.591,1.233,2.71,2.184,2.251,1.892,5.249,4.632,8.429,7.8s5.92,6.162,7.818,8.407c.953,1.118,1.695,2.05,2.191,2.705A5.462,5.462,0,0,1,350.252,206.313Z" transform="translate(-327.323 -183.439)" fill="#263238"/>
            </g>
          </g>
        </g>
        <g id="Group_6133" data-name="Group 6133" transform="translate(199.122 178.048)">
          <path id="Path_18330" data-name="Path 18330" d="M224.017,196.679l7.338,3.952,16.276,4.623s-3.394,22.269-5.484,24.168-25.9-18.1-25.9-18.1Z" transform="translate(-216.251 -196.679)" fill="#ffbe9d"/>
        </g>
        <g id="Group_6134" data-name="Group 6134" transform="translate(297.272 176.711)">
          <path id="Path_18331" data-name="Path 18331" d="M324.435,195.486l-5.292,4.122-15.277,7.275s7.063,21.39,9.439,22.913,22.512-22.167,22.512-22.167Z" transform="translate(-303.866 -195.486)" fill="#ffbe9d"/>
        </g>
        <g id="Group_6242" data-name="Group 6242" transform="translate(218.164)">
          <g id="Group_6135" data-name="Group 6135" transform="translate(16.231 16.01)">
            <path id="Path_18332" data-name="Path 18332" d="M256.015,52.034c-.208,5.73-7.847,9.2-7.75,14.937.043,2.46,1.568,4.669,1.869,7.112.4,3.283-1.433,6.383-2.111,9.621-1.4,6.671,2.482,13.708,8.237,17.359s12.979,4.35,19.731,3.425" transform="translate(-247.738 -52.034)" fill="#263238"/>
          </g>
          <g id="Group_6230" data-name="Group 6230" transform="translate(22.432)">
            <g id="Group_6136" data-name="Group 6136" transform="translate(25.058 14.606)">
              <path id="Path_18333" data-name="Path 18333" d="M298.793,50.78c-.226,3.076,1.8,5.824,3.853,8.132s4.324,4.713,4.766,7.766c.785,5.41-4.512,10.434-3.419,15.79.585,2.871,2.935,5.178,3.354,8.077.406,2.8-1.1,5.55-2.961,7.685s-4.022,1.824-5.669,4.128a23.17,23.17,0,0,1-7.149,6.355c-5.936,3.25-13.061-1.453-15.924-2.3" transform="translate(-275.642 -50.78)" fill="#263238"/>
            </g>
            <g id="Group_6137" data-name="Group 6137">
              <path id="Path_18334" data-name="Path 18334" d="M254.2,57.052c-.08-2.789,2.5-4.946,5.1-5.968s5.484-1.407,7.8-2.965c2.05-1.38,3.427-3.532,5.162-5.292a17.181,17.181,0,0,1,28.894,7.883c1,3.973.316,8.671-2.816,11.311-3.634,3.064-9.024,2.384-13.68,1.431s-9.93-1.893-13.818.841c-2.346,1.65-3.69,4.333-5.124,6.817s-3.232,5.019-5.943,5.952-6.392-.679-6.5-3.543" transform="translate(-253.274 -37.742)" fill="#263238"/>
            </g>
            <g id="Group_6228" data-name="Group 6228" transform="translate(7.761 13.513)">
              <g id="Group_6227" data-name="Group 6227">
                <g id="Group_6226" data-name="Group 6226">
                  <g id="Group_6225" data-name="Group 6225">
                    <g id="Group_6210" data-name="Group 6210">
                      <g id="Group_6209" data-name="Group 6209">
                        <g id="Group_6208" data-name="Group 6208">
                          <g id="Group_6144" data-name="Group 6144">
                            <g id="Group_6143" data-name="Group 6143">
                              <g id="Group_6142" data-name="Group 6142">
                                <g id="Group_6141" data-name="Group 6141">
                                  <g id="Group_6140" data-name="Group 6140">
                                    <g id="Group_6139" data-name="Group 6139">
                                      <g id="Group_6138" data-name="Group 6138">
                                        <path id="Path_18335" data-name="Path 18335" d="M264.369,56.174a4.67,4.67,0,0,0-4.166,4.745h0l2.785,63.049c.117,7.446,11,11.63,18.974,11.444h0c8.051-.187,8.311-4.136,8.411-11.22.169-11.835.155-16.278.159-16.211,0,0,10.17-1.712,12.248-14.99,1.034-6.6.679-17.425.1-26.271-.52-7.962-5.817-17.721-13.75-16.863Z" transform="translate(-260.202 -49.805)" fill="#ffbe9d"/>
                                      </g>
                                    </g>
                                  </g>
                                </g>
                              </g>
                            </g>
                          </g>
                          <g id="Group_6160" data-name="Group 6160" transform="translate(33.615 20.769)">
                            <g id="Group_6151" data-name="Group 6151" transform="translate(1.452 2.197)">
                              <g id="Group_6150" data-name="Group 6150">
                                <g id="Group_6149" data-name="Group 6149">
                                  <g id="Group_6148" data-name="Group 6148">
                                    <g id="Group_6147" data-name="Group 6147">
                                      <g id="Group_6146" data-name="Group 6146">
                                        <g id="Group_6145" data-name="Group 6145">
                                          <path id="Path_18336" data-name="Path 18336" d="M294.9,71.841a1.7,1.7,0,0,1-1.638,1.722,1.63,1.63,0,0,1-1.759-1.531,1.7,1.7,0,0,1,1.636-1.722A1.63,1.63,0,0,1,294.9,71.841Z" transform="translate(-291.505 -70.306)" fill="#263238"/>
                                        </g>
                                      </g>
                                    </g>
                                  </g>
                                </g>
                              </g>
                            </g>
                            <g id="Group_6159" data-name="Group 6159">
                              <g id="Group_6158" data-name="Group 6158">
                                <g id="Group_6157" data-name="Group 6157">
                                  <g id="Group_6156" data-name="Group 6156">
                                    <g id="Group_6155" data-name="Group 6155">
                                      <g id="Group_6154" data-name="Group 6154">
                                        <g id="Group_6153" data-name="Group 6153">
                                          <g id="Group_6152" data-name="Group 6152">
                                            <path id="Path_18337" data-name="Path 18337" d="M296.937,70.127c-.211.222-1.5-.729-3.334-.721-1.83-.017-3.171.929-3.372.7-.1-.1.117-.5.7-.928a4.671,4.671,0,0,1,2.7-.838,4.483,4.483,0,0,1,2.655.85C296.849,69.627,297.041,70.028,296.937,70.127Z" transform="translate(-290.209 -68.345)" fill="#263238"/>
                                          </g>
                                        </g>
                                      </g>
                                    </g>
                                  </g>
                                </g>
                              </g>
                            </g>
                          </g>
                          <g id="Group_6176" data-name="Group 6176" transform="translate(15.61 21.15)">
                            <g id="Group_6167" data-name="Group 6167" transform="translate(1.686 1.816)">
                              <g id="Group_6166" data-name="Group 6166">
                                <g id="Group_6165" data-name="Group 6165">
                                  <g id="Group_6164" data-name="Group 6164">
                                    <g id="Group_6163" data-name="Group 6163">
                                      <g id="Group_6162" data-name="Group 6162">
                                        <g id="Group_6161" data-name="Group 6161">
                                          <path id="Path_18338" data-name="Path 18338" d="M279.039,71.841a1.7,1.7,0,0,1-1.638,1.722,1.628,1.628,0,0,1-1.758-1.531,1.7,1.7,0,0,1,1.636-1.722A1.629,1.629,0,0,1,279.039,71.841Z" transform="translate(-275.642 -70.306)" fill="#263238"/>
                                        </g>
                                      </g>
                                    </g>
                                  </g>
                                </g>
                              </g>
                            </g>
                            <g id="Group_6175" data-name="Group 6175">
                              <g id="Group_6174" data-name="Group 6174">
                                <g id="Group_6173" data-name="Group 6173">
                                  <g id="Group_6172" data-name="Group 6172">
                                    <g id="Group_6171" data-name="Group 6171">
                                      <g id="Group_6170" data-name="Group 6170">
                                        <g id="Group_6169" data-name="Group 6169">
                                          <g id="Group_6168" data-name="Group 6168">
                                            <path id="Path_18339" data-name="Path 18339" d="M280.865,70.467c-.211.223-1.5-.728-3.335-.719-1.829-.018-3.173.928-3.371.7-.1-.1.113-.5.7-.928a4.678,4.678,0,0,1,2.7-.839,4.5,4.5,0,0,1,2.654.85C280.776,69.968,280.968,70.369,280.865,70.467Z" transform="translate(-274.137 -68.685)" fill="#263238"/>
                                          </g>
                                        </g>
                                      </g>
                                    </g>
                                  </g>
                                </g>
                              </g>
                            </g>
                          </g>
                          <g id="Group_6184" data-name="Group 6184" transform="translate(28.125 21.242)">
                            <g id="Group_6183" data-name="Group 6183">
                              <g id="Group_6182" data-name="Group 6182">
                                <g id="Group_6181" data-name="Group 6181">
                                  <g id="Group_6180" data-name="Group 6180">
                                    <g id="Group_6179" data-name="Group 6179">
                                      <g id="Group_6178" data-name="Group 6178">
                                        <g id="Group_6177" data-name="Group 6177">
                                          <path id="Path_18340" data-name="Path 18340" d="M286.2,84.028a12.1,12.1,0,0,1,2.973-.543c.468-.05.911-.143.989-.463a2.38,2.38,0,0,0-.315-1.386q-.665-1.7-1.391-3.559c-1.932-5.067-3.333-9.233-3.128-9.309s1.937,3.969,3.869,9.036q.7,1.874,1.333,3.58a2.711,2.711,0,0,1,.246,1.835,1.174,1.174,0,0,1-.768.686,3.182,3.182,0,0,1-.794.112A11.906,11.906,0,0,1,286.2,84.028Z" transform="translate(-285.308 -68.767)" fill="#263238"/>
                                        </g>
                                      </g>
                                    </g>
                                  </g>
                                </g>
                              </g>
                            </g>
                          </g>
                          <g id="Group_6191" data-name="Group 6191" transform="translate(12.543 53.475)">
                            <g id="Group_6190" data-name="Group 6190">
                              <g id="Group_6189" data-name="Group 6189">
                                <g id="Group_6188" data-name="Group 6188">
                                  <g id="Group_6187" data-name="Group 6187">
                                    <g id="Group_6186" data-name="Group 6186">
                                      <g id="Group_6185" data-name="Group 6185">
                                        <path id="Path_18341" data-name="Path 18341" d="M289.185,102.242a33.763,33.763,0,0,1-17.786-4.7c.149.031,4.894,9.226,17.615,7.837Z" transform="translate(-271.399 -97.54)" fill="#eb996e"/>
                                      </g>
                                    </g>
                                  </g>
                                </g>
                              </g>
                            </g>
                          </g>
                          <g id="Group_6199" data-name="Group 6199" transform="translate(22.79 39.68)">
                            <g id="Group_6198" data-name="Group 6198">
                              <g id="Group_6197" data-name="Group 6197">
                                <g id="Group_6196" data-name="Group 6196">
                                  <g id="Group_6195" data-name="Group 6195">
                                    <g id="Group_6194" data-name="Group 6194">
                                      <g id="Group_6193" data-name="Group 6193">
                                        <g id="Group_6192" data-name="Group 6192">
                                          <path id="Path_18342" data-name="Path 18342" d="M286.007,86.465a3.3,3.3,0,0,0-2.962-1.219,3.015,3.015,0,0,0-2.078,1.12,1.911,1.911,0,0,0-.141,2.183,2.215,2.215,0,0,0,2.4.6,6.953,6.953,0,0,0,2.339-1.4,2.038,2.038,0,0,0,.522-.543.614.614,0,0,0,0-.681" transform="translate(-280.546 -85.226)" fill="#2178ab"/>
                                        </g>
                                      </g>
                                    </g>
                                  </g>
                                </g>
                              </g>
                            </g>
                          </g>
                          <g id="Group_6207" data-name="Group 6207" transform="translate(23.333 37.782)">
                            <g id="Group_6206" data-name="Group 6206">
                              <g id="Group_6205" data-name="Group 6205">
                                <g id="Group_6204" data-name="Group 6204">
                                  <g id="Group_6203" data-name="Group 6203">
                                    <g id="Group_6202" data-name="Group 6202">
                                      <g id="Group_6201" data-name="Group 6201">
                                        <g id="Group_6200" data-name="Group 6200">
                                          <path id="Path_18343" data-name="Path 18343" d="M281.326,83.532c.3-.018.306,1.971,2.011,3.378s3.821,1.184,3.837,1.462c.029.124-.471.388-1.366.413a4.954,4.954,0,0,1-3.2-1.108,4.313,4.313,0,0,1-1.558-2.832C280.969,84.014,281.189,83.52,281.326,83.532Z" transform="translate(-281.031 -83.532)" fill="#263238"/>
                                        </g>
                                      </g>
                                    </g>
                                  </g>
                                </g>
                              </g>
                            </g>
                          </g>
                        </g>
                      </g>
                    </g>
                    <g id="Group_6217" data-name="Group 6217" transform="translate(14.798 18.358)">
                      <g id="Group_6216" data-name="Group 6216">
                        <g id="Group_6215" data-name="Group 6215">
                          <g id="Group_6214" data-name="Group 6214">
                            <g id="Group_6213" data-name="Group 6213">
                              <g id="Group_6212" data-name="Group 6212">
                                <g id="Group_6211" data-name="Group 6211">
                                  <path id="Path_18344" data-name="Path 18344" d="M281.769,67.559c-.18.5-2.009.265-4.157.53-2.154.221-3.886.854-4.172.408-.128-.214.173-.682.873-1.167a7.286,7.286,0,0,1,6.345-.714C281.448,66.931,281.846,67.322,281.769,67.559Z" transform="translate(-273.411 -66.193)" fill="#263238"/>
                                </g>
                              </g>
                            </g>
                          </g>
                        </g>
                      </g>
                    </g>
                    <g id="Group_6224" data-name="Group 6224" transform="translate(33.42 15.361)">
                      <g id="Group_6223" data-name="Group 6223">
                        <g id="Group_6222" data-name="Group 6222">
                          <g id="Group_6221" data-name="Group 6221">
                            <g id="Group_6220" data-name="Group 6220">
                              <g id="Group_6219" data-name="Group 6219">
                                <g id="Group_6218" data-name="Group 6218">
                                  <path id="Path_18345" data-name="Path 18345" d="M296.274,65.408c-.322.416-1.585-.013-3.1-.03-1.516-.069-2.8.287-3.1-.149-.13-.211.071-.627.632-1.023a4.494,4.494,0,0,1,5,.143C296.238,64.776,296.415,65.2,296.274,65.408Z" transform="translate(-290.035 -63.517)" fill="#263238"/>
                                </g>
                              </g>
                            </g>
                          </g>
                        </g>
                      </g>
                    </g>
                  </g>
                </g>
              </g>
            </g>
            <g id="Group_6229" data-name="Group 6229" transform="translate(3.307 10.683)">
              <path id="Path_18346" data-name="Path 18346" d="M259.229,100.884c3.651.736,3.977-1.122,6.7-3.658A11.988,11.988,0,0,0,269.6,87.114c-.413-3.26-2.171-6.577-1.041-9.662,1.494-4.08,7.212-5.335,8.73-9.406.883-2.366.091-5.134,1.09-7.452.94-2.181,3.234-3.437,5.467-4.245s4.627-1.364,6.5-2.822,3.044-4.207,1.835-6.25a125.739,125.739,0,0,0-29.005,7.047c-2.167.809-4.442,1.781-5.722,3.706-1.354,2.038-1.291,4.67-1.176,7.115q.835,17.877,1.668,35.755" transform="translate(-256.226 -47.278)" fill="#263238"/>
            </g>
          </g>
          <g id="Group_6231" data-name="Group 6231" transform="translate(0 28.01)">
            <path id="Path_18347" data-name="Path 18347" d="M253.644,71.945a10.187,10.187,0,0,0-19.279-3.527c-1.846,3.748-1.208,8.311.515,12.118,2.047,4.524,6.239,8.656,11.2,8.432,4.667-.212,8.423-4.311,9.768-8.784s.8-9.269.246-13.907" transform="translate(-233.25 -62.746)" fill="#263238"/>
          </g>
          <g id="Group_6233" data-name="Group 6233" transform="translate(15.986 30.276)">
            <g id="Group_6232" data-name="Group 6232">
              <path id="Path_18348" data-name="Path 18348" d="M249.327,89.882a2.33,2.33,0,0,1-.695-.77,6.53,6.53,0,0,1-.99-2.657,12.721,12.721,0,0,1,.12-4.193c.27-1.563.8-3.2,1.181-4.936a12.353,12.353,0,0,0,.289-4.912c-.271-1.478-.967-2.733-1.273-3.9a5.047,5.047,0,0,1-.08-2.839c.209-.654.5-.925.516-.905.044.026-.168.334-.3.961a5.245,5.245,0,0,0,.254,2.663,33.674,33.674,0,0,1,1.406,3.92,12.323,12.323,0,0,1-.248,5.139c-.392,1.772-.933,3.4-1.221,4.908a13.247,13.247,0,0,0-.24,4.04A8.353,8.353,0,0,0,249.327,89.882Z" transform="translate(-247.52 -64.768)" fill="#455a64"/>
            </g>
          </g>
          <g id="Group_6235" data-name="Group 6235" transform="translate(0.341 39.445)">
            <g id="Group_6234" data-name="Group 6234">
              <path id="Path_18349" data-name="Path 18349" d="M250.814,72.957a6.455,6.455,0,0,1-2.034,1.993,11.645,11.645,0,0,1-13.119.23,6.434,6.434,0,0,1-2.1-1.92c.071-.074.83.709,2.319,1.568a12.129,12.129,0,0,0,12.676-.222C250.009,73.7,250.741,72.886,250.814,72.957Z" transform="translate(-233.554 -72.953)" fill="#455a64"/>
            </g>
          </g>
          <g id="Group_6237" data-name="Group 6237" transform="translate(3.833 41.527)">
            <g id="Group_6236" data-name="Group 6236">
              <path id="Path_18350" data-name="Path 18350" d="M249.781,74.814a6.047,6.047,0,0,1-1.125,2.085,14.521,14.521,0,0,1-9.617,5.784,6.081,6.081,0,0,1-2.368.017,21.966,21.966,0,0,1,2.3-.423,16.53,16.53,0,0,0,9.363-5.63A22.176,22.176,0,0,1,249.781,74.814Z" transform="translate(-236.671 -74.812)" fill="#455a64"/>
            </g>
          </g>
          <g id="Group_6239" data-name="Group 6239" transform="translate(18.753 6.201)">
            <g id="Group_6238" data-name="Group 6238">
              <path id="Path_18351" data-name="Path 18351" d="M251.521,96.91c-.008.007-.057-.049-.146-.165a4.726,4.726,0,0,1-.366-.531,7.058,7.058,0,0,1-.874-2.321,8.167,8.167,0,0,1,.213-3.92,7.5,7.5,0,0,1,3.09-4.155c1.574-1.11,3.625-1.883,4.927-3.65a3.984,3.984,0,0,0,.721-3.118,17.726,17.726,0,0,0-1.154-3.444,9.9,9.9,0,0,1,.17-7.925,8.67,8.67,0,0,1,2.693-3.346,10.5,10.5,0,0,1,4.071-1.688c1.437-.328,2.871-.519,4.2-.92a8.2,8.2,0,0,0,3.52-1.925,5.852,5.852,0,0,0,1.526-3.483,29.975,29.975,0,0,1,.625-3.859,13.292,13.292,0,0,1,3.583-6.279,10.485,10.485,0,0,1,5.639-2.8,8.389,8.389,0,0,1,5.131.776,8.1,8.1,0,0,1,2.968,2.57,6.861,6.861,0,0,1,1.038,2.253,3.506,3.506,0,0,1,.129.854,8.418,8.418,0,0,0-1.351-2.973,8,8,0,0,0-7.851-3.072,10.1,10.1,0,0,0-5.367,2.739,12.867,12.867,0,0,0-3.4,6.066,29.871,29.871,0,0,0-.594,3.807A6.4,6.4,0,0,1,273,60.2a8.7,8.7,0,0,1-3.761,2.08c-1.395.421-2.832.611-4.24.933A9.977,9.977,0,0,0,261.14,64.8a8.139,8.139,0,0,0-2.519,3.12,9.375,9.375,0,0,0-.186,7.493,17.971,17.971,0,0,1,1.159,3.558,4.492,4.492,0,0,1-.837,3.478c-1.448,1.9-3.559,2.645-5.087,3.707a7.176,7.176,0,0,0-3.01,3.911,8.1,8.1,0,0,0-.3,3.783A8.9,8.9,0,0,0,251.521,96.91Z" transform="translate(-249.99 -43.277)" fill="#455a64"/>
            </g>
          </g>
          <g id="Group_6241" data-name="Group 6241" transform="translate(20.996 1.795)">
            <g id="Group_6240" data-name="Group 6240">
              <path id="Path_18352" data-name="Path 18352" d="M252.169,60.324a1.473,1.473,0,0,1-.165-.613,2.863,2.863,0,0,1,.441-1.763,4.5,4.5,0,0,1,2.219-1.835,6.984,6.984,0,0,1,3.813-.127c1.391.263,2.832.82,4.411,1.125a5.878,5.878,0,0,0,4.8-.755c1.41-1.072,2.118-2.931,2.842-4.778a19.826,19.826,0,0,1,3.068-5.466,18.353,18.353,0,0,1,10.045-6.5,10.514,10.514,0,0,1,5.3.14,8.246,8.246,0,0,1,3.884,2.51,6.121,6.121,0,0,1,1.469,3.516,6.028,6.028,0,0,1-.438,2.845,4.579,4.579,0,0,1-1,1.516,1.885,1.885,0,0,1-.49.4,6.435,6.435,0,0,0,1.277-2,5.958,5.958,0,0,0,.325-2.73,5.837,5.837,0,0,0-1.459-3.281,7.884,7.884,0,0,0-3.709-2.314,10.119,10.119,0,0,0-5.049-.077,18.023,18.023,0,0,0-9.7,6.336,19.448,19.448,0,0,0-2.991,5.313c-.734,1.83-1.461,3.793-3.05,5a5.039,5.039,0,0,1-2.62.984,8.929,8.929,0,0,1-2.6-.183c-1.638-.341-3.056-.916-4.4-1.2a6.739,6.739,0,0,0-3.615.028,4.338,4.338,0,0,0-2.141,1.65,2.869,2.869,0,0,0-.515,1.637C252.122,60.108,252.2,60.315,252.169,60.324Z" transform="translate(-251.992 -39.344)" fill="#455a64"/>
            </g>
          </g>
        </g>
      </g>
    </g>
    <g id="Plants" transform="translate(71.407 324.553)">
      <g id="Group_6385" data-name="Group 6385" transform="translate(360.387)">
        <g id="Group_6373" data-name="Group 6373">
          <g id="Group_6247" data-name="Group 6247" transform="translate(13.22)">
            <g id="Group_6246" data-name="Group 6246">
              <g id="Group_6245" data-name="Group 6245">
                <g id="Group_6244" data-name="Group 6244">
                  <path id="Path_18353" data-name="Path 18353" d="M418.852,473.572a2.81,2.81,0,0,1,.189-.457c.152-.324.354-.757.614-1.308a32.841,32.841,0,0,0,1.8-5.238c1.194-4.657,1.611-11.774-.152-20.226a108.865,108.865,0,0,0-3.752-13.586c-1.589-4.823-3.434-9.939-4.939-15.469a59.86,59.86,0,0,1-2.439-17.784c.229-6.291,2.09-12.571,4.139-18.821s4.157-12.379,4.791-18.534a28.245,28.245,0,0,0-3.4-17.118c-2.71-4.994-6.121-9.266-8.674-13.692a47.6,47.6,0,0,1-5.214-13.162,49.033,49.033,0,0,1-.33-20.392,38.1,38.1,0,0,1,2.128-7.2,2.794,2.794,0,0,1-.127.479c-.106.341-.249.8-.431,1.381a52.547,52.547,0,0,0-1.322,5.389,49.667,49.667,0,0,0,.529,20.239,47.449,47.449,0,0,0,5.232,12.994c2.546,4.373,5.972,8.627,8.737,13.68a28.819,28.819,0,0,1,3.5,17.466c-.637,6.259-2.767,12.419-4.806,18.672s-3.889,12.458-4.121,18.643a59.519,59.519,0,0,0,2.381,17.6c1.482,5.5,3.3,10.621,4.872,15.456a107.121,107.121,0,0,1,3.691,13.667c1.716,8.516,1.228,15.7-.052,20.377a30.313,30.313,0,0,1-1.93,5.23c-.285.541-.507.967-.673,1.284A2.806,2.806,0,0,1,418.852,473.572Z" transform="translate(-400.576 -290.582)" fill="#263238"/>
                </g>
              </g>
            </g>
          </g>
          <g id="Group_6256" data-name="Group 6256" transform="translate(21.704 18.659)">
            <g id="Group_6251" data-name="Group 6251">
              <g id="Group_6250" data-name="Group 6250">
                <g id="Group_6249" data-name="Group 6249">
                  <g id="Group_6248" data-name="Group 6248">
                    <path id="Path_18354" data-name="Path 18354" d="M409.59,333.7s-5.183-16.574,4.115-26.28a.575.575,0,0,1,.986.286C415.186,310.443,415.807,318.781,409.59,333.7Z" transform="translate(-408.149 -307.239)" fill="#2178ab"/>
                  </g>
                </g>
              </g>
            </g>
            <g id="Group_6255" data-name="Group 6255" transform="translate(1.253 5.706)">
              <g id="Group_6254" data-name="Group 6254">
                <g id="Group_6253" data-name="Group 6253">
                  <g id="Group_6252" data-name="Group 6252">
                    <path id="Path_18355" data-name="Path 18355" d="M412.562,312.332a15.311,15.311,0,0,1-.35,3.057c-.342,2.106-.742,4.58-1.183,7.311s-.827,5.2-1.161,7.311a16.677,16.677,0,0,1-.549,3.025,12.847,12.847,0,0,1,.093-3.081c.171-1.893.505-4.5.976-7.359s.966-5.435,1.372-7.291A13.636,13.636,0,0,1,412.562,312.332Z" transform="translate(-409.268 -312.332)" fill="#263238"/>
                  </g>
                </g>
              </g>
            </g>
          </g>
          <g id="Group_6265" data-name="Group 6265" transform="translate(29.133 62.878)">
            <g id="Group_6260" data-name="Group 6260" transform="translate(0.101)">
              <g id="Group_6259" data-name="Group 6259">
                <g id="Group_6258" data-name="Group 6258">
                  <g id="Group_6257" data-name="Group 6257">
                    <path id="Path_18356" data-name="Path 18356" d="M414.871,368.046s3.169-17.074,15.925-21.3a.575.575,0,0,1,.739.711C430.694,350.106,427.343,357.767,414.871,368.046Z" transform="translate(-414.871 -346.711)" fill="#2178ab"/>
                  </g>
                </g>
              </g>
            </g>
            <g id="Group_6264" data-name="Group 6264" transform="translate(0 4.438)">
              <g id="Group_6263" data-name="Group 6263">
                <g id="Group_6262" data-name="Group 6262">
                  <g id="Group_6261" data-name="Group 6261">
                    <path id="Path_18357" data-name="Path 18357" d="M427.333,350.675a15.3,15.3,0,0,1-1.739,2.54l-4.464,5.909-4.445,5.918a16.813,16.813,0,0,1-1.9,2.419,12.8,12.8,0,0,1,1.522-2.681c1.037-1.593,2.55-3.74,4.3-6.048s3.4-4.352,4.622-5.8A13.782,13.782,0,0,1,427.333,350.675Z" transform="translate(-414.781 -350.673)" fill="#263238"/>
                  </g>
                </g>
              </g>
            </g>
          </g>
          <g id="Group_6274" data-name="Group 6274" transform="translate(25.647 101.928)">
            <g id="Group_6269" data-name="Group 6269" transform="translate(0.008)">
              <g id="Group_6268" data-name="Group 6268">
                <g id="Group_6267" data-name="Group 6267">
                  <g id="Group_6266" data-name="Group 6266">
                    <path id="Path_18358" data-name="Path 18358" d="M411.806,406.691s-1.925-17.261,9.054-25.013a.575.575,0,0,1,.913.467C421.738,384.927,420.757,393.231,411.806,406.691Z" transform="translate(-411.676 -381.57)" fill="#2178ab"/>
                  </g>
                </g>
              </g>
            </g>
            <g id="Group_6273" data-name="Group 6273" transform="translate(0 5.336)">
              <g id="Group_6272" data-name="Group 6272">
                <g id="Group_6271" data-name="Group 6271">
                  <g id="Group_6270" data-name="Group 6270">
                    <path id="Path_18359" data-name="Path 18359" d="M418.816,386.334a15.211,15.211,0,0,1-.926,2.936c-.736,2-1.6,4.353-2.555,6.951s-1.8,4.95-2.534,6.954a16.616,16.616,0,0,1-1.116,2.864,12.831,12.831,0,0,1,.68-3.006c.529-1.827,1.354-4.321,2.36-7.04s1.985-5.15,2.738-6.894A13.912,13.912,0,0,1,418.816,386.334Z" transform="translate(-411.669 -386.333)" fill="#263238"/>
                  </g>
                </g>
              </g>
            </g>
          </g>
          <g id="Group_6283" data-name="Group 6283" transform="translate(35.262 145.366)">
            <g id="Group_6278" data-name="Group 6278" transform="translate(0.088)">
              <g id="Group_6277" data-name="Group 6277">
                <g id="Group_6276" data-name="Group 6276">
                  <g id="Group_6275" data-name="Group 6275">
                    <path id="Path_18360" data-name="Path 18360" d="M420.377,445.115s-1.307-17.318,9.942-24.672a.574.574,0,0,1,.9.5C431.08,423.72,429.8,431.983,420.377,445.115Z" transform="translate(-420.331 -420.345)" fill="#2178ab"/>
                  </g>
                </g>
              </g>
            </g>
            <g id="Group_6282" data-name="Group 6282" transform="translate(0 5.248)">
              <g id="Group_6281" data-name="Group 6281">
                <g id="Group_6280" data-name="Group 6280">
                  <g id="Group_6279" data-name="Group 6279">
                    <path id="Path_18361" data-name="Path 18361" d="M428.1,425.031a15.155,15.155,0,0,1-1.031,2.9c-.807,1.975-1.754,4.294-2.8,6.855s-1.979,4.883-2.78,6.859a16.612,16.612,0,0,1-1.218,2.823,12.861,12.861,0,0,1,.786-2.98c.595-1.806,1.508-4.268,2.611-6.949s2.17-5.076,2.983-6.792A13.965,13.965,0,0,1,428.1,425.031Z" transform="translate(-420.252 -425.03)" fill="#263238"/>
                  </g>
                </g>
              </g>
            </g>
          </g>
          <g id="Group_6292" data-name="Group 6292" transform="translate(0 8.484)">
            <g id="Group_6287" data-name="Group 6287">
              <g id="Group_6286" data-name="Group 6286">
                <g id="Group_6285" data-name="Group 6285">
                  <g id="Group_6284" data-name="Group 6284">
                    <path id="Path_18362" data-name="Path 18362" d="M404.471,320.23s-15.394-8.04-15.7-21.476a.574.574,0,0,1,.9-.5C391.961,299.841,398.3,305.29,404.471,320.23Z" transform="translate(-388.775 -298.156)" fill="#2178ab"/>
                  </g>
                </g>
              </g>
            </g>
            <g id="Group_6291" data-name="Group 6291" transform="translate(3.19 5.212)">
              <g id="Group_6290" data-name="Group 6290">
                <g id="Group_6289" data-name="Group 6289">
                  <g id="Group_6288" data-name="Group 6288">
                    <path id="Path_18363" data-name="Path 18363" d="M391.629,302.81a15.2,15.2,0,0,1,1.918,2.407c1.251,1.729,2.718,3.758,4.34,6s3.1,4.261,4.354,5.985a16.546,16.546,0,0,1,1.753,2.525,12.945,12.945,0,0,1-2.114-2.242c-1.22-1.46-2.829-3.537-4.52-5.889s-3.166-4.522-4.192-6.121A13.811,13.811,0,0,1,391.629,302.81Z" transform="translate(-391.622 -302.808)" fill="#263238"/>
                  </g>
                </g>
              </g>
            </g>
          </g>
          <g id="Group_6301" data-name="Group 6301" transform="translate(15.252 45.039)">
            <g id="Group_6296" data-name="Group 6296">
              <g id="Group_6295" data-name="Group 6295">
                <g id="Group_6294" data-name="Group 6294">
                  <g id="Group_6293" data-name="Group 6293">
                    <path id="Path_18364" data-name="Path 18364" d="M419.363,351.9s-15.854-7.089-16.971-20.482a.575.575,0,0,1,.866-.55C405.639,332.309,412.3,337.365,419.363,351.9Z" transform="translate(-402.39 -330.786)" fill="#2178ab"/>
                  </g>
                </g>
              </g>
            </g>
            <g id="Group_6300" data-name="Group 6300" transform="translate(3.467 5.045)">
              <g id="Group_6299" data-name="Group 6299">
                <g id="Group_6298" data-name="Group 6298">
                  <g id="Group_6297" data-name="Group 6297">
                    <path id="Path_18365" data-name="Path 18365" d="M405.491,335.292a15.11,15.11,0,0,1,2.061,2.285l4.7,5.727,4.71,5.71a16.414,16.414,0,0,1,1.9,2.414,12.967,12.967,0,0,1-2.247-2.109c-1.305-1.382-3.037-3.357-4.869-5.6s-3.434-4.323-4.556-5.855A13.854,13.854,0,0,1,405.491,335.292Z" transform="translate(-405.485 -335.29)" fill="#263238"/>
                  </g>
                </g>
              </g>
            </g>
          </g>
          <g id="Group_6310" data-name="Group 6310" transform="translate(15.961 79.532)">
            <g id="Group_6305" data-name="Group 6305">
              <g id="Group_6304" data-name="Group 6304">
                <g id="Group_6303" data-name="Group 6303">
                  <g id="Group_6302" data-name="Group 6302">
                    <path id="Path_18366" data-name="Path 18366" d="M410.165,387.907s-10.884-13.534-5.779-25.965a.575.575,0,0,1,1.022-.1C406.87,364.212,410.5,371.745,410.165,387.907Z" transform="translate(-403.023 -361.577)" fill="#2178ab"/>
                  </g>
                </g>
              </g>
            </g>
            <g id="Group_6309" data-name="Group 6309" transform="translate(2.416 5.874)">
              <g id="Group_6308" data-name="Group 6308">
                <g id="Group_6307" data-name="Group 6307">
                  <g id="Group_6306" data-name="Group 6306">
                    <path id="Path_18367" data-name="Path 18367" d="M405.207,366.821a15.322,15.322,0,0,1,.793,2.973c.453,2.086.985,4.534,1.572,7.237s1.135,5.146,1.593,7.229a16.546,16.546,0,0,1,.595,3.017,12.932,12.932,0,0,1-1.04-2.9c-.532-1.826-1.175-4.373-1.782-7.206s-1.088-5.412-1.39-7.287A13.753,13.753,0,0,1,405.207,366.821Z" transform="translate(-405.179 -366.821)" fill="#263238"/>
                  </g>
                </g>
              </g>
            </g>
          </g>
          <g id="Group_6319" data-name="Group 6319" transform="translate(17.259 131.197)">
            <g id="Group_6314" data-name="Group 6314">
              <g id="Group_6313" data-name="Group 6313">
                <g id="Group_6312" data-name="Group 6312">
                  <g id="Group_6311" data-name="Group 6311">
                    <path id="Path_18368" data-name="Path 18368" d="M420.808,429.086s-15.732-7.354-16.624-20.766a.574.574,0,0,1,.875-.534C407.414,409.265,413.986,414.431,420.808,429.086Z" transform="translate(-404.182 -407.697)" fill="#2178ab"/>
                  </g>
                </g>
              </g>
            </g>
            <g id="Group_6318" data-name="Group 6318" transform="translate(3.392 5.093)">
              <g id="Group_6317" data-name="Group 6317">
                <g id="Group_6316" data-name="Group 6316">
                  <g id="Group_6315" data-name="Group 6315">
                    <path id="Path_18369" data-name="Path 18369" d="M407.216,412.245a15.2,15.2,0,0,1,2.022,2.32l4.6,5.805c1.725,2.162,3.285,4.119,4.614,5.787a16.807,16.807,0,0,1,1.863,2.445,12.756,12.756,0,0,1-2.211-2.146c-1.283-1.4-2.981-3.408-4.776-5.684s-3.361-4.38-4.455-5.931A13.822,13.822,0,0,1,407.216,412.245Z" transform="translate(-407.21 -412.243)" fill="#263238"/>
                  </g>
                </g>
              </g>
            </g>
          </g>
          <g id="Group_6372" data-name="Group 6372" transform="translate(30.034 80.358)">
            <g id="Group_6323" data-name="Group 6323" transform="translate(5.147 3.948)">
              <g id="Group_6322" data-name="Group 6322">
                <g id="Group_6321" data-name="Group 6321">
                  <g id="Group_6320" data-name="Group 6320">
                    <path id="Path_18370" data-name="Path 18370" d="M450.22,365.839a1.343,1.343,0,0,1,.019.383c-.008.3-.016.668-.027,1.11-.046,1.044-.109,2.453-.186,4.211-.2,3.7-.486,8.863-.824,15.038v.015l0,.02c-1.122,6.286-4.323,13.249-8.623,20.012-3.153,4.983-6.458,9.511-9.309,13.723a97.087,97.087,0,0,0-6.98,11.538,48.941,48.941,0,0,0-3.266,8.467c-.277,1.037-.484,1.846-.6,2.4a4.366,4.366,0,0,1-.231.837,4.512,4.512,0,0,1,.1-.861c.078-.563.248-1.385.487-2.439a44.783,44.783,0,0,1,3.1-8.6,91.979,91.979,0,0,1,6.9-11.673c2.833-4.242,6.12-8.778,9.257-13.734,4.277-6.73,7.461-13.589,8.626-19.771l-.006.035c.435-6.169.8-11.326,1.058-15.024.141-1.754.254-3.16.338-4.2.045-.441.082-.8.112-1.106A1.281,1.281,0,0,1,450.22,365.839Z" transform="translate(-420.18 -365.839)" fill="#263238"/>
                  </g>
                </g>
              </g>
            </g>
            <g id="Group_6335" data-name="Group 6335" transform="translate(22.331 16.68)">
              <g id="Group_6327" data-name="Group 6327">
                <g id="Group_6326" data-name="Group 6326">
                  <g id="Group_6325" data-name="Group 6325">
                    <g id="Group_6324" data-name="Group 6324">
                      <path id="Path_18371" data-name="Path 18371" d="M439.007,403.97s6.664-16.037-1.717-26.544a.575.575,0,0,0-1.007.194C435.541,380.3,434.168,388.548,439.007,403.97Z" transform="translate(-435.52 -377.204)" fill="#2178ab"/>
                    </g>
                  </g>
                </g>
              </g>
              <g id="Group_6331" data-name="Group 6331" transform="translate(2.227 5.813)">
                <g id="Group_6330" data-name="Group 6330">
                  <g id="Group_6329" data-name="Group 6329">
                    <g id="Group_6328" data-name="Group 6328">
                      <path id="Path_18372" data-name="Path 18372" d="M437.555,382.393a13.746,13.746,0,0,1,.529,3.034c.236,1.885.5,4.5.707,7.385s.3,5.516.3,7.418a12.853,12.853,0,0,1-.187,3.076,16.692,16.692,0,0,1-.272-3.063c-.142-2.127-.309-4.625-.494-7.386s-.366-5.258-.515-7.388A15.289,15.289,0,0,1,437.555,382.393Z" transform="translate(-437.508 -382.393)" fill="#263238"/>
                    </g>
                  </g>
                </g>
              </g>
              <g id="Group_6334" data-name="Group 6334" opacity="0.3">
                <g id="Group_6333" data-name="Group 6333">
                  <g id="Group_6332" data-name="Group 6332">
                    <path id="Path_18373" data-name="Path 18373" d="M439.007,403.97s6.664-16.037-1.717-26.544a.575.575,0,0,0-1.007.194C435.541,380.3,434.168,388.548,439.007,403.97Z" transform="translate(-435.52 -377.204)"/>
                  </g>
                </g>
              </g>
            </g>
            <g id="Group_6347" data-name="Group 6347" transform="translate(0 55.589)">
              <g id="Group_6339" data-name="Group 6339">
                <g id="Group_6338" data-name="Group 6338">
                  <g id="Group_6337" data-name="Group 6337">
                    <g id="Group_6336" data-name="Group 6336">
                      <path id="Path_18374" data-name="Path 18374" d="M420.768,438.441s5.34-16.526-3.865-26.318a.575.575,0,0,0-.988.274C415.393,415.131,414.694,423.461,420.768,438.441Z" transform="translate(-415.585 -411.937)" fill="#2178ab"/>
                    </g>
                  </g>
                </g>
              </g>
              <g id="Group_6343" data-name="Group 6343" transform="translate(2.248 5.719)">
                <g id="Group_6342" data-name="Group 6342">
                  <g id="Group_6341" data-name="Group 6341">
                    <g id="Group_6340" data-name="Group 6340">
                      <path id="Path_18375" data-name="Path 18375" d="M417.619,417.042a13.85,13.85,0,0,1,.772,2.981c.389,1.858.864,4.438,1.3,7.3s.753,5.473.906,7.369a12.721,12.721,0,0,1,.063,3.081,16.762,16.762,0,0,1-.519-3.029c-.316-2.109-.684-4.586-1.092-7.322s-.792-5.211-1.112-7.321A15.333,15.333,0,0,1,417.619,417.042Z" transform="translate(-417.593 -417.042)" fill="#263238"/>
                    </g>
                  </g>
                </g>
              </g>
              <g id="Group_6346" data-name="Group 6346" opacity="0.3">
                <g id="Group_6345" data-name="Group 6345">
                  <g id="Group_6344" data-name="Group 6344">
                    <path id="Path_18376" data-name="Path 18376" d="M420.768,438.441s5.34-16.526-3.865-26.318a.575.575,0,0,0-.988.274C415.393,415.131,414.694,423.461,420.768,438.441Z" transform="translate(-415.585 -411.937)"/>
                  </g>
                </g>
              </g>
            </g>
            <g id="Group_6359" data-name="Group 6359" transform="translate(34.305)">
              <g id="Group_6351" data-name="Group 6351">
                <g id="Group_6350" data-name="Group 6350">
                  <g id="Group_6349" data-name="Group 6349">
                    <g id="Group_6348" data-name="Group 6348">
                      <path id="Path_18377" data-name="Path 18377" d="M446.208,386.161S460.435,376.2,459,362.838a.574.574,0,0,0-.953-.376C455.981,364.326,450.4,370.549,446.208,386.161Z" transform="translate(-446.208 -362.315)" fill="#2178ab"/>
                    </g>
                  </g>
                </g>
              </g>
              <g id="Group_6354" data-name="Group 6354" opacity="0.3">
                <g id="Group_6353" data-name="Group 6353">
                  <g id="Group_6352" data-name="Group 6352">
                    <path id="Path_18378" data-name="Path 18378" d="M446.208,386.161S460.435,376.2,459,362.838a.574.574,0,0,0-.953-.376C455.981,364.326,450.4,370.549,446.208,386.161Z" transform="translate(-446.208 -362.315)"/>
                  </g>
                </g>
              </g>
              <g id="Group_6358" data-name="Group 6358" transform="translate(0.133 5.512)">
                <g id="Group_6357" data-name="Group 6357">
                  <g id="Group_6356" data-name="Group 6356">
                    <g id="Group_6355" data-name="Group 6355">
                      <path id="Path_18379" data-name="Path 18379" d="M456.412,367.236a13.8,13.8,0,0,1-1.182,2.843c-.812,1.717-1.99,4.061-3.366,6.611s-2.7,4.819-3.721,6.423a12.82,12.82,0,0,1-1.808,2.5,16.465,16.465,0,0,1,1.413-2.73c1.022-1.872,2.22-4.07,3.546-6.5l3.529-6.512A15.143,15.143,0,0,1,456.412,367.236Z" transform="translate(-446.326 -367.235)" fill="#263238"/>
                    </g>
                  </g>
                </g>
              </g>
            </g>
            <g id="Group_6371" data-name="Group 6371" transform="translate(10.92 49.624)">
              <g id="Group_6363" data-name="Group 6363">
                <g id="Group_6362" data-name="Group 6362">
                  <g id="Group_6361" data-name="Group 6361">
                    <g id="Group_6360" data-name="Group 6360">
                      <path id="Path_18380" data-name="Path 18380" d="M425.333,422.7s17.16-2.675,21.755-15.3a.575.575,0,0,0-.69-.758C443.723,407.4,435.971,410.527,425.333,422.7Z" transform="translate(-425.333 -406.612)" fill="#2178ab"/>
                    </g>
                  </g>
                </g>
              </g>
              <g id="Group_6366" data-name="Group 6366" opacity="0.3">
                <g id="Group_6365" data-name="Group 6365">
                  <g id="Group_6364" data-name="Group 6364">
                    <path id="Path_18381" data-name="Path 18381" d="M425.333,422.7s17.16-2.675,21.755-15.3a.575.575,0,0,0-.69-.758C443.723,407.4,435.971,410.527,425.333,422.7Z" transform="translate(-425.333 -406.612)"/>
                  </g>
                </g>
              </g>
              <g id="Group_6370" data-name="Group 6370" transform="translate(0.106 4.122)">
                <g id="Group_6369" data-name="Group 6369">
                  <g id="Group_6368" data-name="Group 6368">
                    <g id="Group_6367" data-name="Group 6367">
                      <path id="Path_18382" data-name="Path 18382" d="M442.569,410.3a13.788,13.788,0,0,1-2.313,2.033c-1.485,1.184-3.575,2.768-5.933,4.453s-4.548,3.136-6.171,4.126a12.782,12.782,0,0,1-2.722,1.445,16.65,16.65,0,0,1,2.471-1.829l6.045-4.271c2.254-1.6,4.3-3.055,6.035-4.292A15.268,15.268,0,0,1,442.569,410.3Z" transform="translate(-425.427 -410.291)" fill="#263238"/>
                    </g>
                  </g>
                </g>
              </g>
            </g>
          </g>
        </g>
        <g id="Group_6376" data-name="Group 6376" transform="translate(19.579 177.646)">
          <g id="Group_6375" data-name="Group 6375">
            <g id="Group_6374" data-name="Group 6374">
              <path id="Path_18383" data-name="Path 18383" d="M411.259,449.161l-5.006,33.688h31.193L433.4,449.161Z" transform="translate(-406.253 -449.161)" fill="#455a64"/>
            </g>
          </g>
        </g>
        <g id="Group_6380" data-name="Group 6380" transform="translate(22.818 187.76)">
          <g id="Group_6379" data-name="Group 6379">
            <g id="Group_6378" data-name="Group 6378">
              <g id="Group_6377" data-name="Group 6377">
                <path id="Path_18384" data-name="Path 18384" d="M434.3,458.514c0,.179-5.633.325-12.578.325s-12.579-.146-12.579-.325,5.63-.325,12.579-.325S434.3,458.335,434.3,458.514Z" transform="translate(-409.144 -458.189)" fill="#263238"/>
              </g>
            </g>
          </g>
        </g>
        <g id="Group_6384" data-name="Group 6384" transform="translate(22.611 190.441)">
          <g id="Group_6383" data-name="Group 6383">
            <g id="Group_6382" data-name="Group 6382">
              <g id="Group_6381" data-name="Group 6381">
                <path id="Path_18385" data-name="Path 18385" d="M434.942,460.907c0,.179-5.817.325-12.99.325s-12.993-.146-12.993-.325,5.816-.325,12.993-.325S434.942,460.728,434.942,460.907Z" transform="translate(-408.959 -460.582)" fill="#263238"/>
              </g>
            </g>
          </g>
        </g>
      </g>
      <g id="Group_6416" data-name="Group 6416" transform="translate(0 149.84)">
        <g id="Group_6390" data-name="Group 6390" transform="translate(9.194)">
          <g id="Group_6389" data-name="Group 6389">
            <g id="Group_6388" data-name="Group 6388">
              <g id="Group_6387" data-name="Group 6387">
                <g id="Group_6386" data-name="Group 6386">
                  <path id="Path_18386" data-name="Path 18386" d="M79.534,424.339a11.9,11.9,0,0,1,7.856,5.022,21.015,21.015,0,0,1,3.4,8.877c1.022,6.1-.627,13.024-2.889,18.779-6.217-2.917-9.531-10.163-10.981-13.944-2.292-5.977-2.8-18.169,2.618-18.734" transform="translate(-75.277 -424.339)" fill="#2178ab"/>
                </g>
              </g>
            </g>
          </g>
        </g>
        <g id="Group_6395" data-name="Group 6395" transform="translate(29.486 24.365)">
          <g id="Group_6394" data-name="Group 6394">
            <g id="Group_6393" data-name="Group 6393">
              <g id="Group_6392" data-name="Group 6392">
                <g id="Group_6391" data-name="Group 6391">
                  <path id="Path_18387" data-name="Path 18387" d="M94.884,462.982a10.153,10.153,0,0,1-.24-10.2,13.486,13.486,0,0,1,8.273-6.341c1.59-.449,3.426-.609,4.777.338a4.347,4.347,0,0,1,1.577,4.111,8.8,8.8,0,0,1-1.956,4.136c-3.243,4.184-7.148,7.638-12.431,7.951" transform="translate(-93.391 -446.088)" fill="#2178ab"/>
                </g>
              </g>
            </g>
          </g>
        </g>
        <g id="Group_6400" data-name="Group 6400" transform="translate(28.827 30.89)">
          <g id="Group_6399" data-name="Group 6399">
            <g id="Group_6398" data-name="Group 6398">
              <g id="Group_6397" data-name="Group 6397">
                <g id="Group_6396" data-name="Group 6396">
                  <path id="Path_18388" data-name="Path 18388" d="M93.385,481.6a4.761,4.761,0,0,1-.208-1.284c-.087-.829-.192-2.031-.273-3.522a43.6,43.6,0,0,1,.71-11.654,21.861,21.861,0,0,1,5.3-10.38,14.367,14.367,0,0,1,2.751-2.26,3.925,3.925,0,0,1,1.166-.584,30.342,30.342,0,0,0-3.557,3.175,22.931,22.931,0,0,0-4.981,10.2,50.48,50.48,0,0,0-.9,11.487A39.42,39.42,0,0,1,93.385,481.6Z" transform="translate(-92.802 -451.913)" fill="#263238"/>
                </g>
              </g>
            </g>
          </g>
        </g>
        <g id="Group_6405" data-name="Group 6405" transform="translate(14.892 9.251)">
          <g id="Group_6404" data-name="Group 6404">
            <g id="Group_6403" data-name="Group 6403">
              <g id="Group_6402" data-name="Group 6402">
                <g id="Group_6401" data-name="Group 6401">
                  <path id="Path_18389" data-name="Path 18389" d="M80.37,432.6a12.8,12.8,0,0,1,.784,1.994c.463,1.3,1.1,3.187,1.866,5.529,1.53,4.684,3.538,11.188,5.577,18.425s3.721,13.837,4.861,18.63c.57,2.4,1.012,4.341,1.294,5.69a12.787,12.787,0,0,1,.372,2.111,12.594,12.594,0,0,1-.634-2.047c-.388-1.447-.9-3.344-1.507-5.634-1.26-4.759-3.017-11.33-5.052-18.562s-3.968-13.749-5.378-18.466c-.672-2.272-1.23-4.155-1.656-5.591A12.664,12.664,0,0,1,80.37,432.6Z" transform="translate(-80.363 -432.597)" fill="#263238"/>
                </g>
              </g>
            </g>
          </g>
        </g>
        <g id="Group_6410" data-name="Group 6410" transform="translate(0 33.347)">
          <g id="Group_6409" data-name="Group 6409">
            <g id="Group_6408" data-name="Group 6408">
              <g id="Group_6407" data-name="Group 6407">
                <g id="Group_6406" data-name="Group 6406">
                  <path id="Path_18390" data-name="Path 18390" d="M89.768,467.818a23.77,23.77,0,0,0-16.983-13.529c-1.882-.36-4.2-.308-5.251,1.3s-.151,3.763.978,5.316a20.3,20.3,0,0,0,21.266,7.436" transform="translate(-67.07 -454.107)" fill="#2178ab"/>
                </g>
              </g>
            </g>
          </g>
        </g>
        <g id="Group_6415" data-name="Group 6415" transform="translate(7.782 38.928)">
          <g id="Group_6414" data-name="Group 6414">
            <g id="Group_6413" data-name="Group 6413">
              <g id="Group_6412" data-name="Group 6412">
                <g id="Group_6411" data-name="Group 6411">
                  <path id="Path_18391" data-name="Path 18391" d="M74.017,459.107a4.3,4.3,0,0,1,1.239.127,9.957,9.957,0,0,1,1.427.3,16.567,16.567,0,0,1,1.855.557,25.029,25.029,0,0,1,4.573,2.131,26.772,26.772,0,0,1,8.826,8.545,25.01,25.01,0,0,1,2.277,4.5,16.814,16.814,0,0,1,.616,1.835,9.924,9.924,0,0,1,.35,1.418,4.339,4.339,0,0,1,.167,1.233c-.133.03-.473-1.709-1.585-4.3A27.92,27.92,0,0,0,91.4,471.12a28.206,28.206,0,0,0-8.625-8.35,27.886,27.886,0,0,0-4.41-2.218C75.741,459.524,73.991,459.24,74.017,459.107Z" transform="translate(-74.017 -459.089)" fill="#263238"/>
                </g>
              </g>
            </g>
          </g>
        </g>
      </g>
    </g>
    <g id="Stars" transform="translate(121.698 70.033)">
      <g id="Group_6501" data-name="Group 6501" transform="translate(0)">
        <g id="Group_6500" data-name="Group 6500">
          <g id="Group_6435" data-name="Group 6435" transform="translate(258.253 21.149)">
            <g id="Group_6421" data-name="Group 6421" transform="translate(16.385)">
              <g id="Group_6418" data-name="Group 6418" transform="translate(6.36 14.156)">
                <g id="Group_6417" data-name="Group 6417">
                  <path id="Path_18392" data-name="Path 18392" d="M362.8,95.5c0,.332,2.429.6,5.424.6s5.425-.268,5.425-.6-2.429-.6-5.425-.6S362.8,95.166,362.8,95.5Z" transform="translate(-362.799 -94.897)" fill="#2178ab"/>
                </g>
              </g>
              <g id="Group_6420" data-name="Group 6420">
                <g id="Group_6419" data-name="Group 6419">
                  <path id="Path_18393" data-name="Path 18393" d="M357.721,82.26c-.332,0-.6,2.465-.6,5.5s.268,5.5.6,5.5.6-2.465.6-5.5S358.053,82.26,357.721,82.26Z" transform="translate(-357.122 -82.26)" fill="#2178ab"/>
                </g>
              </g>
            </g>
            <g id="Group_6426" data-name="Group 6426" transform="translate(0 13.804)">
              <g id="Group_6423" data-name="Group 6423">
                <g id="Group_6422" data-name="Group 6422">
                  <path id="Path_18394" data-name="Path 18394" d="M353.344,95.181c0-.332-2.429-.6-5.424-.6s-5.424.268-5.424.6,2.429.6,5.424.6S353.344,95.513,353.344,95.181Z" transform="translate(-342.496 -94.582)" fill="#2178ab"/>
                </g>
              </g>
              <g id="Group_6425" data-name="Group 6425" transform="translate(16.009 4.348)">
                <g id="Group_6424" data-name="Group 6424">
                  <path id="Path_18395" data-name="Path 18395" d="M357.387,109.472c.332,0,.6-2.466.6-5.5s-.268-5.5-.6-5.5-.6,2.465-.6,5.5S357.056,109.472,357.387,109.472Z" transform="translate(-356.787 -98.463)" fill="#2178ab"/>
                </g>
              </g>
            </g>
            <g id="Group_6428" data-name="Group 6428" transform="translate(7.787 18.179)">
              <g id="Group_6427" data-name="Group 6427">
                <path id="Path_18396" data-name="Path 18396" d="M349.5,103.139c.254.213,1.324-.65,2.388-1.925s1.723-2.481,1.469-2.694-1.324.649-2.389,1.925S349.248,102.926,349.5,103.139Z" transform="translate(-349.447 -98.488)" fill="#2178ab"/>
              </g>
            </g>
            <g id="Group_6430" data-name="Group 6430" transform="translate(8.304 6.052)">
              <g id="Group_6429" data-name="Group 6429">
                <path id="Path_18397" data-name="Path 18397" d="M349.954,87.707c-.235.233.47,1.326,1.575,2.442s2.193,1.83,2.429,1.6-.471-1.327-1.576-2.443S350.189,87.473,349.954,87.707Z" transform="translate(-349.909 -87.662)" fill="#2178ab"/>
              </g>
            </g>
            <g id="Group_6432" data-name="Group 6432" transform="translate(20.744 7.12)">
              <g id="Group_6431" data-name="Group 6431">
                <path id="Path_18398" data-name="Path 18398" d="M361.052,91.855c.212.255,1.238-.249,2.29-1.125s1.735-1.792,1.523-2.048-1.238.25-2.291,1.126S360.84,91.6,361.052,91.855Z" transform="translate(-361.014 -88.616)" fill="#2178ab"/>
              </g>
            </g>
            <g id="Group_6434" data-name="Group 6434" transform="translate(21.217 17.694)">
              <g id="Group_6433" data-name="Group 6433">
                <path id="Path_18399" data-name="Path 18399" d="M361.49,98.1c-.245.223.37,1.3,1.373,2.4s2.016,1.814,2.262,1.591-.371-1.3-1.375-2.4S361.735,97.872,361.49,98.1Z" transform="translate(-361.436 -98.055)" fill="#2178ab"/>
              </g>
            </g>
          </g>
          <g id="Group_6454" data-name="Group 6454" transform="translate(0 156.903)">
            <g id="Group_6440" data-name="Group 6440" transform="translate(9.302)">
              <g id="Group_6437" data-name="Group 6437" transform="translate(3.611 8.037)">
                <g id="Group_6436" data-name="Group 6436">
                  <path id="Path_18400" data-name="Path 18400" d="M123.49,210.958c0,.188,1.379.341,3.08.341s3.081-.152,3.081-.341-1.379-.341-3.081-.341S123.49,210.769,123.49,210.958Z" transform="translate(-123.49 -210.617)" fill="#2178ab"/>
                </g>
              </g>
              <g id="Group_6439" data-name="Group 6439">
                <g id="Group_6438" data-name="Group 6438">
                  <path id="Path_18401" data-name="Path 18401" d="M120.608,203.443c-.188,0-.341,1.4-.341,3.124s.152,3.125.341,3.125.341-1.4.341-3.125S120.8,203.443,120.608,203.443Z" transform="translate(-120.267 -203.443)" fill="#2178ab"/>
                </g>
              </g>
            </g>
            <g id="Group_6445" data-name="Group 6445" transform="translate(0 7.836)">
              <g id="Group_6442" data-name="Group 6442">
                <g id="Group_6441" data-name="Group 6441">
                  <path id="Path_18402" data-name="Path 18402" d="M118.122,210.779c0-.188-1.379-.341-3.08-.341s-3.08.152-3.08.341,1.379.341,3.08.341S118.122,210.967,118.122,210.779Z" transform="translate(-111.963 -210.438)" fill="#2178ab"/>
                </g>
              </g>
              <g id="Group_6444" data-name="Group 6444" transform="translate(9.09 2.469)">
                <g id="Group_6443" data-name="Group 6443">
                  <path id="Path_18403" data-name="Path 18403" d="M120.418,218.891c.188,0,.341-1.4.341-3.124s-.152-3.124-.341-3.124-.341,1.4-.341,3.124S120.229,218.891,120.418,218.891Z" transform="translate(-120.077 -212.642)" fill="#2178ab"/>
                </g>
              </g>
            </g>
            <g id="Group_6447" data-name="Group 6447" transform="translate(4.421 10.32)">
              <g id="Group_6446" data-name="Group 6446">
                <path id="Path_18404" data-name="Path 18404" d="M115.94,215.3c.146.121.753-.369,1.357-1.092s.978-1.409.833-1.53-.752.369-1.355,1.093S115.8,215.175,115.94,215.3Z" transform="translate(-115.91 -212.656)" fill="#2178ab"/>
              </g>
            </g>
            <g id="Group_6449" data-name="Group 6449" transform="translate(4.714 3.435)">
              <g id="Group_6448" data-name="Group 6448">
                <path id="Path_18405" data-name="Path 18405" d="M116.2,206.535c-.133.132.268.754.9,1.387s1.245,1.04,1.379.906-.267-.753-.9-1.387S116.331,206.4,116.2,206.535Z" transform="translate(-116.171 -206.51)" fill="#2178ab"/>
              </g>
            </g>
            <g id="Group_6451" data-name="Group 6451" transform="translate(11.778 4.042)">
              <g id="Group_6450" data-name="Group 6450">
                <path id="Path_18406" data-name="Path 18406" d="M122.5,208.889c.121.146.7-.141,1.3-.637s.985-1.018.864-1.163-.7.141-1.3.639S122.378,208.746,122.5,208.889Z" transform="translate(-122.477 -207.052)" fill="#2178ab"/>
              </g>
            </g>
            <g id="Group_6453" data-name="Group 6453" transform="translate(12.046 10.044)">
              <g id="Group_6452" data-name="Group 6452">
                <path id="Path_18407" data-name="Path 18407" d="M122.747,212.432c-.14.127.209.737.779,1.362s1.145,1.03,1.284.9-.209-.737-.78-1.362S122.886,212.306,122.747,212.432Z" transform="translate(-122.716 -212.409)" fill="#2178ab"/>
              </g>
            </g>
          </g>
          <g id="Group_6473" data-name="Group 6473" transform="translate(273.676 223.307)">
            <g id="Group_6459" data-name="Group 6459" transform="translate(9.302)">
              <g id="Group_6456" data-name="Group 6456" transform="translate(3.611 8.038)">
                <g id="Group_6455" data-name="Group 6455">
                  <path id="Path_18408" data-name="Path 18408" d="M367.791,270.235c0,.188,1.379.341,3.08.341s3.081-.152,3.081-.341-1.38-.341-3.081-.341S367.791,270.046,367.791,270.235Z" transform="translate(-367.791 -269.894)" fill="#2178ab"/>
                </g>
              </g>
              <g id="Group_6458" data-name="Group 6458">
                <g id="Group_6457" data-name="Group 6457">
                  <path id="Path_18409" data-name="Path 18409" d="M364.909,262.719c-.188,0-.341,1.4-.341,3.125s.152,3.124.341,3.124.339-1.4.339-3.124S365.1,262.719,364.909,262.719Z" transform="translate(-364.568 -262.719)" fill="#2178ab"/>
                </g>
              </g>
            </g>
            <g id="Group_6464" data-name="Group 6464" transform="translate(0 7.836)">
              <g id="Group_6461" data-name="Group 6461">
                <g id="Group_6460" data-name="Group 6460">
                  <path id="Path_18410" data-name="Path 18410" d="M362.423,270.056c0-.188-1.379-.342-3.08-.342s-3.08.154-3.08.342,1.379.341,3.08.341S362.423,270.244,362.423,270.056Z" transform="translate(-356.264 -269.714)" fill="#2178ab"/>
                </g>
              </g>
              <g id="Group_6463" data-name="Group 6463" transform="translate(9.089 2.47)">
                <g id="Group_6462" data-name="Group 6462">
                  <path id="Path_18411" data-name="Path 18411" d="M364.719,278.168c.188,0,.341-1.4.341-3.125s-.152-3.123-.341-3.123-.342,1.4-.342,3.123S364.531,278.168,364.719,278.168Z" transform="translate(-364.377 -271.919)" fill="#2178ab"/>
                </g>
              </g>
            </g>
            <g id="Group_6466" data-name="Group 6466" transform="translate(4.421 10.321)">
              <g id="Group_6465" data-name="Group 6465">
                <path id="Path_18412" data-name="Path 18412" d="M360.241,274.573c.146.12.753-.369,1.357-1.093s.978-1.409.833-1.529-.752.369-1.357,1.092S360.1,274.453,360.241,274.573Z" transform="translate(-360.21 -271.933)" fill="#2178ab"/>
              </g>
            </g>
            <g id="Group_6468" data-name="Group 6468" transform="translate(4.714 3.437)">
              <g id="Group_6467" data-name="Group 6467">
                <path id="Path_18413" data-name="Path 18413" d="M360.5,265.812c-.134.132.268.753.894,1.386s1.246,1.04,1.38.907-.267-.754-.9-1.386S360.632,265.68,360.5,265.812Z" transform="translate(-360.472 -265.787)" fill="#2178ab"/>
              </g>
            </g>
            <g id="Group_6470" data-name="Group 6470" transform="translate(11.777 4.043)">
              <g id="Group_6469" data-name="Group 6469">
                <path id="Path_18414" data-name="Path 18414" d="M366.8,268.166c.121.145.7-.141,1.3-.639s.984-1.017.864-1.162-.7.141-1.3.639S366.678,268.022,366.8,268.166Z" transform="translate(-366.777 -266.328)" fill="#2178ab"/>
              </g>
            </g>
            <g id="Group_6472" data-name="Group 6472" transform="translate(12.046 10.046)">
              <g id="Group_6471" data-name="Group 6471">
                <path id="Path_18415" data-name="Path 18415" d="M367.047,271.71c-.139.127.211.737.781,1.361s1.144,1.031,1.283.9-.209-.736-.78-1.362S367.186,271.583,367.047,271.71Z" transform="translate(-367.017 -271.686)" fill="#2178ab"/>
              </g>
            </g>
          </g>
          <g id="Group_6492" data-name="Group 6492" transform="translate(47.113 396.781)">
            <g id="Group_6478" data-name="Group 6478" transform="translate(9.301)">
              <g id="Group_6475" data-name="Group 6475" transform="translate(3.611 8.037)">
                <g id="Group_6474" data-name="Group 6474">
                  <path id="Path_18416" data-name="Path 18416" d="M165.545,425.086c0,.188,1.379.342,3.08.342s3.08-.154,3.08-.342-1.378-.339-3.08-.339S165.545,424.9,165.545,425.086Z" transform="translate(-165.545 -424.747)" fill="#2178ab"/>
                </g>
              </g>
              <g id="Group_6477" data-name="Group 6477">
                <g id="Group_6476" data-name="Group 6476">
                  <path id="Path_18417" data-name="Path 18417" d="M162.663,417.573c-.188,0-.341,1.4-.341,3.124s.152,3.124.341,3.124.341-1.4.341-3.124S162.851,417.573,162.663,417.573Z" transform="translate(-162.322 -417.573)" fill="#2178ab"/>
                </g>
              </g>
            </g>
            <g id="Group_6483" data-name="Group 6483" transform="translate(0 7.836)">
              <g id="Group_6480" data-name="Group 6480">
                <g id="Group_6479" data-name="Group 6479">
                  <path id="Path_18418" data-name="Path 18418" d="M160.178,424.909c0-.188-1.379-.341-3.08-.341s-3.08.152-3.08.341,1.378.341,3.08.341S160.178,425.1,160.178,424.909Z" transform="translate(-154.019 -424.568)" fill="#2178ab"/>
                </g>
              </g>
              <g id="Group_6482" data-name="Group 6482" transform="translate(9.089 2.468)">
                <g id="Group_6481" data-name="Group 6481">
                  <path id="Path_18419" data-name="Path 18419" d="M162.473,433.021c.188,0,.341-1.4.341-3.124s-.152-3.125-.341-3.125-.341,1.4-.341,3.125S162.284,433.021,162.473,433.021Z" transform="translate(-162.132 -426.771)" fill="#2178ab"/>
                </g>
              </g>
            </g>
            <g id="Group_6485" data-name="Group 6485" transform="translate(4.421 10.32)">
              <g id="Group_6484" data-name="Group 6484">
                <path id="Path_18420" data-name="Path 18420" d="M158,429.425c.145.121.752-.369,1.356-1.091s.978-1.409.833-1.531-.752.369-1.357,1.093S157.852,429.306,158,429.425Z" transform="translate(-157.965 -426.785)" fill="#2178ab"/>
              </g>
            </g>
            <g id="Group_6487" data-name="Group 6487" transform="translate(4.713 3.435)">
              <g id="Group_6486" data-name="Group 6486">
                <path id="Path_18421" data-name="Path 18421" d="M158.252,420.665c-.133.132.268.753.9,1.386s1.246,1.041,1.379.906-.267-.752-.9-1.386S158.386,420.533,158.252,420.665Z" transform="translate(-158.226 -420.64)" fill="#2178ab"/>
              </g>
            </g>
            <g id="Group_6489" data-name="Group 6489" transform="translate(11.777 4.042)">
              <g id="Group_6488" data-name="Group 6488">
                <path id="Path_18422" data-name="Path 18422" d="M164.553,423.019c.121.146.7-.141,1.3-.639s.985-1.018.864-1.163-.7.141-1.3.64S164.433,422.875,164.553,423.019Z" transform="translate(-164.532 -421.181)" fill="#2178ab"/>
              </g>
            </g>
            <g id="Group_6491" data-name="Group 6491" transform="translate(12.045 10.044)">
              <g id="Group_6490" data-name="Group 6490">
                <path id="Path_18423" data-name="Path 18423" d="M164.8,426.563c-.139.127.211.736.781,1.362s1.145,1.03,1.284.9-.211-.737-.781-1.362S164.94,426.436,164.8,426.563Z" transform="translate(-164.771 -426.539)" fill="#2178ab"/>
              </g>
            </g>
          </g>
          <g id="Group_6493" data-name="Group 6493" transform="translate(50.981 119.877)">
            <path id="Path_18424" data-name="Path 18424" d="M162.038,170.391l-.354.849a6.008,6.008,0,0,1-3.29,3.26l-.922.374.886.36a6.018,6.018,0,0,1,3.316,3.324l.249.618.374-.777a6.011,6.011,0,0,1,3.358-3.045l.8-.294-1.051-.51a6.01,6.01,0,0,1-2.929-3.1Z" transform="translate(-157.472 -170.391)" fill="#2178ab"/>
          </g>
          <g id="Group_6494" data-name="Group 6494" transform="translate(13.746 105.058)">
            <path id="Path_18425" data-name="Path 18425" d="M126.517,157.163l-.177.425a3.01,3.01,0,0,1-1.646,1.63l-.46.187.442.179a3.009,3.009,0,0,1,1.658,1.661l.125.309.186-.388a3.011,3.011,0,0,1,1.679-1.524l.4-.146-.525-.255a3.007,3.007,0,0,1-1.464-1.549Z" transform="translate(-124.234 -157.163)" fill="#2178ab"/>
          </g>
          <g id="Group_6495" data-name="Group 6495" transform="translate(320.24 44.191)">
            <path id="Path_18426" data-name="Path 18426" d="M400.113,102.829l-.178.425a3,3,0,0,1-1.645,1.63l-.46.187.443.18a3,3,0,0,1,1.658,1.661l.124.309.187-.389a3.006,3.006,0,0,1,1.679-1.522l.4-.147-.524-.254a3.011,3.011,0,0,1-1.465-1.55Z" transform="translate(-397.83 -102.829)" fill="#2178ab"/>
          </g>
          <g id="Group_6496" data-name="Group 6496" transform="translate(303.388 272.259)">
            <path id="Path_18427" data-name="Path 18427" d="M385.07,306.417l-.178.423a2.994,2.994,0,0,1-1.645,1.63l-.46.189.443.179a3,3,0,0,1,1.658,1.661l.124.309.187-.389a3.006,3.006,0,0,1,1.679-1.522l.4-.148-.525-.253a3.012,3.012,0,0,1-1.465-1.55Z" transform="translate(-382.787 -306.417)" fill="#2178ab"/>
          </g>
          <g id="Group_6497" data-name="Group 6497" transform="translate(67.163 372.171)">
            <path id="Path_18428" data-name="Path 18428" d="M174.2,395.605l-.177.423a3.012,3.012,0,0,1-1.646,1.631l-.462.187.444.179a3.01,3.01,0,0,1,1.658,1.661l.124.31.187-.389a3,3,0,0,1,1.679-1.522l.4-.147-.525-.254a3.02,3.02,0,0,1-1.465-1.55Z" transform="translate(-171.917 -395.605)" fill="#2178ab"/>
          </g>
          <g id="Group_6498" data-name="Group 6498" transform="translate(244.704)">
            <path id="Path_18429" data-name="Path 18429" d="M332.685,63.381l-.176.425a3.014,3.014,0,0,1-1.646,1.63l-.462.187.442.179a3.011,3.011,0,0,1,1.658,1.662l.124.309.187-.389a3.009,3.009,0,0,1,1.679-1.522l.4-.147-.525-.254a3.007,3.007,0,0,1-1.465-1.55Z" transform="translate(-330.402 -63.381)" fill="#2178ab"/>
          </g>
          <g id="Group_6499" data-name="Group 6499" transform="translate(269.182 298.059)">
            <path id="Path_18430" data-name="Path 18430" d="M356.819,329.448l-.354.849a6.011,6.011,0,0,1-3.29,3.26l-.923.375.886.358a6.014,6.014,0,0,1,3.316,3.324l.25.619.373-.779a6.02,6.02,0,0,1,3.359-3.046l.8-.292-1.051-.509a6.025,6.025,0,0,1-2.929-3.1Z" transform="translate(-352.252 -329.448)" fill="#2178ab"/>
          </g>
        </g>
      </g>
    </g>
  </g>
</svg>
