<svg id="SvgjsSvg1001" width="288" height="288" xmlns="http://www.w3.org/2000/svg" version="1.1" xmlns:xlink="http://www.w3.org/1999/xlink" xmlns:svgjs="http://svgjs.com/svgjs"><defs id="SvgjsDefs1002"></defs><g id="SvgjsG1008" transform="matrix(1,0,0,1,0,0)"><svg xmlns="http://www.w3.org/2000/svg" width="288" height="288" viewBox="0 0 48.462 55.385"><g data-name="Group 4154" fill="#ffffff" class="color000 svgShape"><path d="M50.679,21.241a49.034,49.034,0,0,0-4.715-5.393,49.054,49.054,0,0,0-5.393-4.715c-2.789-2.046-4.143-2.282-4.918-2.282h-19.9a4.332,4.332,0,0,0-4.327,4.327V52.986a4.332,4.332,0,0,0,4.327,4.327H48.634a4.332,4.332,0,0,0,4.327-4.327V26.159c0-.775-.236-2.128-2.282-4.918ZM43.516,18.3a47.21,47.21,0,0,1,3.926,4.4H39.114V14.371a47.176,47.176,0,0,1,4.4,3.925ZM49.5,52.986a.877.877,0,0,1-.865.865H15.749a.877.877,0,0,1-.865-.865V13.178a.877.877,0,0,1,.865-.865h19.9V24.428a1.731,1.731,0,0,0,1.731,1.731H49.5ZM33.647,4.21C30.858,2.165,29.5,1.928,28.73,1.928H8.826A4.332,4.332,0,0,0,4.5,6.255V46.063A4.334,4.334,0,0,0,7.96,50.3V6.255a.877.877,0,0,1,.865-.865H35.159c-.522-.428-1.029-.825-1.512-1.179Z" data-name="Icon metro-files-empty" transform="translate(-4.499 -1.928)" fill="#ffffff" class="color000 svgShape"></path></g></svg></g></svg>