<svg xmlns="http://www.w3.org/2000/svg" xmlns:xlink="http://www.w3.org/1999/xlink" width="146.542" height="140" viewBox="0 0 146.542 140">
  <defs>
    <filter id="Rectangle_85" x="2.782" y="0" width="140" height="140" filterUnits="userSpaceOnUse">
      <feOffset dy="10" input="SourceAlpha"/>
      <feGaussianBlur stdDeviation="10" result="blur"/>
      <feFlood flood-color="#f5e3f9" flood-opacity="0.11"/>
      <feComposite operator="in" in2="blur"/>
      <feComposite in="SourceGraphic"/>
    </filter>
  </defs>
  <g id="Group_6977" data-name="Group 6977" transform="translate(-4211.218 -2446.902)">
    <g id="Group_5947" data-name="Group 5947" transform="translate(4158.594 2457.137)">
      <g transform="matrix(1, 0, 0, 1, 52.62, -10.24)" filter="url(#Rectangle_85)">
        <rect id="Rectangle_85-2" data-name="Rectangle 85" width="80" height="80" rx="40" transform="translate(32.78 20)" fill="#5d879f" opacity="0.15"/>
      </g>
      <g id="Group_3860" data-name="Group 3860" transform="translate(52.624 0)">
        <path id="Path_17424" data-name="Path 17424" d="M-688.259-963.4v-1.692q0-17.207,0-34.414c0-5.243,3.451-8.721,8.654-8.721q55.167,0,110.333,0c5.138,0,8.63,3.476,8.637,8.592q.013,10.191,0,20.382v1.585a28.871,28.871,0,0,1,3.431.486,8.082,8.082,0,0,1,6.016,7.828q.021,27.325,0,54.65a8.132,8.132,0,0,1-8.088,8.092q-15.509.044-31.018,0a8.165,8.165,0,0,1-8.141-8.193c-.02-2.705,0-5.41,0-8.229h-11.072l1.115,4.624c1.582,0,3.189-.01,4.8,0,1.953.015,2.769.826,2.782,2.778q.02,3.1,0,6.2c-.011,1.977-.813,2.818-2.742,2.819q-20.9.011-41.8,0c-1.87,0-2.7-.836-2.714-2.695-.017-2.166-.021-4.333,0-6.5.018-1.759.866-2.585,2.652-2.605,1.617-.019,3.235,0,4.908,0l1.146-4.626h-20.542c0,2.618.005,5.212,0,7.807a8.206,8.206,0,0,1-8.608,8.625q-10.339.012-20.678,0a8.187,8.187,0,0,1-8.518-8.564q-.01-19.57,0-39.14c0-5.606,3.179-8.856,8.811-9.017C-688.758-963.328-688.613-963.356-688.259-963.4Zm122.911-14.1c0-7.286,0-14.327,0-21.368,0-3.364-1.273-4.642-4.625-4.642q-54.511,0-109.023,0c-3.253,0-4.544,1.3-4.545,4.572q0,16.989,0,33.977v1.644c5.27,0,10.336-.017,15.4,0a8.17,8.17,0,0,1,8.229,8.257c.022,3.841,0,7.682.008,11.523,0,.472.042.944.063,1.368h61.4c0-8.983,0-17.845,0-26.708a8.191,8.191,0,0,1,8.606-8.624q11.375-.01,22.75,0Zm-28.375,35.307q0,13.221,0,26.442c0,3.076,1.341,4.429,4.39,4.431q14.477.009,28.953,0c3.152,0,4.48-1.331,4.483-4.489q.007-12.113,0-24.226,0-14.108,0-28.215c0-3.243-1.307-4.529-4.584-4.534-1.428,0-2.86.063-4.283-.022a1.369,1.369,0,0,0-1.636,1.219c-.356,1.325-.887,2.6-1.3,3.914a2.527,2.527,0,0,1-2.714,1.99c-2.954-.037-5.909-.031-8.863,0a2.463,2.463,0,0,1-2.623-1.907c-.387-1.216-.882-2.4-1.185-3.639-.292-1.188-.839-1.712-2.132-1.583-1.317.131-2.656.026-3.986.029-3.243.008-4.524,1.3-4.525,4.592Q-593.726-955.192-593.723-942.192Zm-70.9,7.259q0-9.676,0-19.351c0-2.97-1.6-4.516-4.5-4.282a1.584,1.584,0,0,0-1.1.827c-.558,1.36-1.012,2.766-1.438,4.176a2.586,2.586,0,0,1-2.81,2.066c-2.9-.047-5.81-.04-8.715,0a2.523,2.523,0,0,1-2.723-1.975c-.438-1.405-.883-2.815-1.452-4.17a1.717,1.717,0,0,0-1.173-.917c-2.86-.21-4.448,1.3-4.45,4.178q-.014,19.425,0,38.851c0,2.844,1.408,4.209,4.309,4.213q9.823.014,19.647,0c3.058,0,4.408-1.353,4.412-4.411Q-664.614-925.332-664.622-934.933Zm4.785,6.968h61.28v-9.286h-61.28Zm25.426,4.862c-.377,1.59-.729,3.077-1.09,4.6h22.143l-1.152-4.6Zm-8.885,11.685h37.7v-2.2h-37.7Zm72.083-61.254h-7.214c.469,2.264.469,2.264,2.616,2.264h2.061C-571.605-970.409-571.605-970.409-571.214-972.673Zm-111.2,14.121c.4,2.325.4,2.325,2.547,2.325h2.209c2.108,0,2.177-.066,2.4-2.325Z" transform="translate(697.715 1008.228)" fill="#fff" fill-rule="evenodd"/>
        <path id="Path_17425" data-name="Path 17425" d="M-396.6-780.266c1.526,0,3.053-.026,4.579.008a2.288,2.288,0,0,1,2.446,2.368,2.294,2.294,0,0,1-2.486,2.33q-4.579.041-9.159,0a2.3,2.3,0,0,1-2.518-2.3,2.305,2.305,0,0,1,2.557-2.405C-399.655-780.286-398.127-780.267-396.6-780.266Z" transform="translate(519.564 870.088)" fill="#fff" fill-rule="evenodd"/>
        <path id="Path_17426" data-name="Path 17426" d="M-660.568-780.266c1.526,0,3.054-.026,4.579.008a2.287,2.287,0,0,1,2.446,2.368,2.294,2.294,0,0,1-2.485,2.33q-4.579.041-9.159,0a2.3,2.3,0,0,1-2.518-2.3,2.305,2.305,0,0,1,2.557-2.405C-663.622-780.286-662.095-780.267-660.568-780.266Z" transform="translate(679.529 870.088)" fill="#fff" fill-rule="evenodd"/>
        <path id="Path_17427" data-name="Path 17427" d="M-519.078-817.575c-.788,0-1.578.036-2.363-.008a2.285,2.285,0,0,1-2.281-2.382,2.236,2.236,0,0,1,2.2-2.3c1.672-.061,3.349-.061,5.021,0a2.245,2.245,0,0,1,2.21,2.3,2.286,2.286,0,0,1-2.279,2.386C-517.4-817.537-518.241-817.575-519.078-817.575Z" transform="translate(592.275 895.562)" fill="#fff" fill-rule="evenodd"/>
      </g>
    </g>
  </g>
</svg>
